<svg xmlns="http://www.w3.org/2000/svg" xmlns:xlink="http://www.w3.org/1999/xlink" width="1122" zoomAndPan="magnify" viewBox="0 0 841.92 595.499987" height="793" preserveAspectRatio="xMidYMid meet" version="1.0"><defs><g/><clipPath id="f3f04d8f7a"><path d="M 0.3125 0 L 841.527344 0 L 841.527344 595 L 0.3125 595 Z M 0.3125 0 " clip-rule="nonzero"/></clipPath><clipPath id="6837561535"><path d="M 409.765625 221.152344 L 468.125 221.152344 L 468.125 327.542969 L 409.765625 327.542969 Z M 409.765625 221.152344 " clip-rule="nonzero"/></clipPath><clipPath id="4120256682"><path d="M 409.765625 221.152344 L 468.125 221.152344 L 468.125 269 L 409.765625 269 Z M 409.765625 221.152344 " clip-rule="nonzero"/></clipPath></defs><g clip-path="url(#f3f04d8f7a)"><path fill="#ffffff" d="M 0.3125 0 L 841.855469 0 L 841.855469 595 L 0.3125 595 Z M 0.3125 0 " fill-opacity="1" fill-rule="nonzero"/><path fill="#ffffff" d="M 0.3125 0 L 841.855469 0 L 841.855469 595 L 0.3125 595 Z M 0.3125 0 " fill-opacity="1" fill-rule="nonzero"/></g><g clip-path="url(#6837561535)"><path fill="#f5b493" d="M 409.765625 221.152344 L 468.125 221.152344 L 468.125 327.542969 L 409.765625 327.542969 Z M 409.765625 221.152344 " fill-opacity="1" fill-rule="nonzero"/></g><g clip-path="url(#4120256682)"><path fill="#eba284" d="M 399.730469 257.351562 C 422.878906 271.46875 450.957031 272.449219 474.703125 258.710938 L 475.683594 213.136719 L 398.789062 213.136719 Z M 399.730469 257.351562 " fill-opacity="1" fill-rule="nonzero"/></g><path fill="#287eef" d="M 403.339844 283.195312 C 396.695312 283.003906 390.066406 282.554688 383.457031 281.855469 C 376.847656 281.15625 370.273438 280.207031 363.734375 279.007812 C 357.199219 277.808594 350.714844 276.359375 344.289062 274.664062 C 337.863281 272.96875 331.507812 271.03125 325.230469 268.855469 C 318.953125 266.675781 312.765625 264.261719 306.671875 261.609375 C 300.574219 258.960938 294.589844 256.082031 288.714844 252.972656 C 282.839844 249.867188 277.09375 246.539062 271.472656 242.996094 C 265.851562 239.449219 260.375 235.695312 255.042969 231.734375 L 345.003906 100.230469 L 328.515625 75.183594 C 328.515625 75.183594 173.464844 189.101562 168.835938 232.632812 C 164.207031 276.164062 339.394531 395.617188 339.394531 395.617188 C 339.394531 395.617188 415.292969 344.96875 403.339844 283.195312 Z M 403.339844 283.195312 " fill-opacity="1" fill-rule="nonzero"/><path fill="#287eef" d="M 455.640625 283.195312 C 462.28125 283.003906 468.910156 282.554688 475.519531 281.855469 C 482.128906 281.15625 488.703125 280.207031 495.238281 279.007812 C 501.777344 277.808594 508.257812 276.359375 514.683594 274.664062 C 521.109375 272.972656 527.460938 271.035156 533.742188 268.855469 C 540.019531 266.675781 546.207031 264.261719 552.300781 261.609375 C 558.394531 258.960938 564.378906 256.082031 570.25 252.972656 C 576.125 249.867188 581.871094 246.542969 587.492188 242.996094 C 593.113281 239.449219 598.589844 235.695312 603.921875 231.734375 L 513.972656 100.230469 L 530.449219 75.210938 C 530.449219 75.210938 685.5 189.101562 690.183594 232.632812 C 694.867188 276.164062 519.570312 395.617188 519.570312 395.617188 C 519.570312 395.617188 443.726562 344.96875 455.640625 283.195312 Z M 455.640625 283.195312 " fill-opacity="1" fill-rule="nonzero"/><path fill="#f5b493" d="M 513.507812 134.984375 C 513.921875 140.910156 513.3125 146.726562 511.683594 152.441406 C 510.988281 154.886719 506.78125 171.089844 501.621094 187.808594 C 496.816406 203.332031 479.984375 254.464844 438.15625 256.902344 C 403.679688 258.601562 378.324219 218.8125 368.480469 186.40625 C 366.804688 176.109375 358.949219 146.046875 358.566406 133.121094 C 358.492188 130.484375 358.617188 127.851562 358.949219 125.234375 C 358.949219 125.234375 359.929688 78.886719 387.460938 53.132812 C 393.570312 47.398438 400.570312 43.113281 408.457031 40.277344 C 411.074219 39.761719 433.730469 27.953125 465.292969 40.074219 L 466.585938 40.277344 C 514.652344 57.445312 516.054688 125.246094 516.054688 125.246094 C 515.199219 128.226562 514.351562 131.558594 513.507812 134.984375 Z M 513.507812 134.984375 " fill-opacity="1" fill-rule="nonzero"/><path fill="#2d1929" d="M 434.535156 188.40625 C 428.433594 186.871094 424.851562 184.449219 423.925781 181.210938 C 421.84375 174.042969 434.003906 169.8125 432.207031 147.394531 C 432.191406 147.203125 432.242188 147.039062 432.367188 146.894531 C 432.488281 146.75 432.644531 146.671875 432.832031 146.65625 C 433.019531 146.640625 433.1875 146.695312 433.328125 146.816406 C 433.472656 146.941406 433.550781 147.09375 433.566406 147.285156 C 435.390625 170.015625 423.410156 174.585938 425.234375 180.828125 C 426.023438 183.550781 429.320312 185.671875 434.875 187.085938 C 435.054688 187.136719 435.195312 187.238281 435.289062 187.402344 C 435.386719 187.5625 435.410156 187.734375 435.363281 187.917969 C 435.316406 188.097656 435.210938 188.238281 435.050781 188.332031 C 434.886719 188.429688 434.714844 188.453125 434.535156 188.40625 Z M 434.535156 188.40625 " fill-opacity="1" fill-rule="nonzero"/><path fill="#2d1929" d="M 409.765625 152.125 C 409.765625 157.566406 406.890625 162.058594 403.339844 162.070312 C 399.785156 162.085938 396.898438 157.621094 396.898438 152.140625 C 396.898438 146.65625 399.769531 142.195312 403.324219 142.195312 C 406.878906 142.195312 409.765625 146.628906 409.765625 152.125 Z M 409.765625 152.125 " fill-opacity="1" fill-rule="nonzero"/><path fill="#2d1929" d="M 388.523438 131.136719 C 387.992188 131.132812 387.597656 130.898438 387.339844 130.429688 C 387.085938 129.964844 387.097656 129.507812 387.378906 129.054688 C 387.476562 128.890625 397.523438 113.453125 415.484375 117.546875 C 415.660156 117.585938 415.820312 117.660156 415.964844 117.761719 C 416.113281 117.867188 416.230469 117.996094 416.328125 118.144531 C 416.421875 118.296875 416.488281 118.460938 416.515625 118.636719 C 416.546875 118.816406 416.542969 118.992188 416.503906 119.164062 C 416.464844 119.34375 416.394531 119.503906 416.289062 119.652344 C 416.1875 119.800781 416.058594 119.925781 415.902344 120.023438 C 415.75 120.121094 415.585938 120.183594 415.40625 120.214844 C 415.226562 120.246094 415.046875 120.238281 414.871094 120.199219 C 398.832031 116.539062 390.035156 129.9375 389.667969 130.511719 C 389.398438 130.925781 389.019531 131.136719 388.523438 131.136719 Z M 388.523438 131.136719 " fill-opacity="1" fill-rule="nonzero"/><path fill="#2d1929" d="M 472.605469 152.140625 C 472.605469 157.582031 469.703125 162.070312 466.152344 162.070312 C 462.597656 162.070312 459.722656 157.609375 459.722656 152.125 C 459.722656 146.644531 462.625 142.195312 466.179688 142.195312 C 469.730469 142.195312 472.605469 146.644531 472.605469 152.140625 Z M 472.605469 152.140625 " fill-opacity="1" fill-rule="nonzero"/><path fill="#2d1929" d="M 480.898438 131.285156 C 480.390625 131.285156 480.003906 131.066406 479.742188 130.632812 C 479.386719 130.0625 470.753906 116.566406 454.644531 120.050781 C 454.464844 120.085938 454.285156 120.089844 454.101562 120.054688 C 453.921875 120.019531 453.753906 119.953125 453.597656 119.851562 C 453.445312 119.753906 453.316406 119.625 453.210938 119.472656 C 453.105469 119.320312 453.035156 119.15625 452.996094 118.976562 C 452.960938 118.792969 452.957031 118.613281 452.992188 118.433594 C 453.027344 118.25 453.09375 118.082031 453.195312 117.929688 C 453.296875 117.773438 453.421875 117.644531 453.574219 117.542969 C 453.726562 117.4375 453.894531 117.367188 454.074219 117.328125 C 472.074219 113.4375 481.960938 128.988281 482.054688 129.148438 C 482.203125 129.359375 482.28125 129.59375 482.296875 129.851562 C 482.308594 130.105469 482.257812 130.347656 482.132812 130.574219 C 482.011719 130.800781 481.839844 130.976562 481.617188 131.105469 C 481.394531 131.234375 481.15625 131.292969 480.898438 131.285156 Z M 480.898438 131.285156 " fill-opacity="1" fill-rule="nonzero"/><path fill="#287eef" d="M 429.453125 276.054688 C 381.566406 281.25 346.925781 323.355469 345.128906 347.1875 C 344.269531 358.613281 347.785156 364.410156 368.984375 452.859375 L 525.316406 452.859375 C 527.589844 446.65625 530.652344 437.800781 533.757812 427.011719 C 537.839844 412.945312 541.097656 401.382812 542.171875 389.398438 C 542.171875 389.398438 544.445312 364.164062 534.519531 340.085938 C 520.222656 305.355469 477.902344 270.777344 429.453125 276.054688 Z M 429.453125 276.054688 " fill-opacity="1" fill-rule="nonzero"/><path fill="#f5b493" d="M 409.765625 277.539062 C 409.316406 298.335938 427.261719 313.136719 443.355469 310.851562 C 457.421875 308.851562 469.597656 293.863281 467.867188 276.09375 C 463.121094 273.488281 458.066406 271.773438 452.710938 270.953125 C 441 269.074219 421.652344 273.539062 409.765625 277.539062 Z M 409.765625 277.539062 " fill-opacity="1" fill-rule="nonzero"/><path fill="#efefef" d="M 451.023438 210.648438 C 450.503906 213.503906 452.152344 214.730469 451.910156 216.417969 C 451.378906 220.171875 441.832031 222.074219 435.335938 222.441406 C 428.367188 222.835938 423.273438 223.125 420.277344 219.4375 C 417.621094 216.160156 417.242188 210.527344 419.8125 207.507812 C 421.433594 205.601562 423.4375 205.644531 434.875 205.535156 C 445.972656 205.4375 451.757812 205.328125 452.261719 207.273438 C 452.480469 208.160156 451.390625 208.554688 451.023438 210.648438 Z M 451.023438 210.648438 " fill-opacity="1" fill-rule="nonzero"/><path fill="#2d1929" d="M 409.765625 34.566406 C 384.574219 31.84375 371.394531 38.457031 364.109375 44.550781 C 331.785156 71.609375 362.585938 134.332031 332.234375 256.914062 C 332.234375 256.914062 383.796875 293.792969 412.121094 290.761719 L 409.765625 248.507812 C 395.222656 230.144531 379.589844 204.636719 372.101562 173.390625 C 366.875 151.554688 368.738281 139.898438 372.277344 131.328125 C 376.570312 120.988281 382.574219 116.839844 391.082031 107.234375 C 399.59375 97.632812 410.71875 82.421875 419.679688 59.460938 C 424.476562 66.847656 429.714844 73.910156 435.398438 80.644531 C 441.082031 87.378906 447.164062 93.730469 453.640625 99.707031 C 460.121094 105.679688 466.945312 111.226562 474.121094 116.347656 C 481.292969 121.464844 488.757812 126.121094 496.515625 130.304688 C 496.898438 135.300781 497.082031 140.300781 497.0625 145.308594 C 497.042969 150.316406 496.828125 155.3125 496.410156 160.304688 C 495.988281 165.292969 495.371094 170.257812 494.554688 175.199219 C 493.742188 180.140625 492.726562 185.042969 491.519531 189.902344 C 490.3125 194.761719 488.910156 199.566406 487.316406 204.3125 C 485.722656 209.0625 483.941406 213.738281 481.972656 218.34375 C 480.007812 222.949219 477.855469 227.46875 475.527344 231.902344 C 473.199219 236.335938 470.695312 240.667969 468.015625 244.902344 L 467.609375 290.9375 C 473.335938 288.417969 478.863281 285.515625 484.183594 282.222656 C 489.503906 278.933594 494.566406 275.285156 499.378906 271.285156 C 504.1875 267.28125 508.691406 262.964844 512.894531 258.332031 C 517.097656 253.699219 520.957031 248.796875 524.46875 243.625 C 532.054688 183.402344 526.445312 135.9375 520.386719 105.195312 C 511.179688 58.140625 499.960938 45.082031 489.734375 37.816406 C 459.640625 16.566406 417.921875 31.53125 409.765625 34.566406 Z M 409.765625 34.566406 " fill-opacity="1" fill-rule="nonzero"/><path fill="#f5b493" d="M 375.777344 178.761719 C 365.199219 183.046875 352.398438 176.042969 347.183594 163.226562 C 341.96875 150.414062 346.355469 136.496094 356.945312 132.210938 C 367.539062 127.925781 380.328125 134.933594 385.542969 147.746094 C 390.757812 160.5625 386.371094 174.492188 375.777344 178.761719 Z M 375.777344 178.761719 " fill-opacity="1" fill-rule="nonzero"/><path fill="#2d1929" d="M 365.769531 169.703125 C 365.605469 169.699219 365.453125 169.652344 365.320312 169.554688 C 365.144531 169.390625 360.839844 165.742188 361.03125 162.480469 C 361.183594 159.636719 364.21875 158.398438 365.5 157.976562 C 365.0625 150.589844 361.140625 139.636719 353.898438 141.082031 C 353.710938 141.117188 353.535156 141.078125 353.378906 140.972656 C 353.222656 140.863281 353.125 140.71875 353.089844 140.53125 C 353.050781 140.34375 353.089844 140.167969 353.195312 140.011719 C 353.304688 139.851562 353.449219 139.757812 353.636719 139.71875 C 362.027344 138.0625 366.574219 149.921875 366.886719 158.453125 C 366.890625 158.617188 366.84375 158.761719 366.746094 158.894531 C 366.644531 159.023438 366.515625 159.109375 366.355469 159.144531 C 366.355469 159.144531 362.53125 160.03125 362.394531 162.546875 C 362.269531 164.683594 365.117188 167.566406 366.207031 168.492188 C 366.460938 168.695312 366.53125 168.949219 366.421875 169.253906 C 366.3125 169.558594 366.09375 169.707031 365.769531 169.703125 Z M 365.769531 169.703125 " fill-opacity="1" fill-rule="nonzero"/><path fill="#f5b493" d="M 522.304688 163.226562 C 517.105469 176.082031 504.304688 183.046875 493.710938 178.761719 C 483.117188 174.476562 478.734375 160.601562 483.949219 147.746094 C 489.164062 134.890625 501.949219 127.941406 512.542969 132.210938 C 523.136719 136.484375 527.492188 150.371094 522.304688 163.226562 Z M 522.304688 163.226562 " fill-opacity="1" fill-rule="nonzero"/><path fill="#2d1929" d="M 503.734375 169.703125 C 503.417969 169.699219 503.207031 169.550781 503.097656 169.253906 C 502.992188 168.960938 503.058594 168.710938 503.296875 168.503906 C 504.398438 167.582031 507.230469 164.695312 507.109375 162.558594 C 506.972656 160.042969 503.1875 159.160156 503.148438 159.160156 C 502.988281 159.121094 502.859375 159.035156 502.757812 158.90625 C 502.660156 158.777344 502.609375 158.628906 502.617188 158.464844 C 502.929688 149.910156 507.492188 138.0625 515.863281 139.734375 C 516.050781 139.773438 516.195312 139.875 516.296875 140.03125 C 516.398438 140.191406 516.433594 140.363281 516.394531 140.546875 C 516.359375 140.734375 516.261719 140.878906 516.105469 140.984375 C 515.949219 141.089844 515.777344 141.128906 515.59375 141.09375 C 508.347656 139.652344 504.425781 150.617188 504.003906 157.988281 C 505.285156 158.398438 508.308594 159.648438 508.472656 162.507812 C 508.660156 165.757812 504.386719 169.402344 504.167969 169.566406 C 504.039062 169.660156 503.890625 169.703125 503.734375 169.703125 Z M 503.734375 169.703125 " fill-opacity="1" fill-rule="nonzero"/><path fill="#efefef" d="M 396.898438 201.832031 C 395.980469 201.832031 395.070312 201.789062 394.15625 201.699219 C 393.246094 201.609375 392.34375 201.476562 391.445312 201.296875 C 390.546875 201.117188 389.660156 200.898438 388.78125 200.632812 C 387.90625 200.367188 387.046875 200.058594 386.199219 199.707031 C 385.355469 199.359375 384.527344 198.96875 383.71875 198.535156 C 382.914062 198.105469 382.128906 197.636719 381.367188 197.128906 C 380.605469 196.617188 379.871094 196.074219 379.164062 195.496094 C 378.457031 194.914062 377.777344 194.300781 377.132812 193.652344 C 376.484375 193.007812 375.871094 192.332031 375.289062 191.625 C 374.707031 190.917969 374.164062 190.183594 373.65625 189.421875 C 373.144531 188.660156 372.675781 187.878906 372.242188 187.070312 C 371.8125 186.265625 371.421875 185.4375 371.070312 184.59375 C 370.722656 183.75 370.414062 182.886719 370.148438 182.011719 C 369.882812 181.136719 369.660156 180.25 369.480469 179.355469 C 369.300781 178.457031 369.167969 177.554688 369.078125 176.644531 C 368.988281 175.734375 368.941406 174.820312 368.941406 173.90625 C 368.941406 172.992188 368.988281 172.078125 369.078125 171.167969 C 369.167969 170.257812 369.300781 169.355469 369.480469 168.457031 C 369.660156 167.558594 369.882812 166.675781 370.148438 165.796875 C 370.414062 164.921875 370.722656 164.0625 371.070312 163.21875 C 371.421875 162.375 371.8125 161.546875 372.242188 160.742188 C 372.675781 159.933594 373.144531 159.152344 373.65625 158.390625 C 374.164062 157.628906 374.707031 156.894531 375.289062 156.1875 C 375.871094 155.480469 376.484375 154.804688 377.132812 154.15625 C 377.777344 153.511719 378.457031 152.898438 379.164062 152.316406 C 379.871094 151.738281 380.605469 151.191406 381.367188 150.683594 C 382.128906 150.175781 382.914062 149.707031 383.71875 149.277344 C 384.527344 148.84375 385.355469 148.453125 386.199219 148.105469 C 387.046875 147.753906 387.90625 147.445312 388.78125 147.179688 C 389.660156 146.914062 390.546875 146.691406 391.445312 146.515625 C 392.34375 146.335938 393.246094 146.203125 394.15625 146.113281 C 395.070312 146.023438 395.980469 145.976562 396.898438 145.976562 C 397.8125 145.976562 398.726562 146.023438 399.636719 146.113281 C 400.550781 146.203125 401.453125 146.335938 402.351562 146.515625 C 403.25 146.691406 404.136719 146.914062 405.011719 147.179688 C 405.890625 147.445312 406.75 147.753906 407.59375 148.105469 C 408.441406 148.453125 409.269531 148.84375 410.074219 149.277344 C 410.882812 149.707031 411.667969 150.175781 412.429688 150.683594 C 413.191406 151.191406 413.925781 151.738281 414.632812 152.316406 C 415.339844 152.898438 416.015625 153.511719 416.664062 154.15625 C 417.3125 154.804688 417.925781 155.480469 418.507812 156.1875 C 419.085938 156.894531 419.632812 157.628906 420.140625 158.390625 C 420.648438 159.152344 421.121094 159.933594 421.550781 160.742188 C 421.984375 161.546875 422.375 162.375 422.722656 163.21875 C 423.074219 164.0625 423.382812 164.921875 423.648438 165.796875 C 423.914062 166.675781 424.136719 167.558594 424.316406 168.457031 C 424.492188 169.355469 424.628906 170.257812 424.71875 171.167969 C 424.808594 172.078125 424.851562 172.992188 424.851562 173.90625 C 424.851562 174.820312 424.804688 175.734375 424.714844 176.640625 C 424.625 177.550781 424.488281 178.457031 424.3125 179.351562 C 424.132812 180.25 423.910156 181.136719 423.644531 182.011719 C 423.375 182.886719 423.066406 183.746094 422.71875 184.589844 C 422.367188 185.433594 421.976562 186.257812 421.542969 187.066406 C 421.113281 187.871094 420.640625 188.65625 420.132812 189.414062 C 419.625 190.175781 419.078125 190.910156 418.5 191.617188 C 417.917969 192.324219 417.304688 193 416.65625 193.644531 C 416.007812 194.292969 415.332031 194.90625 414.625 195.484375 C 413.917969 196.066406 413.183594 196.609375 412.421875 197.117188 C 411.660156 197.628906 410.878906 198.097656 410.070312 198.527344 C 409.261719 198.960938 408.4375 199.351562 407.589844 199.699219 C 406.746094 200.050781 405.886719 200.359375 405.007812 200.625 C 404.132812 200.890625 403.246094 201.113281 402.351562 201.292969 C 401.453125 201.472656 400.546875 201.605469 399.636719 201.695312 C 398.726562 201.789062 397.8125 201.832031 396.898438 201.832031 Z M 396.898438 148.699219 C 396.070312 148.699219 395.246094 148.738281 394.425781 148.820312 C 393.601562 148.902344 392.785156 149.023438 391.976562 149.183594 C 391.164062 149.34375 390.363281 149.542969 389.574219 149.785156 C 388.78125 150.023438 388.003906 150.300781 387.242188 150.617188 C 386.480469 150.933594 385.734375 151.285156 385.003906 151.675781 C 384.273438 152.0625 383.566406 152.488281 382.878906 152.945312 C 382.191406 153.40625 381.53125 153.898438 380.890625 154.421875 C 380.253906 154.945312 379.640625 155.496094 379.054688 156.082031 C 378.472656 156.664062 377.917969 157.277344 377.394531 157.914062 C 376.871094 158.550781 376.378906 159.214844 375.917969 159.902344 C 375.460938 160.585938 375.035156 161.296875 374.644531 162.023438 C 374.257812 162.75 373.902344 163.496094 373.585938 164.257812 C 373.269531 165.023438 372.992188 165.796875 372.753906 166.589844 C 372.511719 167.378906 372.3125 168.179688 372.152344 168.988281 C 371.988281 169.796875 371.867188 170.613281 371.789062 171.433594 C 371.707031 172.257812 371.667969 173.082031 371.667969 173.90625 C 371.667969 174.730469 371.707031 175.554688 371.789062 176.375 C 371.867188 177.199219 371.988281 178.015625 372.152344 178.824219 C 372.3125 179.632812 372.511719 180.433594 372.753906 181.222656 C 372.992188 182.011719 373.269531 182.789062 373.585938 183.550781 C 373.902344 184.316406 374.257812 185.058594 374.644531 185.789062 C 375.035156 186.515625 375.460938 187.222656 375.917969 187.910156 C 376.378906 188.597656 376.871094 189.257812 377.394531 189.898438 C 377.917969 190.535156 378.472656 191.144531 379.054688 191.730469 C 379.640625 192.3125 380.253906 192.867188 380.890625 193.390625 C 381.53125 193.914062 382.191406 194.40625 382.878906 194.863281 C 383.566406 195.324219 384.273438 195.746094 385.003906 196.136719 C 385.734375 196.527344 386.480469 196.878906 387.242188 197.195312 C 388.003906 197.511719 388.78125 197.789062 389.574219 198.027344 C 390.363281 198.265625 391.164062 198.46875 391.976562 198.628906 C 392.785156 198.789062 393.601562 198.910156 394.425781 198.992188 C 395.246094 199.074219 396.070312 199.113281 396.898438 199.113281 C 397.722656 199.113281 398.546875 199.074219 399.371094 198.992188 C 400.191406 198.910156 401.007812 198.789062 401.820312 198.628906 C 402.628906 198.46875 403.429688 198.265625 404.222656 198.027344 C 405.011719 197.789062 405.789062 197.511719 406.554688 197.195312 C 407.316406 196.878906 408.0625 196.527344 408.792969 196.136719 C 409.519531 195.746094 410.226562 195.324219 410.914062 194.863281 C 411.601562 194.40625 412.265625 193.914062 412.90625 193.390625 C 413.542969 192.867188 414.15625 192.3125 414.738281 191.730469 C 415.324219 191.144531 415.878906 190.535156 416.402344 189.898438 C 416.925781 189.257812 417.417969 188.597656 417.875 187.910156 C 418.335938 187.222656 418.761719 186.515625 419.148438 185.789062 C 419.539062 185.058594 419.890625 184.316406 420.207031 183.550781 C 420.523438 182.789062 420.804688 182.011719 421.042969 181.222656 C 421.28125 180.433594 421.484375 179.632812 421.644531 178.824219 C 421.804688 178.015625 421.925781 177.199219 422.007812 176.375 C 422.089844 175.554688 422.128906 174.730469 422.128906 173.90625 C 422.128906 173.082031 422.085938 172.257812 422.003906 171.4375 C 421.921875 170.613281 421.800781 169.800781 421.640625 168.988281 C 421.476562 168.179688 421.277344 167.382812 421.035156 166.589844 C 420.796875 165.800781 420.519531 165.027344 420.203125 164.261719 C 419.882812 163.5 419.53125 162.757812 419.140625 162.027344 C 418.753906 161.300781 418.328125 160.59375 417.867188 159.90625 C 417.410156 159.222656 416.917969 158.558594 416.394531 157.921875 C 415.871094 157.285156 415.316406 156.671875 414.730469 156.089844 C 414.148438 155.507812 413.535156 154.953125 412.898438 154.429688 C 412.257812 153.90625 411.597656 153.414062 410.910156 152.953125 C 410.222656 152.496094 409.515625 152.074219 408.785156 151.683594 C 408.058594 151.292969 407.3125 150.941406 406.550781 150.625 C 405.785156 150.308594 405.007812 150.03125 404.21875 149.789062 C 403.429688 149.550781 402.628906 149.347656 401.816406 149.1875 C 401.007812 149.027344 400.191406 148.902344 399.371094 148.824219 C 398.546875 148.742188 397.722656 148.699219 396.898438 148.699219 Z M 396.898438 148.699219 " fill-opacity="1" fill-rule="nonzero"/><path fill="#efefef" d="M 461.753906 189.113281 C 460.835938 189.113281 459.925781 189.070312 459.011719 188.980469 C 458.101562 188.890625 457.199219 188.757812 456.300781 188.578125 C 455.402344 188.398438 454.515625 188.175781 453.636719 187.910156 C 452.761719 187.644531 451.902344 187.339844 451.054688 186.988281 C 450.210938 186.636719 449.382812 186.246094 448.574219 185.816406 C 447.769531 185.386719 446.984375 184.917969 446.222656 184.40625 C 445.460938 183.898438 444.726562 183.355469 444.019531 182.773438 C 443.3125 182.195312 442.632812 181.582031 441.984375 180.933594 C 441.339844 180.289062 440.722656 179.609375 440.144531 178.902344 C 439.5625 178.195312 439.019531 177.464844 438.507812 176.703125 C 438 175.941406 437.53125 175.160156 437.097656 174.351562 C 436.667969 173.546875 436.277344 172.71875 435.925781 171.875 C 435.574219 171.027344 435.269531 170.167969 435.003906 169.292969 C 434.734375 168.417969 434.515625 167.53125 434.335938 166.636719 C 434.15625 165.738281 434.023438 164.835938 433.933594 163.925781 C 433.84375 163.015625 433.796875 162.101562 433.796875 161.1875 C 433.796875 160.273438 433.84375 159.359375 433.933594 158.449219 C 434.023438 157.539062 434.15625 156.636719 434.335938 155.738281 C 434.515625 154.839844 434.734375 153.953125 435.003906 153.078125 C 435.269531 152.203125 435.574219 151.34375 435.925781 150.5 C 436.277344 149.652344 436.667969 148.828125 437.097656 148.019531 C 437.53125 147.214844 438 146.429688 438.507812 145.671875 C 439.019531 144.910156 439.5625 144.175781 440.144531 143.46875 C 440.726562 142.761719 441.339844 142.085938 441.984375 141.4375 C 442.632812 140.792969 443.3125 140.179688 444.019531 139.597656 C 444.726562 139.019531 445.460938 138.472656 446.222656 137.964844 C 446.984375 137.457031 447.769531 136.988281 448.574219 136.554688 C 449.382812 136.125 450.210938 135.734375 451.054688 135.382812 C 451.902344 135.035156 452.761719 134.726562 453.636719 134.460938 C 454.515625 134.195312 455.402344 133.972656 456.300781 133.796875 C 457.199219 133.617188 458.101562 133.484375 459.011719 133.394531 C 459.925781 133.304688 460.835938 133.257812 461.753906 133.257812 C 462.667969 133.257812 463.582031 133.304688 464.492188 133.394531 C 465.402344 133.484375 466.308594 133.617188 467.207031 133.796875 C 468.105469 133.972656 468.992188 134.195312 469.867188 134.460938 C 470.742188 134.726562 471.605469 135.035156 472.449219 135.382812 C 473.296875 135.734375 474.125 136.125 474.929688 136.554688 C 475.738281 136.988281 476.523438 137.457031 477.285156 137.964844 C 478.046875 138.472656 478.78125 139.019531 479.488281 139.597656 C 480.195312 140.179688 480.871094 140.792969 481.519531 141.4375 C 482.167969 142.085938 482.78125 142.761719 483.363281 143.46875 C 483.941406 144.175781 484.488281 144.910156 484.996094 145.671875 C 485.503906 146.429688 485.976562 147.214844 486.40625 148.019531 C 486.839844 148.828125 487.230469 149.652344 487.578125 150.5 C 487.929688 151.34375 488.238281 152.203125 488.503906 153.078125 C 488.769531 153.953125 488.992188 154.839844 489.171875 155.738281 C 489.347656 156.636719 489.484375 157.539062 489.574219 158.449219 C 489.664062 159.359375 489.707031 160.273438 489.707031 161.1875 C 489.707031 162.101562 489.660156 163.011719 489.570312 163.921875 C 489.480469 164.832031 489.34375 165.738281 489.164062 166.632812 C 488.988281 167.53125 488.765625 168.414062 488.496094 169.289062 C 488.230469 170.164062 487.921875 171.023438 487.574219 171.871094 C 487.222656 172.714844 486.832031 173.539062 486.398438 174.347656 C 485.96875 175.152344 485.496094 175.9375 484.988281 176.695312 C 484.480469 177.457031 483.933594 178.191406 483.355469 178.898438 C 482.773438 179.601562 482.160156 180.28125 481.511719 180.925781 C 480.863281 181.574219 480.1875 182.1875 479.480469 182.765625 C 478.773438 183.347656 478.039062 183.890625 477.277344 184.398438 C 476.515625 184.90625 475.730469 185.378906 474.925781 185.808594 C 474.117188 186.238281 473.292969 186.632812 472.445312 186.980469 C 471.601562 187.332031 470.742188 187.640625 469.863281 187.90625 C 468.988281 188.171875 468.101562 188.394531 467.203125 188.574219 C 466.308594 188.753906 465.402344 188.886719 464.492188 188.976562 C 463.582031 189.066406 462.667969 189.113281 461.753906 189.113281 Z M 461.753906 135.980469 C 460.925781 135.980469 460.101562 136.019531 459.28125 136.101562 C 458.457031 136.179688 457.640625 136.300781 456.832031 136.464844 C 456.019531 136.625 455.21875 136.824219 454.429688 137.066406 C 453.636719 137.304688 452.859375 137.582031 452.097656 137.898438 C 451.332031 138.214844 450.585938 138.566406 449.859375 138.957031 C 449.128906 139.34375 448.421875 139.769531 447.734375 140.226562 C 447.046875 140.6875 446.386719 141.175781 445.746094 141.699219 C 445.109375 142.226562 444.496094 142.777344 443.910156 143.363281 C 443.328125 143.945312 442.773438 144.558594 442.25 145.195312 C 441.726562 145.832031 441.234375 146.496094 440.773438 147.183594 C 440.316406 147.867188 439.890625 148.574219 439.5 149.304688 C 439.113281 150.03125 438.757812 150.777344 438.441406 151.539062 C 438.125 152.304688 437.847656 153.078125 437.609375 153.871094 C 437.367188 154.660156 437.167969 155.460938 437.007812 156.269531 C 436.84375 157.078125 436.722656 157.894531 436.644531 158.714844 C 436.5625 159.539062 436.523438 160.359375 436.523438 161.1875 C 436.523438 162.011719 436.5625 162.835938 436.644531 163.65625 C 436.722656 164.480469 436.84375 165.292969 437.007812 166.105469 C 437.167969 166.914062 437.367188 167.714844 437.609375 168.503906 C 437.847656 169.292969 438.125 170.070312 438.441406 170.832031 C 438.757812 171.597656 439.113281 172.339844 439.5 173.070312 C 439.890625 173.796875 440.316406 174.503906 440.773438 175.191406 C 441.234375 175.878906 441.726562 176.539062 442.25 177.179688 C 442.773438 177.816406 443.328125 178.425781 443.910156 179.011719 C 444.496094 179.59375 445.109375 180.148438 445.746094 180.671875 C 446.386719 181.195312 447.046875 181.6875 447.734375 182.144531 C 448.421875 182.605469 449.128906 183.027344 449.859375 183.417969 C 450.585938 183.804688 451.332031 184.160156 452.097656 184.476562 C 452.859375 184.789062 453.636719 185.070312 454.429688 185.308594 C 455.21875 185.546875 456.019531 185.75 456.832031 185.910156 C 457.640625 186.070312 458.457031 186.191406 459.28125 186.273438 C 460.101562 186.351562 460.925781 186.394531 461.753906 186.394531 C 462.578125 186.394531 463.402344 186.351562 464.226562 186.273438 C 465.046875 186.191406 465.863281 186.070312 466.675781 185.910156 C 467.484375 185.75 468.285156 185.546875 469.078125 185.308594 C 469.867188 185.070312 470.644531 184.789062 471.410156 184.476562 C 472.171875 184.160156 472.917969 183.804688 473.648438 183.417969 C 474.375 183.027344 475.082031 182.605469 475.769531 182.144531 C 476.457031 181.6875 477.121094 181.195312 477.757812 180.671875 C 478.398438 180.148438 479.011719 179.59375 479.59375 179.011719 C 480.179688 178.425781 480.734375 177.816406 481.257812 177.179688 C 481.78125 176.539062 482.273438 175.878906 482.730469 175.191406 C 483.191406 174.503906 483.617188 173.796875 484.003906 173.070312 C 484.394531 172.339844 484.746094 171.597656 485.0625 170.832031 C 485.378906 170.070312 485.65625 169.292969 485.898438 168.503906 C 486.136719 167.714844 486.339844 166.914062 486.5 166.105469 C 486.660156 165.292969 486.78125 164.480469 486.863281 163.65625 C 486.945312 162.835938 486.984375 162.011719 486.984375 161.1875 C 486.984375 160.359375 486.941406 159.539062 486.859375 158.714844 C 486.777344 157.894531 486.65625 157.078125 486.496094 156.269531 C 486.332031 155.460938 486.132812 154.660156 485.890625 153.871094 C 485.652344 153.082031 485.371094 152.308594 485.054688 151.542969 C 484.738281 150.78125 484.386719 150.035156 483.996094 149.308594 C 483.605469 148.582031 483.183594 147.875 482.722656 147.1875 C 482.265625 146.503906 481.773438 145.839844 481.25 145.203125 C 480.722656 144.566406 480.171875 143.953125 479.585938 143.371094 C 479.003906 142.785156 478.390625 142.234375 477.753906 141.710938 C 477.113281 141.1875 476.449219 140.695312 475.765625 140.234375 C 475.078125 139.777344 474.371094 139.351562 473.640625 138.964844 C 472.914062 138.574219 472.167969 138.222656 471.40625 137.90625 C 470.640625 137.589844 469.863281 137.3125 469.074219 137.070312 C 468.285156 136.832031 467.484375 136.628906 466.671875 136.46875 C 465.863281 136.304688 465.046875 136.183594 464.226562 136.101562 C 463.402344 136.019531 462.578125 135.980469 461.753906 135.980469 Z M 461.753906 135.980469 " fill-opacity="1" fill-rule="nonzero"/><path fill="#efefef" d="M 422.714844 168.925781 C 422.535156 168.941406 422.359375 168.921875 422.183594 168.863281 C 422.011719 168.808594 421.859375 168.722656 421.71875 168.605469 C 421.582031 168.488281 421.472656 168.347656 421.390625 168.1875 C 421.308594 168.027344 421.257812 167.855469 421.242188 167.675781 C 421.230469 167.496094 421.25 167.320312 421.304688 167.148438 C 421.363281 166.972656 421.449219 166.820312 421.566406 166.683594 C 421.683594 166.542969 421.824219 166.433594 421.984375 166.351562 C 422.144531 166.269531 422.316406 166.21875 422.496094 166.207031 L 435.296875 164.136719 C 435.476562 164.109375 435.65625 164.117188 435.832031 164.160156 C 436.011719 164.203125 436.171875 164.28125 436.320312 164.386719 C 436.46875 164.496094 436.589844 164.628906 436.683594 164.785156 C 436.78125 164.9375 436.839844 165.109375 436.867188 165.289062 C 436.898438 165.46875 436.890625 165.648438 436.847656 165.824219 C 436.804688 166.003906 436.726562 166.164062 436.621094 166.3125 C 436.511719 166.457031 436.378906 166.582031 436.222656 166.675781 C 436.066406 166.769531 435.898438 166.832031 435.71875 166.859375 C 420.738281 169.238281 422.890625 168.925781 422.714844 168.925781 Z M 422.714844 168.925781 " fill-opacity="1" fill-rule="nonzero"/><path fill="#efefef" d="M 375.058594 160.125 C 374.722656 160.128906 374.425781 160.027344 374.167969 159.8125 C 373.910156 159.597656 373.753906 159.328125 373.695312 158.996094 L 367.675781 125.394531 C 367.644531 125.214844 367.648438 125.035156 367.6875 124.855469 C 367.730469 124.679688 367.800781 124.515625 367.90625 124.363281 C 368.011719 124.214844 368.140625 124.089844 368.296875 123.992188 C 368.453125 123.894531 368.621094 123.828125 368.800781 123.796875 C 368.980469 123.765625 369.160156 123.769531 369.339844 123.808594 C 369.519531 123.851562 369.683594 123.921875 369.832031 124.027344 C 369.984375 124.132812 370.105469 124.261719 370.207031 124.417969 C 370.304688 124.570312 370.367188 124.738281 370.398438 124.917969 L 376.433594 158.480469 C 376.476562 158.683594 376.472656 158.886719 376.421875 159.089844 C 376.371094 159.292969 376.28125 159.476562 376.144531 159.636719 C 376.011719 159.796875 375.847656 159.921875 375.65625 160.007812 C 375.46875 160.09375 375.265625 160.132812 375.058594 160.125 Z M 375.058594 160.125 " fill-opacity="1" fill-rule="nonzero"/><path fill="#efefef" d="M 487.964844 156.167969 C 487.851562 156.167969 487.742188 156.152344 487.632812 156.125 C 487.523438 156.097656 487.417969 156.058594 487.320312 156.003906 C 487.222656 155.953125 487.128906 155.886719 487.046875 155.8125 C 486.964844 155.734375 486.890625 155.652344 486.832031 155.558594 C 486.769531 155.464844 486.71875 155.363281 486.679688 155.257812 C 486.644531 155.152344 486.621094 155.042969 486.609375 154.929688 C 486.597656 154.820312 486.601562 154.707031 486.621094 154.597656 C 486.636719 154.488281 486.667969 154.378906 486.710938 154.277344 L 498.355469 126.757812 C 498.429688 126.597656 498.53125 126.457031 498.660156 126.339844 C 498.789062 126.21875 498.9375 126.128906 499.101562 126.066406 C 499.265625 126 499.433594 125.972656 499.609375 125.976562 C 499.785156 125.976562 499.957031 126.015625 500.117188 126.082031 C 500.28125 126.152344 500.421875 126.246094 500.546875 126.371094 C 500.671875 126.496094 500.769531 126.640625 500.839844 126.800781 C 500.90625 126.960938 500.945312 127.132812 500.949219 127.308594 C 500.949219 127.484375 500.921875 127.652344 500.859375 127.816406 L 489.21875 155.324219 C 489.113281 155.578125 488.945312 155.78125 488.71875 155.933594 C 488.492188 156.089844 488.238281 156.164062 487.964844 156.167969 Z M 487.964844 156.167969 " fill-opacity="1" fill-rule="nonzero"/><path fill="#287eef" d="M 328.53125 365.648438 L 338.007812 574.816406 L 544.691406 574.816406 L 543.070312 356.96875 Z M 328.53125 365.648438 " fill-opacity="1" fill-rule="nonzero"/><path fill="#f5b493" d="M 293.945312 101.78125 L 323.246094 75.769531 C 339.394531 52.128906 339.707031 43.9375 347.578125 37.394531 C 353.421875 32.539062 359.628906 30.890625 365.824219 29.234375 C 366.777344 28.972656 380.175781 25.476562 381.46875 28.363281 C 381.933594 29.421875 380.695312 31.082031 379.386719 32.363281 C 385.894531 30.878906 395.140625 29.3125 391.207031 34.621094 C 385.9375 41.707031 372.386719 44.929688 366.4375 50.875 C 359.277344 58.070312 365.238281 68.640625 362.640625 80.804688 C 359.914062 93.769531 326.570312 127.300781 326.570312 127.300781 C 326.570312 127.300781 299.8125 125.136719 293.945312 101.78125 Z M 293.945312 101.78125 " fill-opacity="1" fill-rule="nonzero"/><path fill="#f5b493" d="M 355.464844 52.414062 C 370.863281 46.453125 388.441406 40.359375 389.980469 43.296875 C 390.265625 43.855469 389.980469 44.742188 388.359375 46.765625 C 380.859375 56.085938 371.433594 56.289062 364.886719 61.1875 C 360.800781 64.261719 356.171875 70.503906 355.355469 84.625 C 354.84375 84.089844 354.359375 83.527344 353.902344 82.945312 C 353.441406 82.359375 353.015625 81.753906 352.613281 81.132812 C 352.214844 80.507812 351.84375 79.863281 351.507812 79.203125 C 351.167969 78.542969 350.863281 77.871094 350.589844 77.179688 C 350.3125 76.492188 350.074219 75.789062 349.867188 75.078125 C 349.660156 74.367188 349.488281 73.644531 349.347656 72.917969 C 349.210938 72.1875 349.105469 71.457031 349.039062 70.71875 C 348.96875 69.980469 348.9375 69.238281 348.941406 68.496094 C 348.941406 67.757812 348.980469 67.015625 349.054688 66.277344 C 349.125 65.539062 349.234375 64.808594 349.378906 64.082031 C 349.519531 63.351562 349.699219 62.632812 349.910156 61.921875 C 350.121094 61.210938 350.367188 60.511719 350.648438 59.824219 C 350.925781 59.140625 351.234375 58.464844 351.578125 57.808594 C 351.921875 57.152344 352.296875 56.511719 352.699219 55.890625 C 353.105469 55.265625 353.535156 54.664062 354 54.085938 C 354.460938 53.503906 354.949219 52.945312 355.464844 52.414062 Z M 355.464844 52.414062 " fill-opacity="1" fill-rule="nonzero"/><path fill="#f5b493" d="M 565.089844 101.78125 L 535.800781 75.769531 C 519.636719 52.128906 519.324219 43.9375 511.464844 37.394531 C 505.613281 32.539062 499.402344 30.890625 493.207031 29.234375 C 492.253906 28.972656 478.867188 25.476562 477.574219 28.363281 C 477.097656 29.421875 478.351562 31.082031 479.660156 32.363281 C 473.148438 30.878906 463.90625 29.3125 467.839844 34.621094 C 473.09375 41.707031 486.65625 44.929688 492.59375 50.875 C 499.769531 58.070312 493.804688 68.640625 496.394531 80.804688 C 499.183594 93.769531 532.476562 127.300781 532.476562 127.300781 C 532.476562 127.300781 559.164062 125.136719 565.089844 101.78125 Z M 565.089844 101.78125 " fill-opacity="1" fill-rule="nonzero"/><path fill="#f5b493" d="M 503.5 52.414062 C 488.101562 46.453125 470.535156 40.359375 468.996094 43.296875 C 468.710938 43.855469 468.996094 44.742188 470.617188 46.765625 C 478.121094 56.085938 487.542969 56.289062 494.078125 61.1875 C 498.164062 64.261719 502.792969 70.503906 503.609375 84.625 C 504.121094 84.089844 504.605469 83.527344 505.066406 82.945312 C 505.523438 82.363281 505.953125 81.757812 506.355469 81.132812 C 506.753906 80.507812 507.125 79.867188 507.464844 79.207031 C 507.800781 78.546875 508.109375 77.871094 508.382812 77.183594 C 508.65625 76.492188 508.898438 75.792969 509.105469 75.082031 C 509.3125 74.367188 509.488281 73.648438 509.625 72.917969 C 509.765625 72.191406 509.867188 71.457031 509.9375 70.71875 C 510.003906 69.980469 510.035156 69.238281 510.035156 68.496094 C 510.03125 67.757812 509.996094 67.015625 509.921875 66.277344 C 509.847656 65.539062 509.738281 64.808594 509.597656 64.078125 C 509.453125 63.351562 509.273438 62.632812 509.0625 61.921875 C 508.851562 61.210938 508.605469 60.511719 508.324219 59.824219 C 508.046875 59.136719 507.734375 58.464844 507.390625 57.808594 C 507.046875 57.148438 506.671875 56.507812 506.269531 55.886719 C 505.863281 55.265625 505.429688 54.664062 504.96875 54.085938 C 504.503906 53.503906 504.015625 52.945312 503.5 52.414062 Z M 503.5 52.414062 " fill-opacity="1" fill-rule="nonzero"/><path fill="#287eef" d="M 283.023438 110.460938 L 314.136719 83.796875 L 340.128906 112.691406 L 312.761719 147.339844 Z M 283.023438 110.460938 " fill-opacity="1" fill-rule="nonzero"/><path fill="#287eef" d="M 517.0625 110.675781 L 546.910156 148.359375 L 579.046875 112.988281 L 540.074219 79.578125 C 540.074219 79.578125 534.136719 102.652344 517.0625 110.675781 Z M 517.0625 110.675781 " fill-opacity="1" fill-rule="nonzero"/><path fill="#1573d8" d="M 329.5625 388.773438 C 329.5625 388.773438 336.25 340.523438 345.003906 337.269531 C 353.761719 334.019531 357.941406 487.25 379.496094 495.640625 C 401.050781 504.035156 487.949219 478.269531 495.589844 484.527344 C 503.230469 490.785156 442.363281 521.339844 454.359375 538.003906 C 466.355469 554.667969 516.015625 574.816406 516.015625 574.816406 L 338.007812 574.816406 C 334.566406 512.910156 331.753906 450.894531 329.5625 388.773438 Z M 329.5625 388.773438 " fill-opacity="1" fill-rule="nonzero"/><path fill="#1573d8" d="M 542.988281 378.953125 C 540.019531 350.96875 537.609375 331.230469 535.566406 319.558594 C 535.351562 318.320312 534.929688 315.941406 535.566406 315.707031 C 537.894531 314.796875 552.683594 347.28125 561.125 365.824219 Z M 542.988281 378.953125 " fill-opacity="1" fill-rule="nonzero"/><path fill="#1573d8" d="M 255.042969 231.707031 C 255.042969 231.707031 224.800781 238.765625 201.855469 235.40625 C 201.855469 235.40625 227.414062 249.757812 265.851562 239.257812 Z M 255.042969 231.707031 " fill-opacity="1" fill-rule="nonzero"/><path fill="#1573d8" d="M 603.921875 231.707031 L 589.421875 241.734375 C 605.203125 245.652344 630.269531 248.535156 647.453125 245.363281 C 649.238281 245.023438 652.902344 243.855469 652.902344 243.011719 C 652.859375 240.644531 630.949219 240.929688 603.921875 231.707031 Z M 603.921875 231.707031 " fill-opacity="1" fill-rule="nonzero"/><path fill="#e73f46" d="M 171.75 577.902344 C 170.722656 577.90625 169.695312 577.84375 168.675781 577.710938 C 167.65625 577.582031 166.648438 577.382812 165.652344 577.121094 C 164.65625 576.855469 163.683594 576.53125 162.734375 576.140625 C 161.78125 575.75 160.859375 575.296875 159.96875 574.785156 C 159.074219 574.273438 158.21875 573.707031 157.402344 573.082031 C 156.585938 572.457031 155.8125 571.78125 155.082031 571.058594 C 154.355469 570.332031 153.675781 569.5625 153.046875 568.746094 C 152.421875 567.933594 151.847656 567.078125 151.332031 566.191406 C 150.816406 565.300781 150.363281 564.382812 149.96875 563.433594 C 149.574219 562.484375 149.242188 561.511719 148.972656 560.519531 C 148.707031 559.527344 148.507812 558.519531 148.371094 557.5 C 148.238281 556.484375 148.167969 555.460938 148.167969 554.429688 C 148.167969 553.402344 148.234375 552.378906 148.371094 551.359375 C 148.503906 550.339844 148.703125 549.335938 148.96875 548.34375 C 149.238281 547.347656 149.566406 546.378906 149.960938 545.429688 C 150.355469 544.480469 150.808594 543.558594 151.324219 542.667969 L 265.703125 344.738281 C 266.214844 343.851562 266.785156 343 267.410156 342.183594 C 268.035156 341.371094 268.710938 340.597656 269.4375 339.875 C 270.164062 339.148438 270.933594 338.472656 271.75 337.847656 C 272.5625 337.222656 273.417969 336.652344 274.304688 336.140625 C 275.195312 335.628906 276.113281 335.175781 277.0625 334.78125 C 278.011719 334.390625 278.984375 334.058594 279.976562 333.792969 C 280.96875 333.527344 281.972656 333.328125 282.992188 333.195312 C 284.011719 333.058594 285.03125 332.992188 286.058594 332.992188 C 287.085938 332.992188 288.109375 333.058594 289.128906 333.195312 C 290.148438 333.328125 291.152344 333.527344 292.144531 333.792969 C 293.136719 334.058594 294.105469 334.390625 295.054688 334.78125 C 296.003906 335.175781 296.925781 335.628906 297.8125 336.140625 C 298.703125 336.652344 299.554688 337.222656 300.371094 337.847656 C 301.183594 338.472656 301.957031 339.148438 302.683594 339.875 C 303.40625 340.597656 304.082031 341.371094 304.707031 342.183594 C 305.332031 343 305.902344 343.851562 306.417969 344.738281 L 420.792969 542.667969 C 421.308594 543.558594 421.765625 544.480469 422.160156 545.429688 C 422.550781 546.378906 422.882812 547.347656 423.148438 548.34375 C 423.414062 549.335938 423.617188 550.339844 423.75 551.359375 C 423.882812 552.378906 423.953125 553.402344 423.953125 554.429688 C 423.949219 555.460938 423.882812 556.484375 423.75 557.5 C 423.613281 558.519531 423.414062 559.527344 423.144531 560.519531 C 422.878906 561.511719 422.546875 562.484375 422.152344 563.433594 C 421.757812 564.382812 421.300781 565.300781 420.785156 566.191406 C 420.269531 567.078125 419.699219 567.933594 419.070312 568.746094 C 418.445312 569.5625 417.765625 570.332031 417.035156 571.058594 C 416.308594 571.78125 415.535156 572.457031 414.71875 573.082031 C 413.898438 573.707031 413.042969 574.273438 412.152344 574.785156 C 411.261719 575.296875 410.339844 575.75 409.386719 576.140625 C 408.433594 576.53125 407.460938 576.855469 406.46875 577.121094 C 405.472656 577.382812 404.464844 577.582031 403.445312 577.710938 C 402.421875 577.84375 401.398438 577.90625 400.371094 577.902344 Z M 171.75 577.902344 " fill-opacity="1" fill-rule="nonzero"/><path fill="#efefef" d="M 171.75 566.652344 C 171.214844 566.652344 170.683594 566.617188 170.152344 566.546875 C 169.621094 566.476562 169.097656 566.371094 168.582031 566.234375 C 168.066406 566.09375 167.558594 565.921875 167.066406 565.71875 C 166.570312 565.511719 166.09375 565.277344 165.628906 565.007812 C 165.167969 564.742188 164.722656 564.445312 164.300781 564.121094 C 163.875 563.792969 163.472656 563.441406 163.097656 563.066406 C 162.71875 562.6875 162.367188 562.285156 162.039062 561.863281 C 161.714844 561.4375 161.417969 560.996094 161.152344 560.53125 C 160.882812 560.070312 160.648438 559.589844 160.441406 559.097656 C 160.238281 558.605469 160.066406 558.097656 159.925781 557.582031 C 159.789062 557.066406 159.683594 556.542969 159.613281 556.015625 C 159.542969 555.484375 159.507812 554.953125 159.507812 554.417969 C 159.507812 553.882812 159.542969 553.351562 159.613281 552.820312 C 159.679688 552.292969 159.785156 551.769531 159.921875 551.253906 C 160.0625 550.734375 160.230469 550.230469 160.4375 549.738281 C 160.640625 549.242188 160.875 548.765625 161.140625 548.300781 L 275.519531 350.371094 C 275.789062 349.910156 276.085938 349.464844 276.410156 349.042969 C 276.738281 348.621094 277.089844 348.21875 277.46875 347.84375 C 277.847656 347.464844 278.25 347.117188 278.671875 346.792969 C 279.097656 346.464844 279.542969 346.171875 280.003906 345.90625 C 280.46875 345.636719 280.945312 345.402344 281.441406 345.199219 C 281.933594 344.996094 282.4375 344.824219 282.957031 344.6875 C 283.472656 344.546875 283.996094 344.445312 284.523438 344.375 C 285.054688 344.304688 285.585938 344.269531 286.121094 344.269531 C 286.65625 344.269531 287.1875 344.304688 287.71875 344.375 C 288.246094 344.445312 288.769531 344.546875 289.285156 344.6875 C 289.804688 344.824219 290.308594 344.996094 290.800781 345.199219 C 291.296875 345.402344 291.773438 345.636719 292.238281 345.90625 C 292.699219 346.171875 293.144531 346.464844 293.570312 346.792969 C 293.992188 347.117188 294.394531 347.464844 294.773438 347.84375 C 295.152344 348.21875 295.503906 348.621094 295.832031 349.042969 C 296.15625 349.464844 296.453125 349.910156 296.722656 350.371094 L 411.101562 548.300781 C 411.367188 548.765625 411.601562 549.242188 411.804688 549.738281 C 412.011719 550.230469 412.179688 550.734375 412.320312 551.253906 C 412.457031 551.769531 412.5625 552.292969 412.628906 552.820312 C 412.699219 553.351562 412.734375 553.882812 412.734375 554.417969 C 412.734375 554.953125 412.699219 555.484375 412.628906 556.015625 C 412.558594 556.542969 412.453125 557.066406 412.316406 557.582031 C 412.175781 558.097656 412.003906 558.605469 411.800781 559.097656 C 411.59375 559.589844 411.359375 560.070312 411.089844 560.53125 C 410.824219 560.996094 410.527344 561.4375 410.203125 561.863281 C 409.875 562.285156 409.523438 562.6875 409.144531 563.066406 C 408.769531 563.441406 408.367188 563.792969 407.941406 564.121094 C 407.519531 564.445312 407.074219 564.742188 406.613281 565.007812 C 406.148438 565.277344 405.671875 565.511719 405.175781 565.71875 C 404.683594 565.921875 404.175781 566.09375 403.660156 566.234375 C 403.144531 566.371094 402.621094 566.476562 402.089844 566.546875 C 401.558594 566.617188 401.027344 566.652344 400.492188 566.652344 Z M 171.75 566.652344 " fill-opacity="1" fill-rule="nonzero"/><path fill="#231f20" d="M 272.402344 392.1875 C 272.394531 391.898438 272.414062 391.613281 272.464844 391.332031 C 272.511719 391.046875 272.589844 390.773438 272.695312 390.503906 C 272.796875 390.238281 272.929688 389.980469 273.085938 389.742188 C 273.238281 389.5 273.417969 389.273438 273.617188 389.070312 C 273.820312 388.863281 274.039062 388.679688 274.277344 388.515625 C 274.511719 388.355469 274.765625 388.21875 275.03125 388.105469 C 275.296875 387.992188 275.570312 387.910156 275.851562 387.851562 C 276.132812 387.792969 276.417969 387.765625 276.707031 387.765625 C 290.664062 387.765625 297.578125 393.140625 297.578125 403.875 C 297.578125 414.605469 290.0625 497.925781 295.441406 502.8125 C 296.125 503.171875 296.660156 503.683594 297.046875 504.351562 C 297.433594 505.019531 297.609375 505.742188 297.578125 506.511719 C 297.578125 509.734375 293.890625 511.394531 291.261719 511.953125 C 275.277344 516.25 273.558594 491.042969 273.558594 474.515625 C 273.558594 469.890625 274.1875 461.988281 274.402344 447.8125 C 275.003906 418.101562 275.941406 398.253906 273.683594 395.125 C 272.820312 394.320312 272.367188 393.324219 272.320312 392.148438 M 288.878906 523.976562 C 296.148438 523.976562 299.851562 526.605469 299.851562 531.964844 C 299.851562 539.117188 293.289062 547.472656 289.355469 547.472656 C 284.34375 547.472656 277.535156 539.117188 277.535156 531.964844 C 277.535156 526.605469 281.363281 523.976562 288.878906 523.976562 " fill-opacity="1" fill-rule="nonzero"/><g fill="#000000" fill-opacity="1"><g transform="translate(117.677413, 0.899809)"><g><path d="M 0.6875 0 L 0.53125 0 L 0.484375 -0.171875 L 0.203125 -0.171875 L 0.15625 0 L 0.015625 0 L 0.25 -0.71875 L 0.4375 -0.71875 Z M 0.34375 -0.5625 L 0.25 -0.28125 L 0.4375 -0.28125 L 0.359375 -0.5625 Z M 0.34375 -0.5625 "/></g></g><g transform="translate(118.373066, 0.899809)"><g><path d="M 0.265625 0.015625 C 0.222656 0.015625 0.1875 0.00390625 0.15625 -0.015625 C 0.125 -0.0351562 0.0976562 -0.0664062 0.078125 -0.109375 C 0.0546875 -0.148438 0.046875 -0.203125 0.046875 -0.265625 C 0.046875 -0.328125 0.0546875 -0.378906 0.078125 -0.421875 C 0.0976562 -0.460938 0.125 -0.492188 0.15625 -0.515625 C 0.1875 -0.535156 0.222656 -0.546875 0.265625 -0.546875 C 0.304688 -0.546875 0.335938 -0.539062 0.359375 -0.53125 C 0.378906 -0.519531 0.398438 -0.503906 0.421875 -0.484375 L 0.4375 -0.484375 L 0.4375 -0.75 L 0.5625 -0.75 L 0.5625 0 L 0.4375 0 L 0.4375 -0.0625 L 0.421875 -0.078125 C 0.410156 -0.046875 0.390625 -0.0195312 0.359375 0 C 0.335938 0.0078125 0.304688 0.015625 0.265625 0.015625 Z M 0.3125 -0.109375 C 0.351562 -0.109375 0.382812 -0.117188 0.40625 -0.140625 C 0.425781 -0.171875 0.4375 -0.210938 0.4375 -0.265625 C 0.4375 -0.328125 0.425781 -0.367188 0.40625 -0.390625 C 0.382812 -0.421875 0.351562 -0.4375 0.3125 -0.4375 C 0.269531 -0.4375 0.238281 -0.421875 0.21875 -0.390625 C 0.195312 -0.367188 0.1875 -0.328125 0.1875 -0.265625 C 0.1875 -0.210938 0.195312 -0.171875 0.21875 -0.140625 C 0.238281 -0.117188 0.269531 -0.109375 0.3125 -0.109375 Z M 0.3125 -0.109375 "/></g></g><g transform="translate(119.018437, 0.899809)"><g><path d="M 0.265625 0.015625 C 0.222656 0.015625 0.1875 0.00390625 0.15625 -0.015625 C 0.125 -0.0351562 0.0976562 -0.0664062 0.078125 -0.109375 C 0.0546875 -0.148438 0.046875 -0.203125 0.046875 -0.265625 C 0.046875 -0.328125 0.0546875 -0.378906 0.078125 -0.421875 C 0.0976562 -0.460938 0.125 -0.492188 0.15625 -0.515625 C 0.1875 -0.535156 0.222656 -0.546875 0.265625 -0.546875 C 0.304688 -0.546875 0.335938 -0.539062 0.359375 -0.53125 C 0.378906 -0.519531 0.398438 -0.503906 0.421875 -0.484375 L 0.4375 -0.484375 L 0.4375 -0.75 L 0.5625 -0.75 L 0.5625 0 L 0.4375 0 L 0.4375 -0.0625 L 0.421875 -0.078125 C 0.410156 -0.046875 0.390625 -0.0195312 0.359375 0 C 0.335938 0.0078125 0.304688 0.015625 0.265625 0.015625 Z M 0.3125 -0.109375 C 0.351562 -0.109375 0.382812 -0.117188 0.40625 -0.140625 C 0.425781 -0.171875 0.4375 -0.210938 0.4375 -0.265625 C 0.4375 -0.328125 0.425781 -0.367188 0.40625 -0.390625 C 0.382812 -0.421875 0.351562 -0.4375 0.3125 -0.4375 C 0.269531 -0.4375 0.238281 -0.421875 0.21875 -0.390625 C 0.195312 -0.367188 0.1875 -0.328125 0.1875 -0.265625 C 0.1875 -0.210938 0.195312 -0.171875 0.21875 -0.140625 C 0.238281 -0.117188 0.269531 -0.109375 0.3125 -0.109375 Z M 0.3125 -0.109375 "/></g></g><g transform="translate(119.663808, 0.899809)"><g/></g><g transform="translate(119.899598, 0.899809)"><g><path d="M 0.203125 0.015625 C 0.171875 0.015625 0.140625 0.0078125 0.109375 0 C 0.0859375 -0.0195312 0.0703125 -0.0390625 0.0625 -0.0625 C 0.0507812 -0.09375 0.046875 -0.125 0.046875 -0.15625 C 0.046875 -0.1875 0.0507812 -0.210938 0.0625 -0.234375 C 0.0703125 -0.253906 0.09375 -0.269531 0.125 -0.28125 C 0.15625 -0.300781 0.191406 -0.3125 0.234375 -0.3125 C 0.265625 -0.320312 0.289062 -0.328125 0.3125 -0.328125 C 0.332031 -0.335938 0.34375 -0.347656 0.34375 -0.359375 C 0.351562 -0.367188 0.359375 -0.378906 0.359375 -0.390625 C 0.359375 -0.398438 0.347656 -0.410156 0.328125 -0.421875 C 0.316406 -0.429688 0.300781 -0.4375 0.28125 -0.4375 C 0.25 -0.4375 0.21875 -0.429688 0.1875 -0.421875 C 0.164062 -0.410156 0.144531 -0.394531 0.125 -0.375 L 0.109375 -0.375 L 0.046875 -0.453125 C 0.078125 -0.484375 0.113281 -0.503906 0.15625 -0.515625 C 0.195312 -0.535156 0.238281 -0.546875 0.28125 -0.546875 C 0.351562 -0.546875 0.40625 -0.53125 0.4375 -0.5 C 0.46875 -0.46875 0.484375 -0.425781 0.484375 -0.375 L 0.484375 -0.140625 C 0.484375 -0.117188 0.492188 -0.109375 0.515625 -0.109375 C 0.523438 -0.109375 0.535156 -0.109375 0.546875 -0.109375 L 0.5625 -0.015625 C 0.550781 -0.00390625 0.535156 0 0.515625 0 C 0.503906 0 0.492188 0 0.484375 0 C 0.453125 0 0.425781 -0.00390625 0.40625 -0.015625 C 0.382812 -0.0234375 0.375 -0.046875 0.375 -0.078125 L 0.359375 -0.078125 C 0.328125 -0.015625 0.273438 0.015625 0.203125 0.015625 Z M 0.25 -0.09375 C 0.28125 -0.09375 0.304688 -0.101562 0.328125 -0.125 C 0.347656 -0.144531 0.359375 -0.171875 0.359375 -0.203125 L 0.359375 -0.265625 L 0.34375 -0.265625 C 0.332031 -0.253906 0.320312 -0.25 0.3125 -0.25 C 0.300781 -0.25 0.285156 -0.242188 0.265625 -0.234375 C 0.234375 -0.234375 0.207031 -0.222656 0.1875 -0.203125 C 0.175781 -0.191406 0.171875 -0.175781 0.171875 -0.15625 C 0.171875 -0.132812 0.175781 -0.117188 0.1875 -0.109375 C 0.207031 -0.0976562 0.226562 -0.09375 0.25 -0.09375 Z M 0.25 -0.09375 "/></g></g><g transform="translate(120.467349, 0.899809)"><g/></g><g transform="translate(120.703138, 0.899809)"><g><path d="M 0.25 0.015625 C 0.21875 0.015625 0.1875 0.0078125 0.15625 0 C 0.125 -0.0078125 0.0976562 -0.0195312 0.078125 -0.03125 C 0.0546875 -0.0507812 0.0390625 -0.0703125 0.03125 -0.09375 L 0.09375 -0.171875 L 0.109375 -0.171875 C 0.128906 -0.148438 0.148438 -0.128906 0.171875 -0.109375 C 0.191406 -0.0976562 0.21875 -0.09375 0.25 -0.09375 C 0.28125 -0.09375 0.300781 -0.0976562 0.3125 -0.109375 C 0.320312 -0.117188 0.328125 -0.132812 0.328125 -0.15625 C 0.328125 -0.164062 0.320312 -0.175781 0.3125 -0.1875 C 0.300781 -0.195312 0.285156 -0.203125 0.265625 -0.203125 L 0.203125 -0.234375 C 0.148438 -0.242188 0.109375 -0.257812 0.078125 -0.28125 C 0.0546875 -0.3125 0.046875 -0.347656 0.046875 -0.390625 C 0.046875 -0.421875 0.0507812 -0.445312 0.0625 -0.46875 C 0.0820312 -0.5 0.109375 -0.519531 0.140625 -0.53125 C 0.171875 -0.539062 0.207031 -0.546875 0.25 -0.546875 C 0.300781 -0.546875 0.34375 -0.535156 0.375 -0.515625 C 0.40625 -0.503906 0.429688 -0.488281 0.453125 -0.46875 L 0.375 -0.390625 L 0.359375 -0.390625 C 0.347656 -0.410156 0.332031 -0.421875 0.3125 -0.421875 C 0.289062 -0.429688 0.269531 -0.4375 0.25 -0.4375 C 0.195312 -0.4375 0.171875 -0.421875 0.171875 -0.390625 C 0.171875 -0.378906 0.175781 -0.367188 0.1875 -0.359375 C 0.195312 -0.347656 0.210938 -0.34375 0.234375 -0.34375 L 0.3125 -0.328125 C 0.363281 -0.316406 0.398438 -0.296875 0.421875 -0.265625 C 0.453125 -0.242188 0.46875 -0.207031 0.46875 -0.15625 C 0.46875 -0.125 0.457031 -0.09375 0.4375 -0.0625 C 0.414062 -0.0390625 0.390625 -0.0195312 0.359375 0 C 0.328125 0.0078125 0.289062 0.015625 0.25 0.015625 Z M 0.25 0.015625 "/></g></g><g transform="translate(121.199615, 0.899809)"><g><path d="M 0.25 0.015625 C 0.1875 0.015625 0.140625 0 0.109375 -0.03125 C 0.078125 -0.0703125 0.0625 -0.125 0.0625 -0.1875 L 0.0625 -0.53125 L 0.203125 -0.53125 L 0.203125 -0.203125 C 0.203125 -0.171875 0.207031 -0.144531 0.21875 -0.125 C 0.238281 -0.113281 0.265625 -0.109375 0.296875 -0.109375 C 0.328125 -0.109375 0.351562 -0.117188 0.375 -0.140625 C 0.394531 -0.160156 0.40625 -0.195312 0.40625 -0.25 L 0.40625 -0.53125 L 0.546875 -0.53125 L 0.546875 0 L 0.421875 0 L 0.421875 -0.078125 L 0.40625 -0.078125 C 0.382812 -0.046875 0.363281 -0.0195312 0.34375 0 C 0.320312 0.0078125 0.289062 0.015625 0.25 0.015625 Z M 0.25 0.015625 "/></g></g><g transform="translate(121.82253, 0.899809)"><g><path d="M 0.375 0.015625 C 0.3125 0.015625 0.257812 -0.0078125 0.21875 -0.0625 L 0.21875 0 L 0.078125 0 L 0.078125 -0.75 L 0.21875 -0.75 L 0.21875 -0.46875 C 0.238281 -0.5 0.257812 -0.519531 0.28125 -0.53125 C 0.3125 -0.539062 0.34375 -0.546875 0.375 -0.546875 C 0.414062 -0.546875 0.453125 -0.535156 0.484375 -0.515625 C 0.523438 -0.492188 0.550781 -0.460938 0.5625 -0.421875 C 0.582031 -0.378906 0.59375 -0.328125 0.59375 -0.265625 C 0.59375 -0.203125 0.582031 -0.148438 0.5625 -0.109375 C 0.550781 -0.0664062 0.523438 -0.0351562 0.484375 -0.015625 C 0.453125 0.00390625 0.414062 0.015625 0.375 0.015625 Z M 0.328125 -0.109375 C 0.367188 -0.109375 0.398438 -0.117188 0.421875 -0.140625 C 0.441406 -0.171875 0.453125 -0.210938 0.453125 -0.265625 C 0.453125 -0.328125 0.441406 -0.367188 0.421875 -0.390625 C 0.398438 -0.421875 0.367188 -0.4375 0.328125 -0.4375 C 0.296875 -0.4375 0.269531 -0.421875 0.25 -0.390625 C 0.226562 -0.367188 0.21875 -0.328125 0.21875 -0.265625 C 0.21875 -0.210938 0.226562 -0.171875 0.25 -0.140625 C 0.269531 -0.117188 0.296875 -0.109375 0.328125 -0.109375 Z M 0.328125 -0.109375 "/></g></g><g transform="translate(122.467413, 0.899809)"><g><path d="M 0.078125 0 L 0.078125 -0.75 L 0.21875 -0.75 L 0.21875 -0.46875 C 0.238281 -0.488281 0.257812 -0.503906 0.28125 -0.515625 C 0.3125 -0.535156 0.347656 -0.546875 0.390625 -0.546875 C 0.503906 -0.546875 0.5625 -0.476562 0.5625 -0.34375 L 0.5625 0 L 0.421875 0 L 0.421875 -0.328125 C 0.421875 -0.367188 0.410156 -0.394531 0.390625 -0.40625 C 0.378906 -0.425781 0.363281 -0.4375 0.34375 -0.4375 C 0.300781 -0.4375 0.269531 -0.421875 0.25 -0.390625 C 0.226562 -0.367188 0.21875 -0.332031 0.21875 -0.28125 L 0.21875 0 Z M 0.078125 0 "/></g></g><g transform="translate(123.098139, 0.899809)"><g><path d="M 0.53125 -0.234375 L 0.1875 -0.234375 C 0.1875 -0.191406 0.195312 -0.160156 0.21875 -0.140625 C 0.25 -0.117188 0.28125 -0.109375 0.3125 -0.109375 C 0.34375 -0.109375 0.367188 -0.113281 0.390625 -0.125 C 0.410156 -0.132812 0.425781 -0.148438 0.4375 -0.171875 L 0.453125 -0.171875 L 0.546875 -0.109375 C 0.523438 -0.078125 0.492188 -0.046875 0.453125 -0.015625 C 0.421875 0.00390625 0.375 0.015625 0.3125 0.015625 C 0.257812 0.015625 0.210938 0.00390625 0.171875 -0.015625 C 0.128906 -0.0351562 0.0976562 -0.0664062 0.078125 -0.109375 C 0.0546875 -0.148438 0.046875 -0.203125 0.046875 -0.265625 C 0.046875 -0.328125 0.0546875 -0.378906 0.078125 -0.421875 C 0.109375 -0.460938 0.140625 -0.492188 0.171875 -0.515625 C 0.210938 -0.535156 0.257812 -0.546875 0.3125 -0.546875 C 0.382812 -0.546875 0.441406 -0.523438 0.484375 -0.484375 C 0.523438 -0.441406 0.546875 -0.382812 0.546875 -0.3125 C 0.546875 -0.28125 0.546875 -0.257812 0.546875 -0.25 Z M 0.421875 -0.328125 C 0.421875 -0.367188 0.410156 -0.394531 0.390625 -0.40625 C 0.367188 -0.425781 0.34375 -0.4375 0.3125 -0.4375 C 0.238281 -0.4375 0.195312 -0.398438 0.1875 -0.328125 Z M 0.421875 -0.328125 "/></g></g><g transform="translate(123.683464, 0.899809)"><g><path d="M 0.203125 0.015625 C 0.171875 0.015625 0.140625 0.0078125 0.109375 0 C 0.0859375 -0.0195312 0.0703125 -0.0390625 0.0625 -0.0625 C 0.0507812 -0.09375 0.046875 -0.125 0.046875 -0.15625 C 0.046875 -0.1875 0.0507812 -0.210938 0.0625 -0.234375 C 0.0703125 -0.253906 0.09375 -0.269531 0.125 -0.28125 C 0.15625 -0.300781 0.191406 -0.3125 0.234375 -0.3125 C 0.265625 -0.320312 0.289062 -0.328125 0.3125 -0.328125 C 0.332031 -0.335938 0.34375 -0.347656 0.34375 -0.359375 C 0.351562 -0.367188 0.359375 -0.378906 0.359375 -0.390625 C 0.359375 -0.398438 0.347656 -0.410156 0.328125 -0.421875 C 0.316406 -0.429688 0.300781 -0.4375 0.28125 -0.4375 C 0.25 -0.4375 0.21875 -0.429688 0.1875 -0.421875 C 0.164062 -0.410156 0.144531 -0.394531 0.125 -0.375 L 0.109375 -0.375 L 0.046875 -0.453125 C 0.078125 -0.484375 0.113281 -0.503906 0.15625 -0.515625 C 0.195312 -0.535156 0.238281 -0.546875 0.28125 -0.546875 C 0.351562 -0.546875 0.40625 -0.53125 0.4375 -0.5 C 0.46875 -0.46875 0.484375 -0.425781 0.484375 -0.375 L 0.484375 -0.140625 C 0.484375 -0.117188 0.492188 -0.109375 0.515625 -0.109375 C 0.523438 -0.109375 0.535156 -0.109375 0.546875 -0.109375 L 0.5625 -0.015625 C 0.550781 -0.00390625 0.535156 0 0.515625 0 C 0.503906 0 0.492188 0 0.484375 0 C 0.453125 0 0.425781 -0.00390625 0.40625 -0.015625 C 0.382812 -0.0234375 0.375 -0.046875 0.375 -0.078125 L 0.359375 -0.078125 C 0.328125 -0.015625 0.273438 0.015625 0.203125 0.015625 Z M 0.25 -0.09375 C 0.28125 -0.09375 0.304688 -0.101562 0.328125 -0.125 C 0.347656 -0.144531 0.359375 -0.171875 0.359375 -0.203125 L 0.359375 -0.265625 L 0.34375 -0.265625 C 0.332031 -0.253906 0.320312 -0.25 0.3125 -0.25 C 0.300781 -0.25 0.285156 -0.242188 0.265625 -0.234375 C 0.234375 -0.234375 0.207031 -0.222656 0.1875 -0.203125 C 0.175781 -0.191406 0.171875 -0.175781 0.171875 -0.15625 C 0.171875 -0.132812 0.175781 -0.117188 0.1875 -0.109375 C 0.207031 -0.0976562 0.226562 -0.09375 0.25 -0.09375 Z M 0.25 -0.09375 "/></g></g><g transform="translate(124.251215, 0.899809)"><g><path d="M 0.265625 0.015625 C 0.222656 0.015625 0.1875 0.00390625 0.15625 -0.015625 C 0.125 -0.0351562 0.0976562 -0.0664062 0.078125 -0.109375 C 0.0546875 -0.148438 0.046875 -0.203125 0.046875 -0.265625 C 0.046875 -0.328125 0.0546875 -0.378906 0.078125 -0.421875 C 0.0976562 -0.460938 0.125 -0.492188 0.15625 -0.515625 C 0.1875 -0.535156 0.222656 -0.546875 0.265625 -0.546875 C 0.304688 -0.546875 0.335938 -0.539062 0.359375 -0.53125 C 0.378906 -0.519531 0.398438 -0.503906 0.421875 -0.484375 L 0.4375 -0.484375 L 0.4375 -0.75 L 0.5625 -0.75 L 0.5625 0 L 0.4375 0 L 0.4375 -0.0625 L 0.421875 -0.078125 C 0.410156 -0.046875 0.390625 -0.0195312 0.359375 0 C 0.335938 0.0078125 0.304688 0.015625 0.265625 0.015625 Z M 0.3125 -0.109375 C 0.351562 -0.109375 0.382812 -0.117188 0.40625 -0.140625 C 0.425781 -0.171875 0.4375 -0.210938 0.4375 -0.265625 C 0.4375 -0.328125 0.425781 -0.367188 0.40625 -0.390625 C 0.382812 -0.421875 0.351562 -0.4375 0.3125 -0.4375 C 0.269531 -0.4375 0.238281 -0.421875 0.21875 -0.390625 C 0.195312 -0.367188 0.1875 -0.328125 0.1875 -0.265625 C 0.1875 -0.210938 0.195312 -0.171875 0.21875 -0.140625 C 0.238281 -0.117188 0.269531 -0.109375 0.3125 -0.109375 Z M 0.3125 -0.109375 "/></g></g><g transform="translate(124.896586, 0.899809)"><g><path d="M 0.140625 -0.609375 C 0.117188 -0.609375 0.0976562 -0.613281 0.078125 -0.625 C 0.0664062 -0.632812 0.0625 -0.65625 0.0625 -0.6875 C 0.0625 -0.707031 0.0664062 -0.722656 0.078125 -0.734375 C 0.0976562 -0.753906 0.117188 -0.765625 0.140625 -0.765625 C 0.160156 -0.765625 0.175781 -0.757812 0.1875 -0.75 C 0.195312 -0.738281 0.207031 -0.726562 0.21875 -0.71875 C 0.226562 -0.707031 0.234375 -0.695312 0.234375 -0.6875 C 0.234375 -0.664062 0.226562 -0.648438 0.21875 -0.640625 C 0.207031 -0.628906 0.195312 -0.617188 0.1875 -0.609375 C 0.175781 -0.609375 0.160156 -0.609375 0.140625 -0.609375 Z M 0.078125 0 L 0.078125 -0.53125 L 0.21875 -0.53125 L 0.21875 0 Z M 0.078125 0 "/></g></g><g transform="translate(125.186563, 0.899809)"><g><path d="M 0.078125 0 L 0.078125 -0.53125 L 0.203125 -0.53125 L 0.203125 -0.453125 L 0.21875 -0.453125 C 0.25 -0.515625 0.300781 -0.546875 0.375 -0.546875 C 0.4375 -0.546875 0.484375 -0.53125 0.515625 -0.5 C 0.546875 -0.46875 0.5625 -0.414062 0.5625 -0.34375 L 0.5625 0 L 0.421875 0 L 0.421875 -0.328125 C 0.421875 -0.367188 0.414062 -0.394531 0.40625 -0.40625 C 0.394531 -0.425781 0.375 -0.4375 0.34375 -0.4375 C 0.300781 -0.4375 0.269531 -0.421875 0.25 -0.390625 C 0.226562 -0.367188 0.21875 -0.332031 0.21875 -0.28125 L 0.21875 0 Z M 0.078125 0 "/></g></g><g transform="translate(125.817289, 0.899809)"><g><path d="M 0.28125 0.234375 C 0.1875 0.234375 0.117188 0.21875 0.078125 0.1875 C 0.0351562 0.164062 0.015625 0.128906 0.015625 0.078125 C 0.015625 0.046875 0.0234375 0.0195312 0.046875 0 C 0.0664062 -0.0078125 0.09375 -0.0195312 0.125 -0.03125 C 0.101562 -0.0390625 0.0859375 -0.0507812 0.078125 -0.0625 C 0.078125 -0.0820312 0.078125 -0.101562 0.078125 -0.125 C 0.078125 -0.164062 0.101562 -0.191406 0.15625 -0.203125 L 0.15625 -0.21875 C 0.125 -0.238281 0.0976562 -0.257812 0.078125 -0.28125 C 0.0664062 -0.300781 0.0625 -0.332031 0.0625 -0.375 C 0.0625 -0.40625 0.0703125 -0.429688 0.09375 -0.453125 C 0.113281 -0.484375 0.140625 -0.503906 0.171875 -0.515625 C 0.203125 -0.535156 0.238281 -0.546875 0.28125 -0.546875 C 0.320312 -0.546875 0.359375 -0.539062 0.390625 -0.53125 C 0.398438 -0.550781 0.410156 -0.578125 0.421875 -0.609375 L 0.53125 -0.59375 C 0.519531 -0.5625 0.507812 -0.535156 0.5 -0.515625 C 0.488281 -0.503906 0.472656 -0.492188 0.453125 -0.484375 L 0.453125 -0.46875 C 0.472656 -0.4375 0.484375 -0.398438 0.484375 -0.359375 C 0.484375 -0.328125 0.472656 -0.296875 0.453125 -0.265625 C 0.441406 -0.242188 0.421875 -0.222656 0.390625 -0.203125 C 0.359375 -0.191406 0.320312 -0.1875 0.28125 -0.1875 L 0.265625 -0.1875 C 0.242188 -0.1875 0.234375 -0.1875 0.234375 -0.1875 C 0.222656 -0.1875 0.210938 -0.179688 0.203125 -0.171875 C 0.191406 -0.171875 0.1875 -0.164062 0.1875 -0.15625 C 0.1875 -0.132812 0.191406 -0.117188 0.203125 -0.109375 C 0.210938 -0.109375 0.226562 -0.109375 0.25 -0.109375 L 0.375 -0.109375 C 0.488281 -0.109375 0.546875 -0.0546875 0.546875 0.046875 C 0.546875 0.078125 0.535156 0.109375 0.515625 0.140625 C 0.503906 0.171875 0.476562 0.191406 0.4375 0.203125 C 0.394531 0.222656 0.34375 0.234375 0.28125 0.234375 Z M 0.28125 -0.28125 C 0.300781 -0.28125 0.316406 -0.285156 0.328125 -0.296875 C 0.347656 -0.316406 0.359375 -0.335938 0.359375 -0.359375 C 0.359375 -0.390625 0.347656 -0.410156 0.328125 -0.421875 C 0.316406 -0.441406 0.300781 -0.453125 0.28125 -0.453125 C 0.25 -0.453125 0.226562 -0.441406 0.21875 -0.421875 C 0.207031 -0.410156 0.203125 -0.390625 0.203125 -0.359375 C 0.203125 -0.335938 0.207031 -0.316406 0.21875 -0.296875 C 0.226562 -0.285156 0.25 -0.28125 0.28125 -0.28125 Z M 0.28125 0.125 C 0.320312 0.125 0.351562 0.117188 0.375 0.109375 C 0.394531 0.0976562 0.40625 0.0820312 0.40625 0.0625 C 0.40625 0.0390625 0.398438 0.0234375 0.390625 0.015625 C 0.378906 0.015625 0.363281 0.015625 0.34375 0.015625 L 0.234375 0 C 0.234375 0 0.226562 0 0.21875 0 C 0.195312 0 0.179688 0.00390625 0.171875 0.015625 C 0.160156 0.0234375 0.15625 0.0390625 0.15625 0.0625 C 0.15625 0.0820312 0.164062 0.0976562 0.1875 0.109375 C 0.207031 0.117188 0.238281 0.125 0.28125 0.125 Z M 0.28125 0.125 "/></g></g></g></svg>