<svg xmlns="http://www.w3.org/2000/svg" xmlns:xlink="http://www.w3.org/1999/xlink" width="1122" zoomAndPan="magnify" viewBox="0 0 841.92 595.499987" height="793" preserveAspectRatio="xMidYMid meet" version="1.0"><defs><g/><clipPath id="5c36179e9f"><path d="M 606 197 L 656.296875 197 L 656.296875 248 L 606 248 Z M 606 197 " clip-rule="nonzero"/></clipPath><clipPath id="f67a24a56d"><path d="M 384 14.425781 L 397 14.425781 L 397 33 L 384 33 Z M 384 14.425781 " clip-rule="nonzero"/></clipPath><clipPath id="464dfb01d5"><path d="M 185.691406 254 L 219 254 L 219 290 L 185.691406 290 Z M 185.691406 254 " clip-rule="nonzero"/></clipPath></defs><path fill="#000000" d="M 500.683594 353.460938 C 505.15625 354.445312 517.679688 356.175781 526.378906 347.550781 C 526.273438 345.574219 526.234375 344.167969 526.234375 344.167969 L 506.058594 344.117188 L 500.292969 347.332031 C 500.265625 347.363281 500.574219 350.160156 500.683594 353.460938 Z M 500.683594 353.460938 " fill-opacity="1" fill-rule="evenodd"/><path fill="#fe9f3a" d="M 490.335938 427.007812 C 490.335938 427.007812 490.394531 413.054688 496.058594 400.160156 C 499.570312 392.230469 505.203125 384.605469 514.867188 381.636719 C 526.953125 377.945312 537.21875 383.273438 544.488281 389.265625 C 552.242188 395.679688 556.816406 403.066406 556.816406 403.066406 C 558.421875 405.640625 561.78125 406.457031 564.355469 404.851562 C 566.929688 403.277344 567.746094 399.890625 566.140625 397.316406 C 560.507812 389.71875 554.089844 382.484375 545.363281 376.371094 C 536.21875 370.621094 524.679688 367.140625 511.65625 371.132812 C 498.691406 375.097656 490.726562 385.058594 486 395.710938 C 479.398438 410.726562 479.339844 426.949219 479.339844 426.949219 C 479.339844 429.976562 481.792969 432.425781 484.820312 432.457031 C 487.851562 432.488281 490.304688 430.035156 490.335938 427.007812 Z M 490.335938 427.007812 " fill-opacity="1" fill-rule="evenodd"/><path fill="#000000" d="M 545.578125 376.066406 C 536.371094 370.257812 524.710938 366.746094 511.535156 370.769531 C 498.453125 374.796875 490.425781 384.816406 485.671875 395.558594 C 479.039062 410.632812 478.949219 426.917969 478.949219 426.949219 C 478.949219 430.1875 481.582031 432.851562 484.824219 432.851562 C 485.035156 432.851562 485.21875 432.667969 485.21875 432.457031 C 485.246094 432.246094 485.035156 432.0625 484.824219 432.0625 C 482.007812 432.0625 479.734375 429.761719 479.734375 426.949219 C 479.734375 426.949219 479.796875 410.816406 486.367188 395.894531 C 491.03125 385.328125 498.875 375.460938 511.75 371.527344 C 524.710938 367.5625 536.097656 371.011719 545.15625 376.734375 C 545.367188 376.855469 545.609375 376.792969 545.699219 376.613281 C 545.820312 376.429688 545.761719 376.1875 545.578125 376.066406 Z M 545.578125 376.066406 " fill-opacity="1" fill-rule="evenodd"/><path fill="#fec184" d="M 499.746094 430.53125 C 497.410156 424.054688 490.261719 420.714844 483.773438 423.054688 C 478.640625 424.90625 472.644531 427.070312 467.484375 428.929688 C 461.023438 431.261719 457.65625 438.390625 459.996094 444.867188 C 466.308594 462.355469 478.121094 495.0625 484.4375 512.550781 C 486.777344 519.027344 493.902344 522.375 500.386719 520.035156 C 505.519531 518.183594 511.515625 516.023438 516.675781 514.160156 C 523.136719 511.832031 526.527344 504.691406 524.191406 498.214844 C 517.875 480.726562 506.0625 448.019531 499.746094 430.53125 Z M 499.746094 430.53125 " fill-opacity="1" fill-rule="evenodd"/><path fill="#ffb7e7" d="M 407.101562 476.054688 L 417.578125 497.945312 L 443.359375 489.109375 L 444.59375 479.871094 L 437.761719 464.320312 L 415.628906 465.957031 Z M 407.101562 476.054688 " fill-opacity="1" fill-rule="evenodd"/><path fill="#3471d2" d="M 403.140625 257.433594 L 383.214844 250.632812 L 364.898438 254.222656 C 364.898438 254.222656 310.839844 290.226562 299.644531 314.816406 C 288.445312 339.402344 300.878906 356.902344 319.109375 369.613281 C 337.339844 382.292969 350.226562 391.21875 350.226562 391.21875 C 350.226562 391.21875 353.386719 403.09375 368.402344 402.695312 C 368.402344 402.695312 371.214844 405.90625 375.378906 408.03125 C 374.601562 376.441406 370.179688 354.4375 368.199219 346.085938 C 363.261719 342.128906 357.863281 338.253906 352.957031 335.789062 L 353.414062 332.429688 C 353.414062 332.429688 360.160156 330.507812 360.507812 325.746094 L 378.25 313.550781 Z M 403.140625 257.433594 " fill-opacity="1" fill-rule="evenodd"/><path fill="#1b3e77" d="M 368.226562 346.050781 C 370.179688 354.398438 374.628906 376.40625 375.40625 407.992188 C 378.246094 409.484375 381.722656 410.460938 385.339844 409.570312 L 384.449219 360.566406 C 384.449219 360.566406 377.097656 353.164062 368.226562 346.050781 Z M 368.226562 346.050781 " fill-opacity="1" fill-rule="evenodd"/><path fill="#1b3e77" d="M 403.136719 257.425781 L 378.246094 313.515625 L 396.335938 301.09375 L 412.496094 270.164062 L 406.039062 258.402344 Z M 403.136719 257.425781 " fill-opacity="1" fill-rule="evenodd"/><path fill="#3471d2" d="M 402.335938 267.015625 C 402.335938 267.015625 380.457031 347.492188 380 365.109375 C 379.480469 382.726562 377.386719 402.980469 390.335938 441.769531 C 390.335938 441.769531 388.640625 457.894531 395.042969 464.207031 C 395.042969 464.207031 394.957031 478.007812 406.007812 479.726562 C 417.089844 481.476562 457.339844 466.644531 442.957031 456.949219 C 442.957031 456.949219 448.324219 447.679688 441.75 444.640625 C 441.75 444.640625 442.671875 409.808594 432.335938 388.175781 C 432.335938 388.175781 438.878906 383.269531 433.914062 377.246094 C 433.914062 377.246094 447.636719 356.417969 440.171875 347.980469 C 440.171875 347.980469 450.738281 326.578125 453.921875 303.914062 L 459.953125 278.003906 L 426.25 263.804688 Z M 402.335938 267.015625 " fill-opacity="1" fill-rule="evenodd"/><path fill="#1b3e77" d="M 359.988281 259.980469 C 359.988281 259.980469 374.429688 279.058594 382.066406 278.140625 C 385.855469 277.710938 388.667969 269.21875 388.667969 269.21875 C 388.667969 269.21875 392.085938 275.816406 403.136719 274.4375 C 403.136719 274.4375 412.039062 286.03125 425.332031 282.585938 C 425.332031 282.585938 435.40625 290.304688 441.75 286.71875 L 441.75 286.117188 C 441.75 286.117188 432.824219 285.199219 426.507812 278.253906 C 426.507812 278.253906 412.355469 280.835938 404.429688 269.675781 C 404.429688 269.675781 391.710938 268.84375 385.339844 262.101562 Z M 359.988281 259.980469 " fill-opacity="1" fill-rule="evenodd"/><g clip-path="url(#5c36179e9f)"><path fill="#019cef" d="M 656.292969 222.605469 C 656.292969 223.414062 656.253906 224.21875 656.175781 225.023438 C 656.097656 225.828125 655.976562 226.625 655.820312 227.417969 C 655.660156 228.210938 655.464844 228.992188 655.230469 229.765625 C 654.996094 230.539062 654.722656 231.300781 654.414062 232.046875 C 654.101562 232.792969 653.757812 233.523438 653.375 234.234375 C 652.996094 234.949219 652.582031 235.640625 652.128906 236.3125 C 651.679688 236.984375 651.199219 237.632812 650.6875 238.257812 C 650.175781 238.882812 649.632812 239.480469 649.0625 240.050781 C 648.492188 240.625 647.894531 241.164062 647.269531 241.679688 C 646.644531 242.191406 645.996094 242.671875 645.320312 243.121094 C 644.648438 243.570312 643.957031 243.984375 643.242188 244.363281 C 642.53125 244.746094 641.800781 245.089844 641.050781 245.398438 C 640.304688 245.710938 639.546875 245.980469 638.769531 246.214844 C 637.996094 246.449219 637.210938 246.648438 636.417969 246.804688 C 635.625 246.960938 634.828125 247.082031 634.023438 247.160156 C 633.21875 247.238281 632.414062 247.277344 631.605469 247.277344 C 630.796875 247.277344 629.988281 247.238281 629.183594 247.160156 C 628.378906 247.082031 627.578125 246.960938 626.785156 246.804688 C 625.992188 246.648438 625.210938 246.449219 624.4375 246.214844 C 623.660156 245.980469 622.902344 245.710938 622.152344 245.398438 C 621.40625 245.089844 620.675781 244.746094 619.964844 244.363281 C 619.25 243.984375 618.558594 243.570312 617.886719 243.121094 C 617.214844 242.671875 616.566406 242.191406 615.941406 241.679688 C 615.316406 241.164062 614.71875 240.625 614.144531 240.050781 C 613.574219 239.480469 613.03125 238.882812 612.519531 238.257812 C 612.003906 237.632812 611.523438 236.984375 611.074219 236.3125 C 610.625 235.640625 610.210938 234.949219 609.828125 234.234375 C 609.449219 233.523438 609.101562 232.792969 608.792969 232.046875 C 608.484375 231.300781 608.214844 230.539062 607.976562 229.765625 C 607.742188 228.992188 607.546875 228.210938 607.386719 227.417969 C 607.230469 226.625 607.113281 225.828125 607.035156 225.023438 C 606.953125 224.21875 606.914062 223.414062 606.914062 222.605469 C 606.914062 221.796875 606.953125 220.992188 607.035156 220.1875 C 607.113281 219.382812 607.230469 218.582031 607.390625 217.792969 C 607.546875 217 607.742188 216.214844 607.976562 215.441406 C 608.214844 214.667969 608.484375 213.910156 608.792969 213.164062 C 609.101562 212.414062 609.449219 211.6875 609.832031 210.972656 C 610.210938 210.261719 610.625 209.570312 611.074219 208.898438 C 611.523438 208.226562 612.003906 207.578125 612.519531 206.953125 C 613.03125 206.328125 613.574219 205.730469 614.144531 205.15625 C 614.71875 204.585938 615.316406 204.042969 615.941406 203.53125 C 616.566406 203.019531 617.214844 202.539062 617.886719 202.089844 C 618.558594 201.640625 619.25 201.226562 619.964844 200.84375 C 620.675781 200.464844 621.40625 200.117188 622.152344 199.808594 C 622.902344 199.5 623.660156 199.226562 624.433594 198.992188 C 625.210938 198.757812 625.992188 198.5625 626.785156 198.40625 C 627.578125 198.246094 628.378906 198.128906 629.183594 198.050781 C 629.988281 197.96875 630.796875 197.929688 631.605469 197.929688 C 632.414062 197.929688 633.21875 197.96875 634.023438 198.050781 C 634.828125 198.128906 635.628906 198.246094 636.421875 198.40625 C 637.214844 198.5625 637.996094 198.757812 638.773438 198.992188 C 639.546875 199.226562 640.304688 199.5 641.050781 199.808594 C 641.800781 200.117188 642.53125 200.464844 643.242188 200.84375 C 643.957031 201.226562 644.648438 201.640625 645.320312 202.089844 C 645.992188 202.539062 646.640625 203.019531 647.265625 203.53125 C 647.890625 204.042969 648.492188 204.585938 649.0625 205.15625 C 649.632812 205.730469 650.175781 206.328125 650.6875 206.953125 C 651.199219 207.578125 651.683594 208.226562 652.132812 208.898438 C 652.582031 209.570312 652.996094 210.261719 653.375 210.972656 C 653.757812 211.6875 654.105469 212.414062 654.414062 213.164062 C 654.722656 213.910156 654.996094 214.667969 655.230469 215.441406 C 655.464844 216.214844 655.660156 217 655.820312 217.792969 C 655.976562 218.582031 656.097656 219.382812 656.175781 220.1875 C 656.253906 220.992188 656.292969 221.796875 656.292969 222.605469 Z M 656.292969 222.605469 " fill-opacity="1" fill-rule="nonzero"/></g><path fill="#ffb7e7" d="M 378.277344 50.632812 C 378.277344 50.632812 379.597656 44.925781 378.476562 39.875 C 377.359375 34.824219 379.539062 22.773438 385.542969 18.671875 L 409.511719 32.902344 L 405.550781 51.148438 L 393.695312 58.292969 Z M 378.277344 50.632812 " fill-opacity="1" fill-rule="evenodd"/><g clip-path="url(#f67a24a56d)"><path fill="#ffb7e7" d="M 396.621094 19.390625 C 396.621094 19.390625 394.269531 26.21875 392.890625 30.234375 C 392.660156 30.980469 392.085938 31.554688 391.367188 31.871094 C 390.652344 32.15625 389.847656 32.15625 389.128906 31.8125 C 387.953125 31.269531 386.601562 30.636719 385.570312 30.121094 C 384.476562 29.605469 383.847656 28.398438 384.046875 27.164062 C 384.535156 24.496094 385.367188 19.878906 385.828125 17.410156 C 386.027344 16.320312 386.890625 15.429688 387.953125 15.199219 C 390.5625 14.628906 395.15625 14.425781 396.621094 19.390625 Z M 396.621094 19.390625 " fill-opacity="1" fill-rule="evenodd"/></g><path fill="#ffb7e7" d="M 396.621094 19.390625 C 396.621094 19.390625 404.289062 17.554688 406.011719 23.492188 C 406.011719 23.492188 402.910156 32.15625 402.046875 34.597656 C 401.902344 34.996094 401.53125 35.339844 401.101562 35.457031 C 396.363281 36.777344 393.664062 35.054688 392.515625 30.980469 Z M 396.621094 19.390625 " fill-opacity="1" fill-rule="evenodd"/><path fill="#ffb7e7" d="M 406.011719 23.492188 C 406.011719 23.492188 412.097656 22.460938 414.132812 27.335938 C 414.421875 28.027344 414.390625 28.800781 414.046875 29.460938 C 413.042969 31.527344 410.515625 36.660156 409.339844 38.984375 C 408.96875 39.761719 408.136719 40.191406 407.273438 40.074219 C 405.265625 39.789062 401.875 38.757812 401.644531 35.140625 Z M 406.011719 23.492188 " fill-opacity="1" fill-rule="evenodd"/><path fill="#000000" d="M 384.964844 20.242188 C 384.964844 20.242188 383.617188 26.726562 383.761719 28.363281 C 383.816406 28.90625 384.246094 29.566406 384.9375 30.140625 C 386.371094 31.375 388.898438 32.464844 390.019531 32.464844 C 390.476562 32.464844 390.9375 32.292969 391.367188 31.976562 C 391.941406 31.574219 392.457031 30.886719 392.972656 30.054688 C 394.8125 26.984375 396.046875 21.90625 396.046875 21.90625 C 396.105469 21.707031 395.988281 21.503906 395.757812 21.445312 C 395.558594 21.390625 395.355469 21.53125 395.300781 21.734375 C 395.300781 21.734375 394.09375 26.699219 392.3125 29.679688 C 391.941406 30.285156 391.566406 30.828125 391.136719 31.203125 C 390.761719 31.515625 390.417969 31.71875 390.015625 31.71875 C 389.128906 31.71875 387.347656 30.972656 386.054688 30.054688 C 385.539062 29.679688 385.078125 29.308594 384.820312 28.933594 C 384.648438 28.734375 384.5625 28.535156 384.535156 28.332031 C 384.417969 26.726562 385.738281 20.414062 385.738281 20.414062 C 385.769531 20.214844 385.652344 20.011719 385.453125 19.984375 C 385.195312 19.898438 384.992188 20.042969 384.964844 20.242188 Z M 384.964844 20.242188 " fill-opacity="1" fill-rule="evenodd"/><path fill="#000000" d="M 392.285156 29.796875 C 392.285156 29.796875 392.199219 32.980469 394.46875 34.644531 C 395.816406 35.648438 397.65625 36.164062 399.261719 35.992188 C 400.382812 35.878906 401.386719 35.449219 402.074219 34.644531 C 402.105469 34.617188 402.132812 34.585938 402.160156 34.53125 L 405.378906 25.722656 C 405.464844 25.519531 405.347656 25.320312 405.148438 25.234375 C 404.945312 25.175781 404.746094 25.261719 404.660156 25.464844 L 401.445312 34.214844 C 400.898438 34.84375 400.09375 35.160156 399.203125 35.246094 C 397.769531 35.390625 396.105469 34.929688 394.925781 34.042969 C 392.972656 32.578125 393.0625 29.796875 393.0625 29.796875 C 393.0625 29.59375 392.917969 29.421875 392.6875 29.421875 C 392.429688 29.421875 392.285156 29.59375 392.285156 29.796875 Z M 392.285156 29.796875 " fill-opacity="1" fill-rule="evenodd"/><path fill="#000000" d="M 401.359375 34.445312 C 401.359375 34.445312 401.386719 37.628906 403.511719 39.0625 C 405.605469 40.496094 407.5 40.324219 407.5 40.324219 C 407.703125 40.296875 407.875 40.125 407.847656 39.921875 C 407.816406 39.722656 407.644531 39.550781 407.445312 39.578125 C 407.445312 39.578125 405.777344 39.695312 403.914062 38.460938 C 402.105469 37.226562 402.105469 34.445312 402.105469 34.445312 C 402.105469 34.242188 401.933594 34.070312 401.730469 34.070312 C 401.53125 34.070312 401.359375 34.242188 401.359375 34.445312 Z M 401.359375 34.445312 " fill-opacity="1" fill-rule="evenodd"/><path fill="#ffb7e7" d="M 398.34375 60.214844 C 398.34375 60.214844 400.984375 57.804688 405.921875 55.082031 C 410.859375 52.355469 415.3125 44.292969 415.339844 42.285156 C 415.398438 40.277344 412.238281 32.816406 412.238281 32.816406 C 412.238281 32.816406 407.273438 30.464844 405.550781 28.773438 C 403.828125 27.078125 401.359375 35.113281 406.125 37.78125 L 406.554688 41.195312 C 406.554688 41.195312 392.371094 43.003906 389.328125 52.328125 L 391.683594 59.414062 Z M 398.34375 60.214844 " fill-opacity="1" fill-rule="evenodd"/><path fill="#000000" d="M 394.46875 46.925781 C 397.222656 44.542969 401.242188 42.191406 406.613281 41.617188 C 406.726562 41.617188 406.8125 41.558594 406.871094 41.472656 C 406.957031 41.386719 406.957031 41.300781 406.957031 41.1875 L 406.527344 37.773438 C 406.496094 37.6875 406.46875 37.601562 406.382812 37.542969 C 406.382812 37.542969 402.535156 34.328125 404.402344 29.652344 C 404.574219 29.25 404.976562 29.28125 405.492188 29.453125 C 407.1875 29.996094 409.828125 32.175781 411.464844 33.007812 C 411.636719 33.09375 411.867188 33.039062 411.980469 32.835938 C 412.066406 32.664062 411.980469 32.433594 411.808594 32.347656 C 410.402344 31.660156 408.25 29.9375 406.585938 29.105469 C 405.953125 28.792969 405.40625 28.621094 404.949219 28.621094 C 404.375 28.621094 403.945312 28.847656 403.714844 29.421875 C 401.847656 34.097656 405.148438 37.457031 405.808594 38.085938 L 406.183594 40.984375 C 400.785156 41.671875 396.796875 44.054688 393.980469 46.4375 C 393.839844 46.578125 393.808594 46.808594 393.953125 46.953125 C 394.066406 47.039062 394.324219 47.039062 394.46875 46.925781 Z M 394.46875 46.925781 " fill-opacity="1" fill-rule="evenodd"/><path fill="#ffb7e7" d="M 525.324219 347.464844 C 516.625 356.070312 504.109375 354.351562 499.628906 353.375 C 499.714844 356.472656 499.660156 360.058594 498.96875 362.296875 C 497.589844 366.886719 493.285156 372.511719 494.664062 381.578125 C 494.664062 381.578125 497.476562 378.535156 500.433594 376.382812 C 500.433594 376.382812 502.15625 388.75 503.132812 390.960938 C 504.109375 393.167969 510.222656 392.910156 514.273438 389.152344 C 514.273438 389.152344 520.445312 390.84375 524.75 386.339844 C 524.75 386.339844 532.300781 387.488281 532.988281 380.457031 C 533.652344 373.429688 527.820312 362.46875 526.585938 357.421875 C 525.84375 354.40625 525.496094 350.332031 525.324219 347.464844 Z M 525.324219 347.464844 " fill-opacity="1" fill-rule="evenodd"/><path fill="#000000" d="M 500.804688 376.839844 L 500.691406 371.792969 C 500.664062 371.5625 500.492188 371.390625 500.289062 371.417969 C 500.058594 371.417969 499.890625 371.621094 499.890625 371.820312 L 500.03125 376.871094 C 500.03125 377.101562 500.234375 377.273438 500.433594 377.273438 C 500.632812 377.242188 500.804688 377.042969 500.804688 376.839844 Z M 500.804688 376.839844 " fill-opacity="1" fill-rule="evenodd"/><path fill="#ffffff" d="M 382.179688 259.328125 C 382.179688 259.328125 392.085938 270.601562 404.171875 269.457031 C 404.171875 269.457031 411.550781 280.988281 426.335938 278.148438 C 426.335938 278.148438 435.003906 286.210938 443.589844 286.039062 L 452.976562 236.632812 L 461.761719 186.28125 L 428.777344 177.101562 L 421.570312 172.082031 L 384.078125 243.375 Z M 382.179688 259.328125 " fill-opacity="1" fill-rule="evenodd"/><path fill="#ffb7e7" d="M 437.671875 136.6875 C 437.671875 136.6875 428.914062 158.726562 437.808594 163 L 435.46875 169.578125 L 436.511719 181.457031 L 447.199219 182.410156 L 456.570312 177.984375 L 463.304688 159.890625 C 463.304688 159.890625 476.390625 162.660156 479.242188 156.316406 C 482.097656 149.96875 471.8125 147.242188 465.050781 148.570312 L 467.738281 135.011719 L 442.964844 127.683594 L 438.230469 133.628906 Z M 437.671875 136.6875 " fill-opacity="1" fill-rule="evenodd"/><path fill="#000000" d="M 447.636719 147.230469 C 447.488281 147.175781 447.359375 147.078125 447.253906 146.945312 C 447.148438 146.8125 447.070312 146.652344 447.023438 146.464844 C 446.972656 146.277344 446.960938 146.074219 446.976562 145.859375 C 446.996094 145.644531 447.042969 145.433594 447.125 145.226562 C 447.207031 145.015625 447.3125 144.824219 447.441406 144.65625 C 447.574219 144.484375 447.722656 144.34375 447.882812 144.238281 C 448.042969 144.128906 448.210938 144.0625 448.378906 144.035156 C 448.546875 144.007812 448.703125 144.023438 448.851562 144.082031 C 449 144.140625 449.128906 144.234375 449.234375 144.367188 C 449.339844 144.5 449.417969 144.660156 449.464844 144.847656 C 449.511719 145.035156 449.527344 145.238281 449.511719 145.453125 C 449.492188 145.667969 449.445312 145.878906 449.363281 146.089844 C 449.28125 146.296875 449.175781 146.488281 449.046875 146.65625 C 448.914062 146.828125 448.765625 146.96875 448.605469 147.074219 C 448.441406 147.183594 448.277344 147.25 448.109375 147.277344 C 447.941406 147.304688 447.785156 147.289062 447.636719 147.230469 Z M 447.636719 147.230469 " fill-opacity="1" fill-rule="nonzero"/><path fill="#000000" d="M 439.28125 144.269531 C 439.128906 144.230469 438.992188 144.148438 438.871094 144.027344 C 438.753906 143.90625 438.660156 143.757812 438.589844 143.574219 C 438.523438 143.390625 438.484375 143.195312 438.480469 142.976562 C 438.472656 142.761719 438.5 142.546875 438.558594 142.332031 C 438.617188 142.113281 438.699219 141.914062 438.8125 141.730469 C 438.925781 141.542969 439.054688 141.390625 439.203125 141.265625 C 439.355469 141.140625 439.511719 141.058594 439.675781 141.011719 C 439.839844 140.96875 439.996094 140.964844 440.152344 141.007812 C 440.304688 141.046875 440.441406 141.128906 440.5625 141.25 C 440.683594 141.371094 440.777344 141.519531 440.84375 141.703125 C 440.914062 141.882812 440.949219 142.082031 440.953125 142.296875 C 440.960938 142.515625 440.933594 142.730469 440.875 142.945312 C 440.820312 143.164062 440.734375 143.363281 440.621094 143.546875 C 440.511719 143.730469 440.378906 143.886719 440.230469 144.011719 C 440.082031 144.132812 439.925781 144.21875 439.761719 144.265625 C 439.597656 144.308594 439.4375 144.3125 439.28125 144.269531 Z M 439.28125 144.269531 " fill-opacity="1" fill-rule="nonzero"/><path fill="#000000" d="M 465.398438 151.734375 C 464.582031 153.296875 464.5625 154.90625 465.179688 156.507812 C 465.179688 156.507812 471.460938 157.539062 472.625 154.972656 C 473.796875 152.441406 467.601562 151.449219 465.398438 151.734375 Z M 465.398438 151.734375 " fill-opacity="1" fill-rule="evenodd"/><path fill="#000000" d="M 446.257812 164.277344 C 446.257812 164.277344 443.734375 168.292969 435.578125 169.152344 L 437.789062 162.984375 C 437.789062 162.984375 440.863281 164.792969 446.257812 164.277344 Z M 446.257812 164.277344 " fill-opacity="1" fill-rule="evenodd"/><path fill="#daffbc" d="M 520.789062 142.785156 C 518.832031 121.429688 532.394531 101.0625 553.777344 95.15625 C 577.820312 88.570312 602.679688 102.695312 609.285156 126.691406 C 615.925781 150.703125 601.777344 175.578125 577.734375 182.160156 C 556.347656 188.070312 534.238281 177.484375 525.007812 158.101562 L 491.742188 158.984375 Z M 520.789062 142.785156 " fill-opacity="1" fill-rule="evenodd"/><path fill="#000000" d="M 608.96875 126.804688 C 615.519531 150.601562 601.5 175.25 577.667969 181.832031 C 556.421875 187.644531 534.5 177.171875 525.375 157.972656 C 525.316406 157.855469 525.15625 157.765625 525.023438 157.773438 L 491.757812 158.65625 C 491.546875 158.660156 491.375 158.816406 491.378906 159.03125 C 491.382812 159.242188 491.554688 159.382812 491.769531 159.378906 L 524.789062 158.484375 C 534.183594 177.875 556.34375 188.445312 577.859375 182.527344 C 602.070312 175.871094 616.328125 150.808594 609.667969 126.613281 C 609.613281 126.410156 609.390625 126.285156 609.222656 126.359375 C 609.023438 126.414062 608.914062 126.605469 608.96875 126.804688 Z M 608.96875 126.804688 " fill-opacity="1" fill-rule="evenodd"/><path fill="#ffdb3b" d="M 588.058594 254.386719 L 591.890625 285.554688 C 592.070312 287.0625 592.679688 288.433594 593.652344 289.527344 C 594.625 290.625 595.839844 291.308594 597.179688 291.515625 L 624.84375 295.832031 L 597.179688 300.148438 C 595.839844 300.351562 594.625 301.039062 593.652344 302.132812 C 592.679688 303.230469 592.074219 304.601562 591.890625 306.105469 L 588.058594 337.277344 L 584.230469 306.105469 C 584.046875 304.601562 583.4375 303.230469 582.464844 302.132812 C 581.492188 301.039062 580.277344 300.351562 578.941406 300.148438 L 551.277344 295.832031 L 578.941406 291.515625 C 580.277344 291.308594 581.492188 290.625 582.464844 289.527344 C 583.4375 288.433594 584.046875 287.0625 584.230469 285.554688 Z M 588.058594 254.386719 " fill-opacity="1" fill-rule="evenodd"/><path fill="#ffdb3b" d="M 247.101562 317.816406 L 250.175781 342.839844 C 250.320312 344.050781 250.808594 345.148438 251.589844 346.027344 C 252.371094 346.910156 253.347656 347.457031 254.421875 347.625 L 276.628906 351.089844 L 254.421875 354.554688 C 253.347656 354.71875 252.371094 355.269531 251.589844 356.148438 C 250.808594 357.027344 250.320312 358.128906 250.175781 359.335938 L 247.101562 384.359375 L 244.027344 359.335938 C 243.878906 358.128906 243.390625 357.027344 242.609375 356.148438 C 241.828125 355.269531 240.851562 354.71875 239.777344 354.554688 L 217.570312 351.089844 L 239.777344 347.625 C 240.851562 347.457031 241.828125 346.910156 242.609375 346.027344 C 243.390625 345.148438 243.878906 344.050781 244.027344 342.839844 Z M 247.101562 317.816406 " fill-opacity="1" fill-rule="evenodd"/><path fill="#7bc53e" d="M 281.929688 270.804688 C 281.929688 271.085938 281.902344 271.363281 281.847656 271.636719 C 281.792969 271.914062 281.710938 272.179688 281.605469 272.441406 C 281.496094 272.699219 281.363281 272.945312 281.207031 273.179688 C 281.054688 273.414062 280.875 273.628906 280.675781 273.828125 C 280.480469 274.023438 280.261719 274.203125 280.027344 274.359375 C 279.796875 274.515625 279.550781 274.644531 279.289062 274.753906 C 279.03125 274.859375 278.761719 274.941406 278.488281 274.996094 C 278.210938 275.050781 277.933594 275.078125 277.652344 275.078125 C 277.371094 275.078125 277.09375 275.050781 276.816406 274.996094 C 276.542969 274.941406 276.273438 274.859375 276.015625 274.753906 C 275.753906 274.644531 275.507812 274.515625 275.273438 274.359375 C 275.042969 274.203125 274.828125 274.023438 274.628906 273.828125 C 274.429688 273.628906 274.25 273.414062 274.09375 273.179688 C 273.9375 272.945312 273.808594 272.699219 273.699219 272.441406 C 273.59375 272.179688 273.511719 271.914062 273.457031 271.636719 C 273.402344 271.363281 273.375 271.085938 273.375 270.804688 C 273.375 270.523438 273.402344 270.246094 273.457031 269.96875 C 273.511719 269.695312 273.59375 269.425781 273.699219 269.167969 C 273.808594 268.910156 273.9375 268.664062 274.09375 268.429688 C 274.25 268.195312 274.429688 267.980469 274.628906 267.78125 C 274.828125 267.582031 275.042969 267.40625 275.273438 267.25 C 275.507812 267.09375 275.753906 266.960938 276.015625 266.855469 C 276.273438 266.746094 276.542969 266.664062 276.816406 266.609375 C 277.09375 266.554688 277.371094 266.527344 277.652344 266.527344 C 277.933594 266.527344 278.210938 266.554688 278.484375 266.609375 C 278.761719 266.664062 279.03125 266.746094 279.289062 266.855469 C 279.550781 266.960938 279.796875 267.09375 280.027344 267.25 C 280.261719 267.40625 280.480469 267.582031 280.675781 267.78125 C 280.875 267.980469 281.054688 268.195312 281.210938 268.429688 C 281.367188 268.664062 281.496094 268.910156 281.605469 269.167969 C 281.710938 269.425781 281.792969 269.695312 281.847656 269.96875 C 281.902344 270.246094 281.929688 270.523438 281.929688 270.804688 Z M 281.929688 270.804688 " fill-opacity="1" fill-rule="nonzero"/><path fill="#019cef" d="M 552.625 209.894531 C 552.625 210.351562 552.539062 210.789062 552.363281 211.210938 C 552.1875 211.632812 551.9375 212.003906 551.617188 212.328125 C 551.292969 212.652344 550.917969 212.898438 550.496094 213.074219 C 550.078125 213.25 549.636719 213.335938 549.179688 213.335938 C 548.722656 213.335938 548.285156 213.25 547.863281 213.074219 C 547.4375 212.898438 547.066406 212.652344 546.746094 212.328125 C 546.421875 212.003906 546.171875 211.632812 545.996094 211.210938 C 545.824219 210.789062 545.734375 210.351562 545.734375 209.894531 C 545.734375 209.4375 545.824219 209 545.996094 208.578125 C 546.171875 208.15625 546.421875 207.78125 546.746094 207.460938 C 547.066406 207.136719 547.4375 206.886719 547.863281 206.714844 C 548.285156 206.539062 548.722656 206.453125 549.179688 206.453125 C 549.636719 206.453125 550.078125 206.539062 550.496094 206.714844 C 550.917969 206.886719 551.292969 207.136719 551.617188 207.460938 C 551.9375 207.78125 552.1875 208.15625 552.363281 208.578125 C 552.539062 209 552.625 209.4375 552.625 209.894531 Z M 552.625 209.894531 " fill-opacity="1" fill-rule="nonzero"/><path fill="#000000" d="M 503.675781 177.816406 L 511.226562 192.59375 C 511.316406 192.792969 511.574219 192.878906 511.773438 192.765625 C 511.972656 192.679688 512.03125 192.421875 511.945312 192.222656 L 504.367188 177.445312 C 504.28125 177.246094 504.023438 177.160156 503.851562 177.273438 C 503.675781 177.386719 503.59375 177.617188 503.675781 177.816406 Z M 503.675781 177.816406 " fill-opacity="1" fill-rule="evenodd"/><path fill="#000000" d="M 503.648438 61.996094 L 503.648438 78.464844 C 503.648438 78.691406 503.820312 78.863281 504.050781 78.863281 C 504.28125 78.863281 504.425781 78.691406 504.425781 78.464844 L 504.425781 61.996094 C 504.425781 61.765625 504.25 61.59375 504.050781 61.59375 C 503.820312 61.59375 503.648438 61.765625 503.648438 61.996094 Z M 503.648438 61.996094 " fill-opacity="1" fill-rule="evenodd"/><path fill="#000000" d="M 318.90625 113.988281 L 315.261719 134.074219 C 315.230469 134.304688 315.375 134.503906 315.605469 134.53125 C 315.835938 134.5625 316.035156 134.417969 316.066406 134.214844 L 319.710938 114.132812 C 319.765625 113.902344 319.625 113.703125 319.394531 113.675781 C 319.164062 113.644531 318.964844 113.789062 318.90625 113.988281 Z M 318.90625 113.988281 " fill-opacity="1" fill-rule="evenodd"/><path fill="#000000" d="M 642.484375 359.199219 C 642.339844 358.425781 642.113281 357.648438 641.796875 356.960938 C 641.164062 355.585938 640.160156 354.492188 638.640625 354.09375 C 636.113281 353.433594 633.269531 354.148438 631.492188 356.070312 C 630.371094 357.304688 630.027344 358.738281 630.398438 359.945312 C 630.773438 361.179688 631.777344 362.210938 633.472656 362.640625 C 636.457031 363.417969 639.441406 362.355469 641.910156 360.632812 C 641.996094 361.550781 641.996094 362.46875 641.996094 363.214844 C 641.824219 371.738281 634.675781 377.90625 627.554688 381.433594 C 627.355469 381.519531 627.296875 381.777344 627.382812 381.980469 C 627.46875 382.179688 627.726562 382.265625 627.902344 382.152344 C 635.277344 378.480469 642.628906 372.050781 642.773438 363.214844 C 642.800781 362.296875 642.773438 361.179688 642.628906 360.058594 C 643.261719 359.570312 643.835938 359.054688 644.378906 358.539062 C 650.121094 352.886719 654.285156 343.734375 654.574219 335.644531 C 654.574219 335.414062 654.398438 335.242188 654.199219 335.242188 C 653.96875 335.242188 653.796875 335.414062 653.769531 335.617188 C 653.511719 343.503906 649.433594 352.457031 643.835938 357.964844 C 643.375 358.425781 642.914062 358.828125 642.484375 359.199219 Z M 641.765625 359.746094 C 641.625 358.882812 641.394531 358.050781 641.078125 357.277344 C 640.5625 356.128906 639.730469 355.183594 638.410156 354.839844 C 636.167969 354.234375 633.644531 354.867188 632.0625 356.589844 C 631.117188 357.59375 630.828125 358.710938 631.117188 359.714844 C 631.402344 360.71875 632.265625 361.523438 633.613281 361.867188 C 636.542969 362.640625 639.386719 361.496094 641.765625 359.746094 Z M 641.765625 359.746094 " fill-opacity="1" fill-rule="evenodd"/><g clip-path="url(#464dfb01d5)"><path fill="#000000" d="M 204.328125 274.535156 C 206.742188 280.902344 212.398438 286.527344 218.367188 289.367188 C 218.570312 289.453125 218.796875 289.367188 218.882812 289.164062 C 218.972656 288.964844 218.914062 288.734375 218.683594 288.648438 C 213.027344 285.980469 207.6875 280.757812 205.277344 274.792969 C 206.109375 274.992188 206.96875 275.078125 207.804688 275.078125 C 209.84375 275.050781 211.765625 274.363281 213.058594 272.582031 C 213.71875 271.695312 214.121094 270.402344 214.261719 268.9375 C 214.4375 266.816406 214.0625 264.378906 213.085938 262.65625 C 212.511719 261.652344 211.765625 260.847656 210.847656 260.445312 C 209.898438 260.046875 208.75 260.015625 207.457031 260.589844 C 205.792969 261.308594 204.671875 262.65625 204.011719 264.261719 C 203.039062 266.585938 203.007812 269.457031 203.496094 271.722656 C 203.609375 272.382812 203.8125 273.011719 203.984375 273.644531 C 203.4375 273.445312 202.921875 273.242188 202.433594 273.011719 C 194.738281 269.371094 190.058594 261.96875 186.5 254.566406 C 186.414062 254.363281 186.15625 254.277344 185.984375 254.363281 C 185.78125 254.449219 185.695312 254.707031 185.78125 254.910156 C 189.429688 262.484375 194.222656 270 202.089844 273.730469 C 202.808594 273.988281 203.523438 274.304688 204.328125 274.535156 Z M 204.933594 273.875 C 205.878906 274.132812 206.855469 274.277344 207.832031 274.246094 C 209.613281 274.21875 211.308594 273.644531 212.484375 272.066406 C 213.058594 271.292969 213.402344 270.117188 213.488281 268.824219 C 213.6875 266.84375 213.316406 264.605469 212.425781 262.972656 C 211.9375 262.109375 211.335938 261.449219 210.558594 261.105469 C 209.757812 260.761719 208.867188 260.792969 207.777344 261.25 C 205.9375 262.054688 204.875 263.71875 204.386719 265.609375 C 203.871094 267.5625 203.898438 269.714844 204.273438 271.464844 C 204.414062 272.296875 204.671875 273.097656 204.933594 273.875 Z M 204.933594 273.875 " fill-opacity="1" fill-rule="evenodd"/></g><path fill="#ffdb3b" d="M 284.21875 213.507812 L 227.277344 236.433594 L 211.125 196.367188 L 268.066406 173.441406 Z M 284.21875 213.507812 " fill-opacity="1" fill-rule="evenodd"/><path fill="#000000" d="M 211.132812 196.761719 L 248.398438 207.117188 C 248.570312 207.148438 248.746094 207.078125 248.851562 206.933594 L 268.523438 173.65625 C 268.609375 173.464844 268.554688 173.230469 268.375 173.09375 C 268.199219 172.957031 267.957031 173.058594 267.835938 173.261719 L 248.355469 206.308594 C 244.84375 205.34375 211.355469 196 211.355469 196 C 211.160156 195.921875 210.933594 196.066406 210.882812 196.242188 C 210.78125 196.488281 210.90625 196.699219 211.132812 196.761719 Z M 211.132812 196.761719 " fill-opacity="1" fill-rule="evenodd"/><path fill="#fe5e3a" d="M 277.890625 169.75 C 278.175781 170.460938 278.390625 171.195312 278.535156 171.949219 C 278.675781 172.703125 278.742188 173.464844 278.734375 174.234375 C 278.726562 175 278.644531 175.761719 278.488281 176.511719 C 278.332031 177.265625 278.101562 177.992188 277.800781 178.699219 C 277.5 179.40625 277.132812 180.074219 276.703125 180.710938 C 276.269531 181.34375 275.777344 181.929688 275.230469 182.46875 C 274.679688 183.003906 274.085938 183.484375 273.441406 183.90625 C 272.800781 184.324219 272.121094 184.679688 271.410156 184.964844 C 270.695312 185.253906 269.960938 185.46875 269.207031 185.609375 C 268.453125 185.75 267.691406 185.820312 266.921875 185.8125 C 266.152344 185.804688 265.394531 185.722656 264.640625 185.566406 C 263.890625 185.40625 263.160156 185.179688 262.453125 184.878906 C 261.746094 184.578125 261.078125 184.210938 260.441406 183.777344 C 259.808594 183.34375 259.222656 182.855469 258.683594 182.308594 C 258.144531 181.757812 257.664062 181.164062 257.246094 180.519531 C 256.824219 179.878906 256.472656 179.203125 256.183594 178.488281 C 255.898438 177.777344 255.683594 177.042969 255.539062 176.289062 C 255.398438 175.535156 255.328125 174.773438 255.335938 174.007812 C 255.34375 173.238281 255.425781 172.480469 255.582031 171.726562 C 255.742188 170.976562 255.96875 170.246094 256.269531 169.539062 C 256.570312 168.835938 256.9375 168.164062 257.371094 167.53125 C 257.804688 166.894531 258.296875 166.308594 258.84375 165.773438 C 259.390625 165.234375 259.988281 164.753906 260.632812 164.335938 C 261.273438 163.914062 261.953125 163.5625 262.664062 163.273438 C 263.375 162.988281 264.109375 162.773438 264.867188 162.628906 C 265.621094 162.488281 266.382812 162.421875 267.148438 162.429688 C 267.917969 162.433594 268.679688 162.515625 269.429688 162.675781 C 270.183594 162.832031 270.910156 163.058594 271.617188 163.359375 C 272.324219 163.660156 272.996094 164.027344 273.632812 164.460938 C 274.265625 164.894531 274.851562 165.382812 275.390625 165.933594 C 275.925781 166.480469 276.40625 167.078125 276.828125 167.71875 C 277.246094 168.359375 277.601562 169.039062 277.890625 169.75 Z M 277.890625 169.75 " fill-opacity="1" fill-rule="nonzero"/><path fill="#ffffff" d="M 265.164062 172.242188 L 260.597656 170.292969 C 260.109375 170.0625 259.507812 170.320312 259.277344 170.808594 C 259.046875 171.296875 259.304688 171.898438 259.792969 172.128906 L 264.359375 174.078125 L 259.765625 175.945312 C 259.25 176.144531 258.992188 176.71875 259.21875 177.234375 C 259.421875 177.753906 259.996094 177.980469 260.511719 177.78125 L 265.105469 175.917969 L 263.152344 180.476562 C 262.921875 180.996094 263.179688 181.566406 263.667969 181.796875 C 264.160156 182.027344 264.761719 181.769531 264.992188 181.28125 L 266.941406 176.71875 L 268.808594 181.308594 C 269.011719 181.828125 269.582031 182.054688 270.101562 181.855469 C 270.617188 181.652344 270.847656 181.082031 270.644531 180.5625 L 268.78125 175.972656 L 273.34375 177.925781 C 273.832031 178.125 274.4375 177.894531 274.664062 177.40625 C 274.894531 176.890625 274.636719 176.316406 274.148438 176.117188 L 269.582031 174.167969 L 274.175781 172.300781 C 274.695312 172.101562 274.953125 171.527344 274.722656 171.011719 C 274.523438 170.492188 273.949219 170.265625 273.429688 170.464844 L 268.835938 172.328125 L 270.789062 167.769531 C 271.019531 167.25 270.761719 166.679688 270.273438 166.476562 C 269.785156 166.277344 269.183594 166.507812 268.953125 166.992188 L 267 171.554688 L 265.164062 166.964844 C 264.933594 166.449219 264.359375 166.21875 263.84375 166.417969 C 263.324219 166.621094 263.097656 167.195312 263.296875 167.710938 Z M 265.164062 172.242188 " fill-opacity="1" fill-rule="evenodd"/><path fill="#ffc6c6" d="M 279.28125 407.464844 L 229.953125 438.628906 L 279.453125 516.871094 L 342.871094 476.800781 L 302.109375 412.367188 Z M 279.28125 407.464844 " fill-opacity="1" fill-rule="evenodd"/><path fill="#ff8989" d="M 279.363281 407.449219 L 302.175781 412.378906 L 288.105469 421.269531 Z M 279.363281 407.449219 " fill-opacity="1" fill-rule="evenodd"/><path fill="#ffffff" d="M 272.492188 450.085938 L 255.535156 460.796875 L 243.558594 441.863281 L 260.511719 431.152344 Z M 272.492188 450.085938 " fill-opacity="1" fill-rule="evenodd"/><path fill="#000000" d="M 260.28125 468.3125 L 304.308594 440.496094 C 304.480469 440.386719 304.515625 440.152344 304.40625 439.980469 C 304.296875 439.804688 304.046875 439.75 303.894531 439.84375 L 259.871094 467.660156 C 259.695312 467.769531 259.640625 468.019531 259.75 468.191406 C 259.875 468.386719 260.109375 468.421875 260.28125 468.3125 Z M 260.28125 468.3125 " fill-opacity="1" fill-rule="evenodd"/><path fill="#000000" d="M 275.40625 443.570312 L 297.53125 429.589844 C 297.707031 429.480469 297.738281 429.246094 297.628906 429.070312 C 297.519531 428.898438 297.28125 428.835938 297.117188 428.941406 L 274.996094 442.917969 C 274.820312 443.027344 274.773438 443.269531 274.882812 443.441406 C 275.007812 443.640625 275.230469 443.679688 275.40625 443.570312 Z M 275.40625 443.570312 " fill-opacity="1" fill-rule="evenodd"/><path fill="#000000" d="M 268.707031 432.554688 L 287.640625 420.59375 C 287.808594 420.484375 287.851562 420.246094 287.742188 420.070312 C 287.632812 419.898438 287.394531 419.835938 287.226562 419.941406 L 268.296875 431.902344 C 268.128906 432.007812 268.074219 432.253906 268.183594 432.429688 C 268.292969 432.601562 268.539062 432.660156 268.707031 432.554688 Z M 268.707031 432.554688 " fill-opacity="1" fill-rule="evenodd"/><path fill="#000000" d="M 267.175781 479.195312 L 311.203125 451.378906 C 311.378906 451.269531 311.410156 451.035156 311.300781 450.863281 C 311.191406 450.691406 310.945312 450.632812 310.792969 450.730469 L 266.765625 478.546875 C 266.589844 478.65625 266.535156 478.902344 266.644531 479.078125 C 266.753906 479.25 267.003906 479.304688 267.175781 479.195312 Z M 267.175781 479.195312 " fill-opacity="1" fill-rule="evenodd"/><path fill="#000000" d="M 274.042969 490.082031 L 318.070312 462.265625 C 318.242188 462.15625 318.277344 461.921875 318.167969 461.746094 C 318.058594 461.574219 317.808594 461.519531 317.660156 461.613281 L 273.632812 489.429688 C 273.457031 489.539062 273.402344 489.789062 273.511719 489.960938 C 273.621094 490.136719 273.871094 490.191406 274.042969 490.082031 Z M 274.042969 490.082031 " fill-opacity="1" fill-rule="evenodd"/><path fill="#000000" d="M 280.925781 500.945312 L 324.953125 473.128906 C 325.125 473.019531 325.160156 472.785156 325.050781 472.609375 C 324.941406 472.4375 324.691406 472.382812 324.542969 472.476562 L 280.515625 500.292969 C 280.339844 500.402344 280.285156 500.652344 280.394531 500.824219 C 280.519531 501.019531 280.753906 501.054688 280.925781 500.945312 Z M 280.925781 500.945312 " fill-opacity="1" fill-rule="evenodd"/><path fill="#000000" d="M 443.582031 141.816406 C 443.582031 141.816406 440.867188 147.023438 440.261719 150.554688 C 440.226562 150.675781 440.269531 150.808594 440.347656 150.875 C 440.433594 150.972656 440.554688 151.003906 440.664062 151.007812 L 442.21875 150.914062 C 442.429688 150.882812 442.605469 150.695312 442.59375 150.5 C 442.574219 150.269531 442.375 150.117188 442.15625 150.113281 L 441.117188 150.164062 C 441.875 146.765625 444.261719 142.15625 444.261719 142.15625 C 444.359375 141.960938 444.261719 141.71875 444.089844 141.632812 C 443.933594 141.554688 443.683594 141.617188 443.582031 141.816406 Z M 443.582031 141.816406 " fill-opacity="1" fill-rule="evenodd"/><path fill="#000000" d="M 438.683594 156.007812 C 438.683594 156.007812 442.945312 158.050781 447.257812 155.378906 C 447.457031 155.257812 447.523438 155.019531 447.394531 154.84375 C 447.273438 154.644531 447.023438 154.601562 446.835938 154.699219 C 442.914062 157.132812 439.011719 155.300781 439.011719 155.300781 C 438.816406 155.199219 438.554688 155.285156 438.476562 155.496094 C 438.410156 155.679688 438.484375 155.910156 438.683594 156.007812 Z M 438.683594 156.007812 " fill-opacity="1" fill-rule="evenodd"/><path fill="#000000" d="M 446.492188 153.425781 C 446.492188 153.425781 446.082031 155 448.003906 156.1875 C 448.1875 156.308594 448.441406 156.246094 448.5625 156.058594 C 448.683594 155.875 448.617188 155.621094 448.433594 155.5 C 447.101562 154.664062 447.28125 153.601562 447.28125 153.601562 C 447.335938 153.382812 447.195312 153.175781 446.996094 153.132812 C 446.746094 153.085938 446.539062 153.226562 446.492188 153.425781 Z M 446.492188 153.425781 " fill-opacity="1" fill-rule="evenodd"/><path fill="#000000" d="M 447.917969 141.265625 C 447.917969 141.265625 450.769531 140.402344 451.734375 142.78125 C 451.820312 142.992188 452.050781 143.078125 452.257812 142.992188 C 452.46875 142.90625 452.554688 142.675781 452.46875 142.46875 C 451.246094 139.464844 447.679688 140.488281 447.679688 140.488281 C 447.460938 140.542969 447.351562 140.761719 447.40625 140.980469 C 447.480469 141.210938 447.722656 141.332031 447.917969 141.265625 Z M 447.917969 141.265625 " fill-opacity="1" fill-rule="evenodd"/><path fill="#000000" d="M 438.996094 138.308594 C 438.996094 138.308594 441.738281 137.140625 442.953125 139.402344 C 443.0625 139.597656 443.300781 139.660156 443.5 139.554688 C 443.695312 139.445312 443.757812 139.207031 443.652344 139.007812 C 442.109375 136.15625 438.675781 137.558594 438.675781 137.558594 C 438.464844 137.636719 438.378906 137.867188 438.457031 138.078125 C 438.53125 138.289062 438.785156 138.382812 438.996094 138.308594 Z M 438.996094 138.308594 " fill-opacity="1" fill-rule="evenodd"/><path fill="#703719" d="M 435.667969 143.792969 C 435.667969 143.792969 430.707031 141.726562 430.816406 136.847656 C 430.945312 131.539062 435.476562 130.234375 435.476562 130.234375 C 435.476562 130.234375 432.867188 123.1875 439.660156 119.570312 C 444.765625 116.855469 450.640625 120.265625 450.640625 120.265625 C 450.640625 120.265625 453.878906 115.867188 458.496094 117.375 C 463.152344 118.90625 464.019531 123.484375 464.019531 123.484375 C 464.019531 123.484375 469.082031 120.804688 472.929688 124.199219 C 476.878906 127.675781 474.796875 131.09375 474.796875 131.09375 C 474.796875 131.09375 479.476562 132.960938 479.394531 135.992188 C 479.316406 139.023438 476.855469 141.015625 476.855469 141.015625 C 476.855469 141.015625 478.851562 145.152344 475.910156 149.558594 C 475.910156 149.558594 471.714844 147.386719 465.082031 148.507812 C 465.082031 148.507812 462.929688 150.707031 460.730469 150.0625 C 458.507812 149.40625 459.078125 144.921875 460.339844 141.832031 C 460.339844 141.832031 455.050781 141.546875 454.714844 137.648438 C 454.714844 137.648438 449.871094 136.542969 449.316406 132.535156 C 449.316406 132.535156 446.59375 134.78125 443.546875 132.71875 C 443.546875 132.71875 440.929688 137.128906 437.683594 136.558594 Z M 435.667969 143.792969 " fill-opacity="1" fill-rule="evenodd"/><path fill="#000000" d="M 437.589844 163.328125 C 437.589844 163.328125 442.699219 166.027344 450.019531 163.816406 C 450.25 163.761719 450.363281 163.53125 450.277344 163.328125 C 450.191406 163.128906 449.992188 163.015625 449.761719 163.070312 C 442.8125 165.164062 437.960938 162.640625 437.960938 162.640625 C 437.761719 162.527344 437.53125 162.613281 437.417969 162.8125 C 437.332031 162.984375 437.390625 163.214844 437.589844 163.328125 Z M 437.589844 163.328125 " fill-opacity="1" fill-rule="evenodd"/><path fill="#019cef" d="M 294.449219 58.550781 L 305.472656 62.914062 L 298.753906 88.503906 L 293.527344 85.347656 Z M 294.449219 58.550781 " fill-opacity="1" fill-rule="evenodd"/><path fill="#ffdb3b" d="M 435.578125 66.785156 L 440.921875 62.742188 L 449.90625 81.359375 L 440.921875 81.761719 Z M 435.578125 66.785156 " fill-opacity="1" fill-rule="evenodd"/><path fill="#fe860e" d="M 531.667969 32.101562 C 531.667969 32.101562 536.175781 49.484375 530.664062 59.585938 L 522.480469 58.550781 L 531.640625 46.816406 L 524.664062 36.777344 Z M 531.667969 32.101562 " fill-opacity="1" fill-rule="evenodd"/><path fill="#fe5e3a" d="M 322.035156 204.789062 L 329.730469 195.664062 L 329.5 211.386719 L 339.203125 220.078125 L 329.789062 219.246094 L 328.464844 212.589844 Z M 322.035156 204.789062 " fill-opacity="1" fill-rule="evenodd"/><path fill="#7bc53e" d="M 544.445312 139.0625 L 559.085938 154.296875 C 560.863281 156.132812 563.765625 156.246094 565.660156 154.523438 L 592.246094 130.625 C 594.195312 128.875 594.339844 125.890625 592.617188 123.941406 C 590.867188 121.988281 587.851562 121.847656 585.929688 123.597656 L 562.761719 144.425781 L 551.304688 132.492188 C 549.496094 130.597656 546.480469 130.539062 544.617188 132.347656 C 542.722656 134.183594 542.664062 137.167969 544.445312 139.0625 Z M 544.445312 139.0625 " fill-opacity="1" fill-rule="evenodd"/><path fill="#ffffff" d="M 613.53125 239.382812 L 614.097656 232.460938 C 614.480469 227.835938 617.914062 224.167969 622.347656 223.367188 C 623.113281 223.210938 623.933594 223.445312 624.523438 223.960938 C 626.445312 225.613281 628.929688 226.621094 631.671875 226.621094 C 634.363281 226.621094 636.847656 225.640625 638.769531 224.011719 C 639.382812 223.46875 640.230469 223.261719 641.023438 223.46875 C 645.148438 224.398438 648.324219 227.859375 648.8125 232.226562 L 649.605469 239.484375 C 645.097656 244.289062 638.71875 247.261719 631.621094 247.261719 C 624.472656 247.285156 618.042969 244.238281 613.53125 239.382812 Z M 613.53125 239.382812 " fill-opacity="1" fill-rule="evenodd"/><path fill="#ffffff" d="M 639.832031 215.617188 C 639.832031 216.15625 639.777344 216.691406 639.671875 217.21875 C 639.566406 217.75 639.410156 218.261719 639.207031 218.761719 C 639 219.257812 638.746094 219.730469 638.445312 220.179688 C 638.144531 220.628906 637.804688 221.042969 637.425781 221.425781 C 637.042969 221.804688 636.628906 222.148438 636.179688 222.445312 C 635.730469 222.746094 635.257812 223 634.757812 223.207031 C 634.261719 223.410156 633.746094 223.566406 633.214844 223.671875 C 632.6875 223.777344 632.152344 223.832031 631.613281 223.832031 C 631.074219 223.832031 630.539062 223.777344 630.011719 223.671875 C 629.480469 223.566406 628.96875 223.410156 628.46875 223.207031 C 627.96875 223 627.496094 222.746094 627.046875 222.445312 C 626.597656 222.148438 626.183594 221.804688 625.804688 221.425781 C 625.421875 221.042969 625.082031 220.628906 624.78125 220.179688 C 624.480469 219.730469 624.226562 219.257812 624.019531 218.761719 C 623.816406 218.261719 623.660156 217.75 623.554688 217.21875 C 623.449219 216.691406 623.394531 216.15625 623.394531 215.617188 C 623.394531 215.078125 623.449219 214.542969 623.554688 214.015625 C 623.660156 213.488281 623.816406 212.972656 624.019531 212.476562 C 624.226562 211.976562 624.480469 211.503906 624.78125 211.054688 C 625.082031 210.605469 625.421875 210.191406 625.804688 209.8125 C 626.183594 209.429688 626.597656 209.089844 627.046875 208.789062 C 627.496094 208.488281 627.96875 208.238281 628.46875 208.03125 C 628.96875 207.824219 629.480469 207.667969 630.011719 207.5625 C 630.539062 207.457031 631.074219 207.40625 631.613281 207.40625 C 632.152344 207.40625 632.6875 207.457031 633.214844 207.5625 C 633.746094 207.667969 634.261719 207.824219 634.757812 208.03125 C 635.257812 208.238281 635.730469 208.488281 636.179688 208.789062 C 636.628906 209.089844 637.042969 209.429688 637.425781 209.8125 C 637.804688 210.191406 638.144531 210.605469 638.445312 211.054688 C 638.746094 211.503906 639 211.976562 639.207031 212.476562 C 639.410156 212.972656 639.566406 213.488281 639.671875 214.015625 C 639.777344 214.542969 639.832031 215.078125 639.832031 215.617188 Z M 639.832031 215.617188 " fill-opacity="1" fill-rule="nonzero"/><path fill="#ffffff" d="M 440.777344 173.859375 L 440.777344 180.171875 L 436.382812 177.386719 Z M 440.777344 173.859375 " fill-opacity="1" fill-rule="evenodd"/><path fill="#000000" d="M 441.152344 173.859375 C 441.152344 173.714844 441.0625 173.570312 440.921875 173.484375 C 440.777344 173.429688 440.605469 173.429688 440.488281 173.542969 L 436.097656 177.074219 C 436.011719 177.160156 435.953125 177.273438 435.953125 177.417969 C 435.984375 177.558594 436.039062 177.675781 436.152344 177.730469 L 440.546875 180.515625 C 440.660156 180.601562 440.804688 180.601562 440.949219 180.515625 C 441.0625 180.457031 441.148438 180.3125 441.148438 180.171875 L 441.148438 173.859375 Z M 440.375 174.691406 L 440.375 179.453125 L 437.074219 177.359375 Z M 440.375 174.691406 " fill-opacity="1" fill-rule="evenodd"/><path fill="#ffffff" d="M 447.867188 177.789062 L 442.585938 180.746094 L 447.867188 184.015625 Z M 447.867188 177.789062 " fill-opacity="1" fill-rule="evenodd"/><path fill="#000000" d="M 448.269531 177.789062 C 448.269531 177.644531 448.183594 177.53125 448.070312 177.445312 C 447.953125 177.386719 447.8125 177.359375 447.667969 177.445312 L 442.386719 180.402344 C 442.269531 180.457031 442.183594 180.601562 442.15625 180.746094 C 442.15625 180.886719 442.242188 181.03125 442.355469 181.089844 L 447.667969 184.359375 C 447.78125 184.445312 447.925781 184.445312 448.070312 184.359375 C 448.183594 184.300781 448.269531 184.160156 448.269531 184.015625 Z M 447.496094 178.449219 L 447.496094 183.269531 L 443.386719 180.714844 Z M 447.496094 178.449219 " fill-opacity="1" fill-rule="evenodd"/><path fill="#fe860e" d="M 433.628906 181.777344 L 432.652344 177.015625 L 437.617188 173.859375 L 439.515625 178.191406 Z M 433.628906 181.777344 " fill-opacity="1" fill-rule="evenodd"/><path fill="#fe860e" d="M 446.203125 182.351562 L 449.53125 181.234375 L 449.503906 188.347656 L 445.253906 189.238281 Z M 446.203125 182.351562 " fill-opacity="1" fill-rule="evenodd"/><path fill="#000000" d="M 422.429688 222.03125 L 415.054688 244.179688 C 414.449219 244.410156 412.613281 245.328125 411.523438 247.507812 C 410.71875 249.199219 410.289062 251.667969 411.347656 255.195312 C 410.917969 255.597656 409.882812 256.601562 409.140625 258.007812 C 408.507812 259.242188 408.078125 260.761719 408.476562 262.425781 C 408.535156 262.65625 408.734375 262.769531 408.964844 262.714844 C 409.195312 262.65625 409.339844 262.457031 409.28125 262.226562 C 408.9375 260.761719 409.3125 259.441406 409.886719 258.351562 C 410.746094 256.6875 412.066406 255.625 412.066406 255.625 C 412.183594 255.511719 412.269531 255.339844 412.210938 255.195312 C 411.148438 251.78125 411.464844 249.457031 412.269531 247.851562 C 413.417969 245.527344 415.511719 244.839844 415.511719 244.839844 C 415.628906 244.808594 415.742188 244.695312 415.769531 244.582031 L 423.179688 222.261719 C 423.234375 222.058594 423.148438 221.828125 422.949219 221.773438 C 422.71875 221.714844 422.515625 221.828125 422.429688 222.03125 Z M 422.429688 222.03125 " fill-opacity="1" fill-rule="evenodd"/><path fill="#5679b0" d="M 467.074219 181.519531 C 478.269531 187.945312 485.046875 194.945312 485.046875 194.945312 C 494.089844 201.515625 498.625 217.699219 498.625 217.699219 C 508.703125 229.71875 516.625 262.339844 516.625 262.339844 C 531.179688 286.097656 527.964844 331.511719 527.964844 331.511719 C 536.664062 352.371094 508.558594 352.285156 500.75 350.277344 C 492.941406 348.296875 495.8125 342.128906 495.8125 342.128906 C 488.980469 332 493.773438 325.859375 493.773438 325.859375 C 485.648438 313.984375 487.65625 299.839844 487.65625 299.839844 C 482.71875 294.15625 484.15625 283.6875 484.15625 283.6875 C 481.457031 281.503906 481.285156 278.003906 481.285156 278.003906 C 474.855469 272.039062 471.0625 261.679688 471.0625 261.679688 C 471.925781 265.265625 471.207031 270.402344 471.207031 270.402344 C 478.5 287.847656 475.371094 301.101562 473.820312 305.71875 C 473.417969 306.867188 472.5 307.730469 471.324219 308.101562 C 462.96875 310.625 453.035156 309.59375 448.585938 308.875 C 447.121094 308.648438 445.914062 307.613281 445.484375 306.179688 C 441.808594 294.1875 440.949219 279.269531 441.695312 263.832031 C 450.394531 251.667969 460.097656 225.359375 460.097656 225.359375 L 454.527344 215.375 L 462.824219 209.320312 C 464.433594 202.636719 466.988281 182.09375 467.074219 181.519531 Z M 467.074219 181.519531 " fill-opacity="1" fill-rule="evenodd"/><path fill="#000000" d="M 481.65625 278.003906 C 481.65625 278.003906 481.746094 274.90625 483.925781 273.300781 C 484.125 273.15625 484.125 272.925781 484.011719 272.753906 C 483.867188 272.582031 483.636719 272.527344 483.46875 272.667969 C 480.941406 274.503906 480.855469 278.003906 480.855469 278.003906 C 480.855469 278.234375 481.027344 278.40625 481.226562 278.40625 C 481.457031 278.40625 481.65625 278.234375 481.65625 278.003906 Z M 481.65625 278.003906 " fill-opacity="1" fill-rule="evenodd"/><path fill="#000000" d="M 353.359375 332.03125 C 353.359375 332.03125 348.964844 332.773438 345.203125 333.378906 C 344.976562 333.40625 344.832031 333.605469 344.859375 333.835938 C 344.917969 334.066406 345.117188 334.210938 345.347656 334.179688 C 349.136719 333.578125 353.472656 332.832031 353.472656 332.832031 C 353.703125 332.804688 353.847656 332.601562 353.816406 332.375 C 353.789062 332.117188 353.558594 331.972656 353.359375 332.03125 Z M 353.359375 332.03125 " fill-opacity="1" fill-rule="evenodd"/><path fill="#000000" d="M 352.785156 335.414062 C 352.785156 335.414062 351.148438 336.363281 345.949219 341.125 C 345.777344 341.269531 345.777344 341.527344 345.921875 341.699219 C 346.066406 341.871094 346.324219 341.871094 346.46875 341.726562 C 351.578125 337.078125 353.15625 336.132812 353.15625 336.132812 C 353.355469 336.015625 353.386719 335.789062 353.300781 335.585938 C 353.214844 335.386719 352.957031 335.328125 352.785156 335.414062 Z M 352.785156 335.414062 " fill-opacity="1" fill-rule="evenodd"/><path fill="#1b3e77" d="M 442.613281 475.367188 C 442.613281 475.367188 447.695312 477.289062 450.164062 482.683594 C 452.632812 488.078125 456.738281 500.242188 456.738281 500.242188 L 453.492188 512.03125 L 428.949219 535.15625 L 410.34375 552 L 398.34375 561.121094 C 398.34375 561.121094 384.304688 563.128906 383.386719 555.242188 C 382.496094 547.351562 390.21875 534.527344 391.824219 531.082031 C 393.433594 527.640625 412.527344 492.953125 412.527344 492.953125 L 418.984375 492.4375 C 418.984375 492.4375 421.828125 486.957031 426.851562 486.382812 C 431.878906 485.839844 441.582031 483 442.613281 475.367188 Z M 442.613281 475.367188 " fill-opacity="1" fill-rule="evenodd"/><path fill="#019cef" d="M 391.683594 531.773438 C 391.683594 531.773438 400.183594 531.570312 408.910156 533.722656 C 414.707031 535.128906 420.625 537.566406 424.210938 541.785156 C 424.355469 541.957031 424.585938 541.957031 424.757812 541.84375 C 424.929688 541.699219 424.957031 541.441406 424.8125 541.269531 C 421.140625 536.9375 415.054688 534.382812 409.109375 532.949219 C 400.269531 530.769531 391.683594 530.96875 391.683594 530.96875 C 391.453125 530.96875 391.28125 531.167969 391.28125 531.371094 C 391.28125 531.570312 391.453125 531.773438 391.683594 531.773438 Z M 391.683594 531.773438 " fill-opacity="1" fill-rule="evenodd"/><path fill="#019cef" d="M 391.683594 531.371094 C 391.683594 531.371094 400.726562 499.292969 403.253906 492.324219 C 405.78125 485.351562 414.019531 482.222656 420.824219 489.855469 C 420.824219 489.855469 418.414062 491.976562 414.449219 501.445312 C 410.519531 510.914062 402.019531 531.800781 402.019531 531.800781 Z M 391.683594 531.371094 " fill-opacity="1" fill-rule="evenodd"/><path fill="#cbdaf3" d="M 456.738281 500.242188 C 456.738281 500.242188 460.527344 504.6875 460.242188 509.507812 C 459.953125 514.328125 448.84375 524.199219 446.71875 525.488281 C 444.566406 526.78125 439.597656 527.152344 439.597656 527.152344 C 439.597656 527.152344 400.726562 580.203125 384.332031 557.851562 C 384.332031 557.851562 390.390625 564.191406 404.230469 554.695312 C 418.039062 545.226562 456.738281 500.242188 456.738281 500.242188 Z M 456.738281 500.242188 " fill-opacity="1" fill-rule="evenodd"/><path fill="#fe9f3a" d="M 579.523438 401.710938 C 577.183594 395.234375 570.050781 391.886719 563.566406 394.226562 C 541.980469 402.011719 496.171875 418.535156 474.582031 426.320312 C 468.121094 428.652344 464.769531 435.777344 467.109375 442.253906 L 491.550781 509.9375 C 493.890625 516.414062 501.023438 519.757812 507.484375 517.429688 C 529.097656 509.632812 574.902344 493.113281 596.46875 485.335938 C 602.953125 482.996094 606.304688 475.871094 603.964844 469.394531 C 597.652344 451.90625 585.839844 419.199219 579.523438 401.710938 Z M 579.523438 401.710938 " fill-opacity="1" fill-rule="evenodd"/><path fill="#000000" d="M 588.53125 425.457031 C 584.925781 415.472656 582.449219 408.617188 579.914062 401.597656 C 577.507812 394.933594 570.117188 391.46875 563.4375 393.878906 C 541.851562 401.664062 496.042969 418.183594 474.453125 425.96875 C 467.777344 428.378906 464.328125 435.753906 466.734375 442.417969 C 469.277344 449.464844 471.9375 456.832031 475.542969 466.816406 C 475.621094 467.03125 475.847656 467.132812 476.0625 467.054688 C 476.257812 466.984375 476.363281 466.765625 476.285156 466.546875 C 472.679688 456.5625 470.019531 449.195312 467.476562 442.152344 C 465.214844 435.890625 468.480469 428.980469 474.726562 426.726562 C 496.339844 418.929688 542.148438 402.410156 563.710938 394.632812 C 570.007812 392.363281 576.886719 395.613281 579.148438 401.875 C 581.691406 408.917969 584.15625 415.746094 587.765625 425.730469 C 587.84375 425.949219 588.09375 426.042969 588.285156 425.972656 C 588.515625 425.859375 588.597656 425.644531 588.53125 425.457031 Z M 588.53125 425.457031 " fill-opacity="1" fill-rule="evenodd"/><path fill="#ee7701" d="M 589.105469 428.277344 L 476.667969 468.828125 C 476.667969 468.828125 485.902344 494.394531 491.527344 509.96875 C 493.859375 516.4375 500.996094 519.789062 507.457031 517.460938 C 529.070312 509.664062 574.878906 493.144531 596.441406 485.367188 C 602.929688 483.027344 606.273438 475.890625 603.941406 469.425781 C 598.339844 453.839844 589.105469 428.277344 589.105469 428.277344 Z M 589.105469 428.277344 " fill-opacity="1" fill-rule="evenodd"/><path fill="#703719" d="M 513.253906 412.386719 L 504.589844 415.511719 C 504.589844 415.511719 515.367188 445.355469 519.476562 456.730469 C 520.335938 459.121094 522.976562 460.363281 525.371094 459.5 C 527.761719 458.636719 529 455.996094 528.136719 453.609375 C 524.03125 442.234375 513.253906 412.386719 513.253906 412.386719 Z M 513.253906 412.386719 " fill-opacity="1" fill-rule="evenodd"/><path fill="#703719" d="M 538.296875 403.355469 L 529.632812 406.480469 C 529.632812 406.480469 540.410156 436.328125 544.519531 447.703125 C 545.382812 450.089844 548.023438 451.332031 550.414062 450.472656 C 550.414062 450.472656 550.414062 450.472656 550.414062 450.46875 C 552.808594 449.609375 554.042969 446.964844 553.183594 444.578125 C 549.074219 433.203125 538.296875 403.355469 538.296875 403.355469 Z M 538.296875 403.355469 " fill-opacity="1" fill-rule="evenodd"/><path fill="#ffffff" d="M 457.285156 176.527344 L 447.867188 177.789062 L 447.898438 191.503906 L 455.390625 191.503906 Z M 457.285156 176.527344 " fill-opacity="1" fill-rule="evenodd"/><path fill="#000000" d="M 457.65625 176.554688 C 457.6875 176.441406 457.628906 176.296875 457.570312 176.210938 C 457.484375 176.125 457.339844 176.066406 457.226562 176.097656 L 447.839844 177.359375 C 447.640625 177.386719 447.496094 177.558594 447.496094 177.761719 L 447.496094 191.476562 C 447.496094 191.589844 447.550781 191.675781 447.609375 191.761719 C 447.695312 191.847656 447.78125 191.875 447.898438 191.875 L 455.390625 191.875 C 455.621094 191.875 455.765625 191.734375 455.792969 191.53125 Z M 456.824219 176.988281 L 455.046875 191.074219 L 448.296875 191.074219 L 448.269531 178.105469 Z M 456.824219 176.988281 " fill-opacity="1" fill-rule="evenodd"/><path fill="#ffffff" d="M 435.179688 167.835938 L 440.777344 173.859375 L 429.492188 182.984375 L 423.378906 176.957031 L 429.4375 169.8125 Z M 435.179688 167.835938 " fill-opacity="1" fill-rule="evenodd"/><path fill="#000000" d="M 435.464844 167.546875 C 435.351562 167.433594 435.179688 167.402344 435.035156 167.433594 L 429.324219 169.410156 C 429.234375 169.441406 429.179688 169.46875 429.148438 169.527344 L 423.089844 176.671875 C 422.949219 176.84375 422.949219 177.074219 423.121094 177.214844 L 429.234375 183.242188 C 429.378906 183.382812 429.609375 183.382812 429.753906 183.269531 L 441.035156 174.144531 C 441.121094 174.089844 441.179688 173.972656 441.179688 173.859375 C 441.207031 173.746094 441.152344 173.628906 441.09375 173.570312 Z M 435.0625 168.292969 L 440.171875 173.832031 L 429.523438 182.464844 L 423.925781 176.929688 L 429.664062 170.15625 Z M 435.0625 168.292969 " fill-opacity="1" fill-rule="evenodd"/><path fill="#7b97c1" d="M 441.667969 263.859375 C 443.617188 222.03125 457.199219 176.613281 457.199219 176.613281 C 460.757812 178.105469 464.058594 179.796875 467.046875 181.519531 C 466.960938 182.09375 464.40625 202.636719 462.796875 209.347656 L 454.5 215.402344 L 460.070312 225.386719 C 460.070312 225.386719 450.394531 251.695312 441.667969 263.859375 Z M 441.667969 263.859375 " fill-opacity="1" fill-rule="evenodd"/><path fill="#000000" d="M 454.296875 215.058594 L 448.757812 218.273438 C 448.554688 218.386719 448.5 218.617188 448.613281 218.816406 C 448.699219 219.019531 448.988281 219.074219 449.160156 218.960938 L 454.699219 215.746094 C 454.898438 215.632812 454.957031 215.402344 454.84375 215.203125 C 454.730469 215.03125 454.472656 214.945312 454.296875 215.058594 Z M 454.296875 215.058594 " fill-opacity="1" fill-rule="evenodd"/><path fill="#7b97c1" d="M 470.191406 282.925781 L 448.378906 285.488281 L 447.910156 281.496094 L 469.722656 278.9375 Z M 470.191406 282.925781 " fill-opacity="1" fill-rule="evenodd"/><path fill="#42608d" d="M 471.148438 261.355469 C 471.148438 261.355469 466.039062 252.117188 464.890625 242.019531 C 464.890625 242.019531 461.703125 259.347656 471.003906 270.421875 C 470.976562 270.421875 472.269531 266.664062 471.148438 261.355469 Z M 471.148438 261.355469 " fill-opacity="1" fill-rule="evenodd"/><path fill="#000000" d="M 471.378906 261.507812 C 471.378906 261.507812 466.816406 253.128906 465.121094 242.199219 C 465.0625 241.96875 464.890625 241.828125 464.660156 241.855469 C 464.429688 241.882812 464.289062 242.085938 464.316406 242.3125 C 466.011719 253.390625 470.660156 261.882812 470.660156 261.882812 C 470.75 262.082031 471.007812 262.140625 471.179688 262.054688 C 471.410156 261.9375 471.496094 261.679688 471.378906 261.507812 Z M 471.378906 261.507812 " fill-opacity="1" fill-rule="evenodd"/><path fill="#e2e2e2" d="M 424.441406 177.808594 C 424.441406 177.808594 394.871094 236.253906 392.113281 266.835938 C 392.113281 266.835938 388.238281 265.488281 382.179688 259.320312 C 382.179688 259.320312 400.039062 198.554688 424.441406 177.808594 Z M 424.441406 177.808594 " fill-opacity="1" fill-rule="evenodd"/><path fill="#000000" d="M 406.238281 204.472656 C 406.066406 204.472656 405.921875 204.386719 405.867188 204.214844 L 404.316406 200.3125 C 404.230469 200.109375 404.34375 199.882812 404.546875 199.796875 C 404.746094 199.710938 404.976562 199.824219 405.0625 200.023438 L 406.613281 203.925781 C 406.699219 204.128906 406.582031 204.355469 406.382812 204.441406 C 406.355469 204.472656 406.296875 204.472656 406.238281 204.472656 Z M 406.238281 204.472656 " fill-opacity="1" fill-rule="nonzero"/><path fill="#5679b0" d="M 392.230469 239.214844 C 388.839844 248.796875 386.058594 258.953125 384.304688 269.457031 C 384.105469 270.71875 383.386719 271.867188 382.351562 272.613281 C 381.292969 273.359375 379.96875 273.644531 378.707031 273.386719 C 373.136719 272.324219 363.894531 268.480469 356.773438 255.28125 C 356.230469 254.25 356.054688 253.042969 356.34375 251.898438 C 357.980469 245.554688 364.640625 223.523438 380.746094 211.875 C 380.746094 211.875 382.527344 204.472656 386.34375 201.488281 C 386.34375 201.488281 373.050781 194.457031 368.027344 182.984375 C 368.027344 182.984375 358.035156 177.53125 355.738281 164.105469 C 355.738281 164.105469 329.960938 132.199219 356.660156 87.757812 C 356.660156 87.757812 349.539062 81.621094 368.890625 61.132812 C 368.890625 61.132812 370.039062 49.542969 378.25 49.285156 C 386.460938 49.027344 411.636719 61.621094 398.574219 70.34375 C 398.574219 70.34375 402.335938 80.613281 394.296875 84.203125 C 394.296875 84.203125 394.210938 105.03125 385.742188 116.535156 C 385.742188 116.535156 387.550781 120.609375 385.453125 124.226562 C 385.453125 124.226562 390.222656 127.554688 389.90625 134.925781 C 389.90625 134.925781 405.121094 149.472656 411.753906 166.054688 C 411.753906 166.054688 418.242188 165.855469 424.441406 167.316406 C 420.765625 170.960938 408.882812 183.039062 402.105469 192.421875 L 404.691406 200.167969 L 394.242188 206.078125 C 394.238281 206.078125 392 222.691406 392.230469 239.214844 Z M 392.230469 239.214844 " fill-opacity="1" fill-rule="evenodd"/><path fill="#000000" d="M 385.683594 123.910156 L 378.734375 118.800781 C 378.5625 118.660156 378.304688 118.714844 378.191406 118.886719 C 378.046875 119.058594 378.105469 119.320312 378.25 119.433594 L 385.195312 124.539062 C 385.367188 124.683594 385.625 124.625 385.742188 124.453125 C 385.914062 124.28125 385.855469 124.023438 385.683594 123.910156 Z M 385.683594 123.910156 " fill-opacity="1" fill-rule="evenodd"/><path fill="#42608d" d="M 401.671875 177.839844 C 401.671875 177.839844 393.722656 180.421875 387.835938 193.128906 C 387.835938 193.128906 383.242188 194.335938 381.777344 198.609375 C 381.777344 198.609375 384.734375 200.648438 386.402344 201.59375 C 386.402344 201.59375 388.296875 199.730469 390.679688 198.8125 C 390.707031 198.78125 394.039062 186.101562 401.671875 177.839844 Z M 401.671875 177.839844 " fill-opacity="1" fill-rule="evenodd"/><path fill="#000000" d="M 386.574219 201.804688 C 386.574219 201.804688 388.984375 200.023438 390.652344 199.164062 C 390.738281 199.105469 390.824219 199.019531 390.878906 198.90625 C 390.878906 198.90625 394.582031 185.738281 402.394531 178.105469 C 402.566406 177.960938 402.566406 177.703125 402.394531 177.53125 C 402.25 177.386719 401.992188 177.359375 401.847656 177.53125 C 394.414062 184.789062 390.621094 196.953125 390.164062 198.53125 C 388.441406 199.449219 386.085938 201.171875 386.085938 201.171875 C 385.914062 201.316406 385.859375 201.546875 386 201.71875 C 386.144531 201.890625 386.402344 201.917969 386.574219 201.804688 Z M 386.574219 201.804688 " fill-opacity="1" fill-rule="evenodd"/><path fill="#7b97c1" d="M 424.441406 167.316406 C 426.535156 167.804688 428.601562 168.523438 430.355469 169.5 C 430.355469 169.5 406.269531 199.25 392.230469 239.214844 L 392.199219 239.214844 C 391.96875 222.691406 394.238281 206.078125 394.238281 206.078125 L 404.6875 200.167969 L 402.105469 192.421875 C 408.878906 183.039062 420.738281 170.960938 424.441406 167.316406 Z M 424.441406 167.316406 " fill-opacity="1" fill-rule="evenodd"/><path fill="#7b97c1" d="M 383.066406 244.332031 L 380.855469 248.089844 L 364.632812 238.558594 L 366.84375 234.800781 Z M 383.066406 244.332031 " fill-opacity="1" fill-rule="evenodd"/><path fill="#000000" d="M 385.882812 263.25 C 385.882812 263.25 393.0625 270.277344 403.941406 269.847656 C 404.859375 271.398438 411.207031 280.867188 426.191406 278.542969 C 426.824219 279.144531 429.464844 281.699219 432.9375 283.707031 C 435.609375 285.285156 438.738281 286.546875 441.78125 286.402344 C 441.980469 286.402344 442.152344 286.230469 442.152344 286 C 442.125 285.800781 441.953125 285.628906 441.75 285.628906 C 438.882812 285.742188 435.894531 284.539062 433.339844 283.046875 C 429.464844 280.78125 426.59375 277.851562 426.59375 277.851562 C 426.507812 277.765625 426.394531 277.738281 426.277344 277.738281 C 410.429688 280.261719 404.515625 269.246094 404.515625 269.246094 C 404.457031 269.101562 404.285156 269.046875 404.144531 269.046875 C 393.464844 269.589844 386.429688 262.675781 386.429688 262.675781 C 386.285156 262.53125 386.054688 262.53125 385.914062 262.675781 C 385.738281 262.875 385.738281 263.105469 385.882812 263.25 Z M 385.882812 263.25 " fill-opacity="1" fill-rule="evenodd"/><path fill="#e2e2e2" d="M 396.707031 242.304688 C 396.707031 242.304688 415.65625 242.078125 423.261719 221.589844 L 399.550781 229.050781 Z M 396.707031 242.304688 " fill-opacity="1" fill-rule="evenodd"/><path fill="#fe860e" d="M 357.75 235.429688 L 363.523438 225.328125 C 363.523438 225.328125 369.261719 219.5625 381.695312 221.140625 C 394.125 222.71875 404.75 225.414062 416.664062 213.738281 C 428.519531 202.0625 433.484375 190.039062 433.484375 190.039062 L 437.707031 190.386719 L 438.222656 193.054688 C 438.222656 193.054688 427.800781 224.984375 409.199219 233.734375 C 390.59375 242.488281 382.585938 232.902344 366.449219 240.738281 Z M 357.75 235.429688 " fill-opacity="1" fill-rule="evenodd"/><path fill="#fe9f3a" d="M 433.628906 181.777344 L 439.511719 178.191406 L 446.203125 182.265625 L 445.253906 189.207031 L 438.191406 193.054688 L 433.453125 190.039062 Z M 433.628906 181.777344 " fill-opacity="1" fill-rule="evenodd"/><path fill="#000000" d="M 227.496094 236.769531 L 284.425781 213.84375 C 284.628906 213.757812 284.714844 213.558594 284.628906 213.355469 L 277.105469 194.679688 C 277.019531 194.480469 276.789062 194.394531 276.617188 194.480469 C 276.417969 194.566406 276.332031 194.765625 276.417969 194.964844 L 283.824219 213.300781 C 279.058594 215.222656 227.210938 236.078125 227.210938 236.078125 C 227.011719 236.164062 226.921875 236.367188 227.011719 236.566406 C 227.09375 236.738281 227.296875 236.855469 227.496094 236.769531 Z M 227.496094 236.769531 " fill-opacity="1" fill-rule="evenodd"/><path fill="#000000" d="M 351.347656 390.492188 L 351.632812 386.761719 C 351.664062 386.5625 351.492188 386.390625 351.289062 386.359375 C 351.058594 386.332031 350.886719 386.503906 350.886719 386.703125 L 350.570312 390.464844 C 350.570312 390.664062 350.714844 390.835938 350.945312 390.863281 C 351.117188 390.835938 351.320312 390.691406 351.347656 390.492188 Z M 351.347656 390.492188 " fill-opacity="1" fill-rule="evenodd"/><path fill="#000000" d="M 431.503906 388.28125 L 427.828125 390.921875 C 427.65625 391.035156 427.597656 391.265625 427.742188 391.4375 C 427.855469 391.609375 428.113281 391.640625 428.257812 391.523438 L 431.933594 388.886719 C 432.105469 388.769531 432.164062 388.539062 432.019531 388.367188 C 431.90625 388.195312 431.644531 388.167969 431.503906 388.28125 Z M 431.503906 388.28125 " fill-opacity="1" fill-rule="evenodd"/><path fill="#000000" d="M 432.792969 377.667969 L 429.695312 379.445312 C 429.519531 379.5625 429.464844 379.789062 429.550781 379.960938 C 429.636719 380.132812 429.894531 380.191406 430.066406 380.105469 L 433.167969 378.328125 C 433.367188 378.210938 433.398438 377.984375 433.3125 377.8125 C 433.226562 377.636719 432.9375 377.550781 432.792969 377.667969 Z M 432.792969 377.667969 " fill-opacity="1" fill-rule="evenodd"/><path fill="#019cef" d="M 452 487.78125 C 452 487.78125 445.167969 498.222656 449.074219 508.753906 C 449.128906 508.953125 449.359375 509.039062 449.558594 508.984375 C 449.761719 508.898438 449.847656 508.695312 449.789062 508.496094 C 446.03125 498.308594 452.660156 488.210938 452.660156 488.210938 C 452.777344 488.039062 452.746094 487.808594 452.574219 487.695312 C 452.375 487.550781 452.144531 487.609375 452 487.78125 Z M 452 487.78125 " fill-opacity="1" fill-rule="evenodd"/><path fill="#000000" d="M 395.957031 464.054688 L 398.910156 461 C 399.070312 460.839844 399.0625 460.613281 398.921875 460.46875 C 398.777344 460.324219 398.519531 460.328125 398.398438 460.476562 L 395.449219 463.53125 C 395.289062 463.695312 395.296875 463.917969 395.4375 464.0625 C 395.539062 464.222656 395.796875 464.21875 395.957031 464.054688 Z M 395.957031 464.054688 " fill-opacity="1" fill-rule="evenodd"/><path fill="#000000" d="M 486.824219 465.546875 L 518.492188 454.128906 C 518.691406 454.042969 518.808594 453.839844 518.722656 453.609375 C 518.636719 453.382812 518.40625 453.296875 518.203125 453.382812 L 486.539062 464.800781 C 486.308594 464.886719 486.222656 465.117188 486.308594 465.316406 C 486.394531 465.488281 486.625 465.601562 486.824219 465.546875 Z M 486.824219 465.546875 " fill-opacity="1" fill-rule="evenodd"/><path fill="#000000" d="M 484.816406 283.046875 C 484.816406 283.046875 484.816406 282.414062 485.101562 281.785156 C 485.273438 281.382812 485.5625 280.980469 486.050781 280.75 C 486.25 280.664062 486.335938 280.40625 486.25 280.207031 C 486.164062 280.003906 485.90625 279.917969 485.734375 280.035156 C 484.070312 280.835938 484.070312 283.046875 484.070312 283.046875 C 484.070312 283.277344 484.242188 283.449219 484.46875 283.449219 C 484.640625 283.449219 484.816406 283.277344 484.816406 283.046875 Z M 484.816406 283.046875 " fill-opacity="1" fill-rule="evenodd"/><path fill="#000000" d="M 385.566406 115.808594 L 381.722656 113.714844 C 381.519531 113.601562 381.261719 113.6875 381.175781 113.886719 C 381.089844 114.089844 381.148438 114.316406 381.347656 114.433594 L 385.195312 116.527344 C 385.394531 116.640625 385.625 116.554688 385.738281 116.382812 C 385.828125 116.152344 385.738281 115.925781 385.566406 115.808594 Z M 385.566406 115.808594 " fill-opacity="1" fill-rule="evenodd"/><g fill="#000000" fill-opacity="1"><g transform="translate(117.677413, 0.899809)"><g><path d="M 0.6875 0 L 0.53125 0 L 0.484375 -0.171875 L 0.203125 -0.171875 L 0.15625 0 L 0.015625 0 L 0.25 -0.71875 L 0.4375 -0.71875 Z M 0.34375 -0.5625 L 0.25 -0.28125 L 0.4375 -0.28125 L 0.359375 -0.5625 Z M 0.34375 -0.5625 "/></g></g><g transform="translate(118.373066, 0.899809)"><g><path d="M 0.265625 0.015625 C 0.222656 0.015625 0.1875 0.00390625 0.15625 -0.015625 C 0.125 -0.0351562 0.0976562 -0.0664062 0.078125 -0.109375 C 0.0546875 -0.148438 0.046875 -0.203125 0.046875 -0.265625 C 0.046875 -0.328125 0.0546875 -0.378906 0.078125 -0.421875 C 0.0976562 -0.460938 0.125 -0.492188 0.15625 -0.515625 C 0.1875 -0.535156 0.222656 -0.546875 0.265625 -0.546875 C 0.304688 -0.546875 0.335938 -0.539062 0.359375 -0.53125 C 0.378906 -0.519531 0.398438 -0.503906 0.421875 -0.484375 L 0.4375 -0.484375 L 0.4375 -0.75 L 0.5625 -0.75 L 0.5625 0 L 0.4375 0 L 0.4375 -0.0625 L 0.421875 -0.078125 C 0.410156 -0.046875 0.390625 -0.0195312 0.359375 0 C 0.335938 0.0078125 0.304688 0.015625 0.265625 0.015625 Z M 0.3125 -0.109375 C 0.351562 -0.109375 0.382812 -0.117188 0.40625 -0.140625 C 0.425781 -0.171875 0.4375 -0.210938 0.4375 -0.265625 C 0.4375 -0.328125 0.425781 -0.367188 0.40625 -0.390625 C 0.382812 -0.421875 0.351562 -0.4375 0.3125 -0.4375 C 0.269531 -0.4375 0.238281 -0.421875 0.21875 -0.390625 C 0.195312 -0.367188 0.1875 -0.328125 0.1875 -0.265625 C 0.1875 -0.210938 0.195312 -0.171875 0.21875 -0.140625 C 0.238281 -0.117188 0.269531 -0.109375 0.3125 -0.109375 Z M 0.3125 -0.109375 "/></g></g><g transform="translate(119.018437, 0.899809)"><g><path d="M 0.265625 0.015625 C 0.222656 0.015625 0.1875 0.00390625 0.15625 -0.015625 C 0.125 -0.0351562 0.0976562 -0.0664062 0.078125 -0.109375 C 0.0546875 -0.148438 0.046875 -0.203125 0.046875 -0.265625 C 0.046875 -0.328125 0.0546875 -0.378906 0.078125 -0.421875 C 0.0976562 -0.460938 0.125 -0.492188 0.15625 -0.515625 C 0.1875 -0.535156 0.222656 -0.546875 0.265625 -0.546875 C 0.304688 -0.546875 0.335938 -0.539062 0.359375 -0.53125 C 0.378906 -0.519531 0.398438 -0.503906 0.421875 -0.484375 L 0.4375 -0.484375 L 0.4375 -0.75 L 0.5625 -0.75 L 0.5625 0 L 0.4375 0 L 0.4375 -0.0625 L 0.421875 -0.078125 C 0.410156 -0.046875 0.390625 -0.0195312 0.359375 0 C 0.335938 0.0078125 0.304688 0.015625 0.265625 0.015625 Z M 0.3125 -0.109375 C 0.351562 -0.109375 0.382812 -0.117188 0.40625 -0.140625 C 0.425781 -0.171875 0.4375 -0.210938 0.4375 -0.265625 C 0.4375 -0.328125 0.425781 -0.367188 0.40625 -0.390625 C 0.382812 -0.421875 0.351562 -0.4375 0.3125 -0.4375 C 0.269531 -0.4375 0.238281 -0.421875 0.21875 -0.390625 C 0.195312 -0.367188 0.1875 -0.328125 0.1875 -0.265625 C 0.1875 -0.210938 0.195312 -0.171875 0.21875 -0.140625 C 0.238281 -0.117188 0.269531 -0.109375 0.3125 -0.109375 Z M 0.3125 -0.109375 "/></g></g><g transform="translate(119.663808, 0.899809)"><g/></g><g transform="translate(119.899598, 0.899809)"><g><path d="M 0.203125 0.015625 C 0.171875 0.015625 0.140625 0.0078125 0.109375 0 C 0.0859375 -0.0195312 0.0703125 -0.0390625 0.0625 -0.0625 C 0.0507812 -0.09375 0.046875 -0.125 0.046875 -0.15625 C 0.046875 -0.1875 0.0507812 -0.210938 0.0625 -0.234375 C 0.0703125 -0.253906 0.09375 -0.269531 0.125 -0.28125 C 0.15625 -0.300781 0.191406 -0.3125 0.234375 -0.3125 C 0.265625 -0.320312 0.289062 -0.328125 0.3125 -0.328125 C 0.332031 -0.335938 0.34375 -0.347656 0.34375 -0.359375 C 0.351562 -0.367188 0.359375 -0.378906 0.359375 -0.390625 C 0.359375 -0.398438 0.347656 -0.410156 0.328125 -0.421875 C 0.316406 -0.429688 0.300781 -0.4375 0.28125 -0.4375 C 0.25 -0.4375 0.21875 -0.429688 0.1875 -0.421875 C 0.164062 -0.410156 0.144531 -0.394531 0.125 -0.375 L 0.109375 -0.375 L 0.046875 -0.453125 C 0.078125 -0.484375 0.113281 -0.503906 0.15625 -0.515625 C 0.195312 -0.535156 0.238281 -0.546875 0.28125 -0.546875 C 0.351562 -0.546875 0.40625 -0.53125 0.4375 -0.5 C 0.46875 -0.46875 0.484375 -0.425781 0.484375 -0.375 L 0.484375 -0.140625 C 0.484375 -0.117188 0.492188 -0.109375 0.515625 -0.109375 C 0.523438 -0.109375 0.535156 -0.109375 0.546875 -0.109375 L 0.5625 -0.015625 C 0.550781 -0.00390625 0.535156 0 0.515625 0 C 0.503906 0 0.492188 0 0.484375 0 C 0.453125 0 0.425781 -0.00390625 0.40625 -0.015625 C 0.382812 -0.0234375 0.375 -0.046875 0.375 -0.078125 L 0.359375 -0.078125 C 0.328125 -0.015625 0.273438 0.015625 0.203125 0.015625 Z M 0.25 -0.09375 C 0.28125 -0.09375 0.304688 -0.101562 0.328125 -0.125 C 0.347656 -0.144531 0.359375 -0.171875 0.359375 -0.203125 L 0.359375 -0.265625 L 0.34375 -0.265625 C 0.332031 -0.253906 0.320312 -0.25 0.3125 -0.25 C 0.300781 -0.25 0.285156 -0.242188 0.265625 -0.234375 C 0.234375 -0.234375 0.207031 -0.222656 0.1875 -0.203125 C 0.175781 -0.191406 0.171875 -0.175781 0.171875 -0.15625 C 0.171875 -0.132812 0.175781 -0.117188 0.1875 -0.109375 C 0.207031 -0.0976562 0.226562 -0.09375 0.25 -0.09375 Z M 0.25 -0.09375 "/></g></g><g transform="translate(120.467349, 0.899809)"><g/></g><g transform="translate(120.703138, 0.899809)"><g><path d="M 0.25 0.015625 C 0.21875 0.015625 0.1875 0.0078125 0.15625 0 C 0.125 -0.0078125 0.0976562 -0.0195312 0.078125 -0.03125 C 0.0546875 -0.0507812 0.0390625 -0.0703125 0.03125 -0.09375 L 0.09375 -0.171875 L 0.109375 -0.171875 C 0.128906 -0.148438 0.148438 -0.128906 0.171875 -0.109375 C 0.191406 -0.0976562 0.21875 -0.09375 0.25 -0.09375 C 0.28125 -0.09375 0.300781 -0.0976562 0.3125 -0.109375 C 0.320312 -0.117188 0.328125 -0.132812 0.328125 -0.15625 C 0.328125 -0.164062 0.320312 -0.175781 0.3125 -0.1875 C 0.300781 -0.195312 0.285156 -0.203125 0.265625 -0.203125 L 0.203125 -0.234375 C 0.148438 -0.242188 0.109375 -0.257812 0.078125 -0.28125 C 0.0546875 -0.3125 0.046875 -0.347656 0.046875 -0.390625 C 0.046875 -0.421875 0.0507812 -0.445312 0.0625 -0.46875 C 0.0820312 -0.5 0.109375 -0.519531 0.140625 -0.53125 C 0.171875 -0.539062 0.207031 -0.546875 0.25 -0.546875 C 0.300781 -0.546875 0.34375 -0.535156 0.375 -0.515625 C 0.40625 -0.503906 0.429688 -0.488281 0.453125 -0.46875 L 0.375 -0.390625 L 0.359375 -0.390625 C 0.347656 -0.410156 0.332031 -0.421875 0.3125 -0.421875 C 0.289062 -0.429688 0.269531 -0.4375 0.25 -0.4375 C 0.195312 -0.4375 0.171875 -0.421875 0.171875 -0.390625 C 0.171875 -0.378906 0.175781 -0.367188 0.1875 -0.359375 C 0.195312 -0.347656 0.210938 -0.34375 0.234375 -0.34375 L 0.3125 -0.328125 C 0.363281 -0.316406 0.398438 -0.296875 0.421875 -0.265625 C 0.453125 -0.242188 0.46875 -0.207031 0.46875 -0.15625 C 0.46875 -0.125 0.457031 -0.09375 0.4375 -0.0625 C 0.414062 -0.0390625 0.390625 -0.0195312 0.359375 0 C 0.328125 0.0078125 0.289062 0.015625 0.25 0.015625 Z M 0.25 0.015625 "/></g></g><g transform="translate(121.199615, 0.899809)"><g><path d="M 0.25 0.015625 C 0.1875 0.015625 0.140625 0 0.109375 -0.03125 C 0.078125 -0.0703125 0.0625 -0.125 0.0625 -0.1875 L 0.0625 -0.53125 L 0.203125 -0.53125 L 0.203125 -0.203125 C 0.203125 -0.171875 0.207031 -0.144531 0.21875 -0.125 C 0.238281 -0.113281 0.265625 -0.109375 0.296875 -0.109375 C 0.328125 -0.109375 0.351562 -0.117188 0.375 -0.140625 C 0.394531 -0.160156 0.40625 -0.195312 0.40625 -0.25 L 0.40625 -0.53125 L 0.546875 -0.53125 L 0.546875 0 L 0.421875 0 L 0.421875 -0.078125 L 0.40625 -0.078125 C 0.382812 -0.046875 0.363281 -0.0195312 0.34375 0 C 0.320312 0.0078125 0.289062 0.015625 0.25 0.015625 Z M 0.25 0.015625 "/></g></g><g transform="translate(121.82253, 0.899809)"><g><path d="M 0.375 0.015625 C 0.3125 0.015625 0.257812 -0.0078125 0.21875 -0.0625 L 0.21875 0 L 0.078125 0 L 0.078125 -0.75 L 0.21875 -0.75 L 0.21875 -0.46875 C 0.238281 -0.5 0.257812 -0.519531 0.28125 -0.53125 C 0.3125 -0.539062 0.34375 -0.546875 0.375 -0.546875 C 0.414062 -0.546875 0.453125 -0.535156 0.484375 -0.515625 C 0.523438 -0.492188 0.550781 -0.460938 0.5625 -0.421875 C 0.582031 -0.378906 0.59375 -0.328125 0.59375 -0.265625 C 0.59375 -0.203125 0.582031 -0.148438 0.5625 -0.109375 C 0.550781 -0.0664062 0.523438 -0.0351562 0.484375 -0.015625 C 0.453125 0.00390625 0.414062 0.015625 0.375 0.015625 Z M 0.328125 -0.109375 C 0.367188 -0.109375 0.398438 -0.117188 0.421875 -0.140625 C 0.441406 -0.171875 0.453125 -0.210938 0.453125 -0.265625 C 0.453125 -0.328125 0.441406 -0.367188 0.421875 -0.390625 C 0.398438 -0.421875 0.367188 -0.4375 0.328125 -0.4375 C 0.296875 -0.4375 0.269531 -0.421875 0.25 -0.390625 C 0.226562 -0.367188 0.21875 -0.328125 0.21875 -0.265625 C 0.21875 -0.210938 0.226562 -0.171875 0.25 -0.140625 C 0.269531 -0.117188 0.296875 -0.109375 0.328125 -0.109375 Z M 0.328125 -0.109375 "/></g></g><g transform="translate(122.467413, 0.899809)"><g><path d="M 0.078125 0 L 0.078125 -0.75 L 0.21875 -0.75 L 0.21875 -0.46875 C 0.238281 -0.488281 0.257812 -0.503906 0.28125 -0.515625 C 0.3125 -0.535156 0.347656 -0.546875 0.390625 -0.546875 C 0.503906 -0.546875 0.5625 -0.476562 0.5625 -0.34375 L 0.5625 0 L 0.421875 0 L 0.421875 -0.328125 C 0.421875 -0.367188 0.410156 -0.394531 0.390625 -0.40625 C 0.378906 -0.425781 0.363281 -0.4375 0.34375 -0.4375 C 0.300781 -0.4375 0.269531 -0.421875 0.25 -0.390625 C 0.226562 -0.367188 0.21875 -0.332031 0.21875 -0.28125 L 0.21875 0 Z M 0.078125 0 "/></g></g><g transform="translate(123.098139, 0.899809)"><g><path d="M 0.53125 -0.234375 L 0.1875 -0.234375 C 0.1875 -0.191406 0.195312 -0.160156 0.21875 -0.140625 C 0.25 -0.117188 0.28125 -0.109375 0.3125 -0.109375 C 0.34375 -0.109375 0.367188 -0.113281 0.390625 -0.125 C 0.410156 -0.132812 0.425781 -0.148438 0.4375 -0.171875 L 0.453125 -0.171875 L 0.546875 -0.109375 C 0.523438 -0.078125 0.492188 -0.046875 0.453125 -0.015625 C 0.421875 0.00390625 0.375 0.015625 0.3125 0.015625 C 0.257812 0.015625 0.210938 0.00390625 0.171875 -0.015625 C 0.128906 -0.0351562 0.0976562 -0.0664062 0.078125 -0.109375 C 0.0546875 -0.148438 0.046875 -0.203125 0.046875 -0.265625 C 0.046875 -0.328125 0.0546875 -0.378906 0.078125 -0.421875 C 0.109375 -0.460938 0.140625 -0.492188 0.171875 -0.515625 C 0.210938 -0.535156 0.257812 -0.546875 0.3125 -0.546875 C 0.382812 -0.546875 0.441406 -0.523438 0.484375 -0.484375 C 0.523438 -0.441406 0.546875 -0.382812 0.546875 -0.3125 C 0.546875 -0.28125 0.546875 -0.257812 0.546875 -0.25 Z M 0.421875 -0.328125 C 0.421875 -0.367188 0.410156 -0.394531 0.390625 -0.40625 C 0.367188 -0.425781 0.34375 -0.4375 0.3125 -0.4375 C 0.238281 -0.4375 0.195312 -0.398438 0.1875 -0.328125 Z M 0.421875 -0.328125 "/></g></g><g transform="translate(123.683464, 0.899809)"><g><path d="M 0.203125 0.015625 C 0.171875 0.015625 0.140625 0.0078125 0.109375 0 C 0.0859375 -0.0195312 0.0703125 -0.0390625 0.0625 -0.0625 C 0.0507812 -0.09375 0.046875 -0.125 0.046875 -0.15625 C 0.046875 -0.1875 0.0507812 -0.210938 0.0625 -0.234375 C 0.0703125 -0.253906 0.09375 -0.269531 0.125 -0.28125 C 0.15625 -0.300781 0.191406 -0.3125 0.234375 -0.3125 C 0.265625 -0.320312 0.289062 -0.328125 0.3125 -0.328125 C 0.332031 -0.335938 0.34375 -0.347656 0.34375 -0.359375 C 0.351562 -0.367188 0.359375 -0.378906 0.359375 -0.390625 C 0.359375 -0.398438 0.347656 -0.410156 0.328125 -0.421875 C 0.316406 -0.429688 0.300781 -0.4375 0.28125 -0.4375 C 0.25 -0.4375 0.21875 -0.429688 0.1875 -0.421875 C 0.164062 -0.410156 0.144531 -0.394531 0.125 -0.375 L 0.109375 -0.375 L 0.046875 -0.453125 C 0.078125 -0.484375 0.113281 -0.503906 0.15625 -0.515625 C 0.195312 -0.535156 0.238281 -0.546875 0.28125 -0.546875 C 0.351562 -0.546875 0.40625 -0.53125 0.4375 -0.5 C 0.46875 -0.46875 0.484375 -0.425781 0.484375 -0.375 L 0.484375 -0.140625 C 0.484375 -0.117188 0.492188 -0.109375 0.515625 -0.109375 C 0.523438 -0.109375 0.535156 -0.109375 0.546875 -0.109375 L 0.5625 -0.015625 C 0.550781 -0.00390625 0.535156 0 0.515625 0 C 0.503906 0 0.492188 0 0.484375 0 C 0.453125 0 0.425781 -0.00390625 0.40625 -0.015625 C 0.382812 -0.0234375 0.375 -0.046875 0.375 -0.078125 L 0.359375 -0.078125 C 0.328125 -0.015625 0.273438 0.015625 0.203125 0.015625 Z M 0.25 -0.09375 C 0.28125 -0.09375 0.304688 -0.101562 0.328125 -0.125 C 0.347656 -0.144531 0.359375 -0.171875 0.359375 -0.203125 L 0.359375 -0.265625 L 0.34375 -0.265625 C 0.332031 -0.253906 0.320312 -0.25 0.3125 -0.25 C 0.300781 -0.25 0.285156 -0.242188 0.265625 -0.234375 C 0.234375 -0.234375 0.207031 -0.222656 0.1875 -0.203125 C 0.175781 -0.191406 0.171875 -0.175781 0.171875 -0.15625 C 0.171875 -0.132812 0.175781 -0.117188 0.1875 -0.109375 C 0.207031 -0.0976562 0.226562 -0.09375 0.25 -0.09375 Z M 0.25 -0.09375 "/></g></g><g transform="translate(124.251215, 0.899809)"><g><path d="M 0.265625 0.015625 C 0.222656 0.015625 0.1875 0.00390625 0.15625 -0.015625 C 0.125 -0.0351562 0.0976562 -0.0664062 0.078125 -0.109375 C 0.0546875 -0.148438 0.046875 -0.203125 0.046875 -0.265625 C 0.046875 -0.328125 0.0546875 -0.378906 0.078125 -0.421875 C 0.0976562 -0.460938 0.125 -0.492188 0.15625 -0.515625 C 0.1875 -0.535156 0.222656 -0.546875 0.265625 -0.546875 C 0.304688 -0.546875 0.335938 -0.539062 0.359375 -0.53125 C 0.378906 -0.519531 0.398438 -0.503906 0.421875 -0.484375 L 0.4375 -0.484375 L 0.4375 -0.75 L 0.5625 -0.75 L 0.5625 0 L 0.4375 0 L 0.4375 -0.0625 L 0.421875 -0.078125 C 0.410156 -0.046875 0.390625 -0.0195312 0.359375 0 C 0.335938 0.0078125 0.304688 0.015625 0.265625 0.015625 Z M 0.3125 -0.109375 C 0.351562 -0.109375 0.382812 -0.117188 0.40625 -0.140625 C 0.425781 -0.171875 0.4375 -0.210938 0.4375 -0.265625 C 0.4375 -0.328125 0.425781 -0.367188 0.40625 -0.390625 C 0.382812 -0.421875 0.351562 -0.4375 0.3125 -0.4375 C 0.269531 -0.4375 0.238281 -0.421875 0.21875 -0.390625 C 0.195312 -0.367188 0.1875 -0.328125 0.1875 -0.265625 C 0.1875 -0.210938 0.195312 -0.171875 0.21875 -0.140625 C 0.238281 -0.117188 0.269531 -0.109375 0.3125 -0.109375 Z M 0.3125 -0.109375 "/></g></g><g transform="translate(124.896586, 0.899809)"><g><path d="M 0.140625 -0.609375 C 0.117188 -0.609375 0.0976562 -0.613281 0.078125 -0.625 C 0.0664062 -0.632812 0.0625 -0.65625 0.0625 -0.6875 C 0.0625 -0.707031 0.0664062 -0.722656 0.078125 -0.734375 C 0.0976562 -0.753906 0.117188 -0.765625 0.140625 -0.765625 C 0.160156 -0.765625 0.175781 -0.757812 0.1875 -0.75 C 0.195312 -0.738281 0.207031 -0.726562 0.21875 -0.71875 C 0.226562 -0.707031 0.234375 -0.695312 0.234375 -0.6875 C 0.234375 -0.664062 0.226562 -0.648438 0.21875 -0.640625 C 0.207031 -0.628906 0.195312 -0.617188 0.1875 -0.609375 C 0.175781 -0.609375 0.160156 -0.609375 0.140625 -0.609375 Z M 0.078125 0 L 0.078125 -0.53125 L 0.21875 -0.53125 L 0.21875 0 Z M 0.078125 0 "/></g></g><g transform="translate(125.186563, 0.899809)"><g><path d="M 0.078125 0 L 0.078125 -0.53125 L 0.203125 -0.53125 L 0.203125 -0.453125 L 0.21875 -0.453125 C 0.25 -0.515625 0.300781 -0.546875 0.375 -0.546875 C 0.4375 -0.546875 0.484375 -0.53125 0.515625 -0.5 C 0.546875 -0.46875 0.5625 -0.414062 0.5625 -0.34375 L 0.5625 0 L 0.421875 0 L 0.421875 -0.328125 C 0.421875 -0.367188 0.414062 -0.394531 0.40625 -0.40625 C 0.394531 -0.425781 0.375 -0.4375 0.34375 -0.4375 C 0.300781 -0.4375 0.269531 -0.421875 0.25 -0.390625 C 0.226562 -0.367188 0.21875 -0.332031 0.21875 -0.28125 L 0.21875 0 Z M 0.078125 0 "/></g></g><g transform="translate(125.817289, 0.899809)"><g><path d="M 0.28125 0.234375 C 0.1875 0.234375 0.117188 0.21875 0.078125 0.1875 C 0.0351562 0.164062 0.015625 0.128906 0.015625 0.078125 C 0.015625 0.046875 0.0234375 0.0195312 0.046875 0 C 0.0664062 -0.0078125 0.09375 -0.0195312 0.125 -0.03125 C 0.101562 -0.0390625 0.0859375 -0.0507812 0.078125 -0.0625 C 0.078125 -0.0820312 0.078125 -0.101562 0.078125 -0.125 C 0.078125 -0.164062 0.101562 -0.191406 0.15625 -0.203125 L 0.15625 -0.21875 C 0.125 -0.238281 0.0976562 -0.257812 0.078125 -0.28125 C 0.0664062 -0.300781 0.0625 -0.332031 0.0625 -0.375 C 0.0625 -0.40625 0.0703125 -0.429688 0.09375 -0.453125 C 0.113281 -0.484375 0.140625 -0.503906 0.171875 -0.515625 C 0.203125 -0.535156 0.238281 -0.546875 0.28125 -0.546875 C 0.320312 -0.546875 0.359375 -0.539062 0.390625 -0.53125 C 0.398438 -0.550781 0.410156 -0.578125 0.421875 -0.609375 L 0.53125 -0.59375 C 0.519531 -0.5625 0.507812 -0.535156 0.5 -0.515625 C 0.488281 -0.503906 0.472656 -0.492188 0.453125 -0.484375 L 0.453125 -0.46875 C 0.472656 -0.4375 0.484375 -0.398438 0.484375 -0.359375 C 0.484375 -0.328125 0.472656 -0.296875 0.453125 -0.265625 C 0.441406 -0.242188 0.421875 -0.222656 0.390625 -0.203125 C 0.359375 -0.191406 0.320312 -0.1875 0.28125 -0.1875 L 0.265625 -0.1875 C 0.242188 -0.1875 0.234375 -0.1875 0.234375 -0.1875 C 0.222656 -0.1875 0.210938 -0.179688 0.203125 -0.171875 C 0.191406 -0.171875 0.1875 -0.164062 0.1875 -0.15625 C 0.1875 -0.132812 0.191406 -0.117188 0.203125 -0.109375 C 0.210938 -0.109375 0.226562 -0.109375 0.25 -0.109375 L 0.375 -0.109375 C 0.488281 -0.109375 0.546875 -0.0546875 0.546875 0.046875 C 0.546875 0.078125 0.535156 0.109375 0.515625 0.140625 C 0.503906 0.171875 0.476562 0.191406 0.4375 0.203125 C 0.394531 0.222656 0.34375 0.234375 0.28125 0.234375 Z M 0.28125 -0.28125 C 0.300781 -0.28125 0.316406 -0.285156 0.328125 -0.296875 C 0.347656 -0.316406 0.359375 -0.335938 0.359375 -0.359375 C 0.359375 -0.390625 0.347656 -0.410156 0.328125 -0.421875 C 0.316406 -0.441406 0.300781 -0.453125 0.28125 -0.453125 C 0.25 -0.453125 0.226562 -0.441406 0.21875 -0.421875 C 0.207031 -0.410156 0.203125 -0.390625 0.203125 -0.359375 C 0.203125 -0.335938 0.207031 -0.316406 0.21875 -0.296875 C 0.226562 -0.285156 0.25 -0.28125 0.28125 -0.28125 Z M 0.28125 0.125 C 0.320312 0.125 0.351562 0.117188 0.375 0.109375 C 0.394531 0.0976562 0.40625 0.0820312 0.40625 0.0625 C 0.40625 0.0390625 0.398438 0.0234375 0.390625 0.015625 C 0.378906 0.015625 0.363281 0.015625 0.34375 0.015625 L 0.234375 0 C 0.234375 0 0.226562 0 0.21875 0 C 0.195312 0 0.179688 0.00390625 0.171875 0.015625 C 0.160156 0.0234375 0.15625 0.0390625 0.15625 0.0625 C 0.15625 0.0820312 0.164062 0.0976562 0.1875 0.109375 C 0.207031 0.117188 0.238281 0.125 0.28125 0.125 Z M 0.28125 0.125 "/></g></g></g></svg>