<svg xmlns="http://www.w3.org/2000/svg" xmlns:xlink="http://www.w3.org/1999/xlink" width="500" zoomAndPan="magnify" viewBox="0 0 375 374.999991" height="500" preserveAspectRatio="xMidYMid meet" version="1.0"><defs><g/><clipPath id="06dcc4846f"><path d="M 75.058594 75.058594 L 299.691406 75.058594 L 299.691406 299.734375 L 75.058594 299.734375 Z M 75.058594 75.058594 " clip-rule="nonzero"/></clipPath></defs><rect x="-37.5" width="450" fill="#ffffff" y="-37.499999" height="449.999989" fill-opacity="1"/><rect x="-37.5" width="450" fill="#ffffff" y="-37.499999" height="449.999989" fill-opacity="1"/><path fill="#5271ff" d="M 222.8125 127.664062 C 223.933594 128.164062 225.214844 128.164062 226.335938 127.664062 L 228.777344 145.175781 L 224.574219 150.15625 L 220.371094 145.175781 Z M 222.875 122.203125 L 225.855469 122.203125 L 227.015625 125.042969 C 227.136719 125.265625 227.136719 125.523438 227.015625 125.722656 L 226.816406 125.722656 C 225.753906 127.085938 223.792969 127.304688 222.433594 126.246094 C 222.253906 126.085938 222.074219 125.925781 221.933594 125.722656 C 221.8125 125.523438 221.8125 125.265625 221.933594 125.042969 Z M 217.269531 118.878906 C 211.96875 118.859375 207.324219 122.382812 205.886719 127.484375 C 203.164062 137.167969 202.242188 147.273438 203.183594 157.28125 C 203.421875 159.222656 205.203125 160.601562 207.144531 160.339844 C 208.988281 160.121094 210.328125 158.5 210.226562 156.640625 C 209.445312 148.074219 210.128906 139.449219 212.269531 131.125 C 212.347656 131.027344 212.507812 131.007812 212.609375 131.085938 C 212.628906 131.125 212.648438 131.148438 212.667969 131.1875 L 212.667969 142.792969 L 211.308594 143.753906 C 211.308594 144.253906 211.308594 144.753906 211.308594 145.253906 L 212.46875 144.433594 L 220.191406 156.058594 L 205.964844 165.925781 L 198.101562 154.320312 L 201.761719 151.835938 C 201.761719 151.355469 201.761719 150.898438 201.761719 150.417969 L 196.480469 154 L 205.566406 167.585938 L 212.75 162.664062 L 212.75 194.820312 C 212.789062 197.820312 215.25 200.222656 218.25 200.183594 C 221.191406 200.121094 223.554688 197.761719 223.59375 194.820312 L 223.59375 157.960938 C 223.59375 157.359375 224.074219 156.878906 224.675781 156.878906 C 225.292969 156.878906 225.773438 157.359375 225.773438 157.960938 L 225.773438 194.820312 C 225.957031 197.820312 228.535156 200.082031 231.519531 199.902344 C 234.257812 199.722656 236.421875 197.5625 236.601562 194.820312 L 236.601562 131.1875 C 236.621094 131.148438 236.640625 131.125 236.660156 131.105469 C 236.761719 131.046875 236.878906 131.066406 236.960938 131.148438 C 239.101562 139.472656 239.78125 148.09375 239 156.660156 C 238.839844 158.519531 240.140625 160.179688 241.984375 160.460938 L 241.984375 162.082031 L 239.542969 162.082031 C 238.902344 162.082031 238.382812 162.601562 238.382812 163.261719 L 238.382812 181.953125 C 238.382812 182.59375 238.902344 183.132812 239.542969 183.132812 L 246.183594 183.132812 C 246.824219 183.132812 247.347656 182.59375 247.347656 181.953125 L 247.347656 163.261719 C 247.347656 162.601562 246.824219 162.082031 246.183594 162.082031 L 243.746094 162.082031 L 243.746094 160.339844 C 245.042969 159.863281 245.925781 158.679688 246.046875 157.320312 C 246.984375 147.296875 246.066406 137.191406 243.34375 127.503906 C 241.921875 122.441406 237.339844 118.941406 232.078125 118.902344 L 217.269531 118.878906 " fill-opacity="1" fill-rule="nonzero"/><g clip-path="url(#06dcc4846f)"><path fill="#5271ff" d="M 224.375 85.921875 C 258.972656 85.804688 287.105469 113.757812 287.226562 148.355469 C 287.226562 148.976562 287.226562 149.574219 287.207031 150.195312 C 288.125 184.773438 260.851562 213.570312 226.253906 214.488281 C 191.675781 215.429688 162.882812 188.136719 161.960938 153.558594 C 161.921875 152.4375 161.921875 151.316406 161.960938 150.195312 C 161.0625 115.597656 188.375 86.84375 222.953125 85.945312 C 223.433594 85.921875 223.894531 85.921875 224.375 85.921875 Z M 220.914062 75.136719 C 179.472656 77.160156 147.515625 112.378906 149.515625 153.796875 C 150.15625 167.105469 154.339844 180.011719 161.601562 191.175781 C 162.140625 191.976562 162.0625 193.039062 161.402344 193.738281 L 141.492188 213.609375 L 139.191406 211.347656 C 136.75 208.925781 132.828125 208.925781 130.386719 211.347656 L 81.179688 260.632812 C 72.476562 270.136719 73.117188 284.886719 82.621094 293.609375 C 91.527344 301.773438 105.195312 301.773438 114.117188 293.628906 L 163.441406 244.34375 C 165.882812 241.902344 165.882812 237.960938 163.441406 235.519531 L 161.140625 233.257812 L 181.070312 213.410156 C 181.753906 212.707031 182.851562 212.589844 183.671875 213.128906 L 183.574219 213.128906 C 218.351562 235.761719 264.875 225.914062 287.507812 191.136719 C 310.136719 156.359375 300.273438 109.835938 265.515625 87.203125 C 252.269531 78.601562 236.660156 74.378906 220.890625 75.136719 L 220.914062 75.136719 " fill-opacity="1" fill-rule="nonzero"/></g><path fill="#5271ff" d="M 234.21875 106.472656 C 234.21875 101.152344 229.898438 96.847656 224.59375 96.847656 C 219.273438 96.847656 214.96875 101.152344 214.96875 106.472656 C 214.96875 111.777344 219.273438 116.097656 224.59375 116.097656 C 229.898438 116.097656 234.21875 111.777344 234.21875 106.472656 " fill-opacity="1" fill-rule="nonzero"/><path fill="#5271ff" d="M 211.1875 149.574219 L 215.25 155.339844 C 215.328125 155.597656 215.609375 155.738281 215.851562 155.660156 C 216.089844 155.578125 216.230469 155.300781 216.148438 155.058594 C 216.128906 154.980469 216.070312 154.898438 216.03125 154.839844 L 211.828125 149.097656 C 211.609375 148.996094 211.347656 149.097656 211.246094 149.296875 C 211.226562 149.394531 211.226562 149.496094 211.226562 149.574219 L 211.1875 149.574219 " fill-opacity="1" fill-rule="nonzero"/><path fill="#5271ff" d="M 213.207031 157.21875 L 211.167969 154.417969 C 211.167969 154.980469 211.167969 155.519531 211.167969 156.078125 L 212.308594 157.71875 C 212.367188 157.941406 212.609375 158.082031 212.847656 158.039062 C 213.070312 157.980469 213.207031 157.742188 213.148438 157.519531 C 213.128906 157.378906 213.027344 157.28125 212.910156 157.21875 L 213.207031 157.21875 " fill-opacity="1" fill-rule="nonzero"/><g fill="#000000" fill-opacity="1"><g transform="translate(331.363752, 358.267738)"><g><path d="M 0.3125 -0.71875 C 0.445312 -0.71875 0.546875 -0.6875 0.609375 -0.625 C 0.671875 -0.5625 0.703125 -0.472656 0.703125 -0.359375 C 0.703125 -0.242188 0.671875 -0.15625 0.609375 -0.09375 C 0.546875 -0.03125 0.453125 0 0.328125 0 L 0.15625 0 C 0.144531 0 0.132812 0 0.125 0 C 0.125 -0.0078125 0.117188 -0.015625 0.109375 -0.015625 C 0.109375 -0.0234375 0.109375 -0.0390625 0.109375 -0.0625 L 0.109375 -0.640625 L 0.015625 -0.640625 C 0.015625 -0.648438 0.015625 -0.664062 0.015625 -0.6875 C 0.015625 -0.695312 0.015625 -0.703125 0.015625 -0.703125 C 0.0234375 -0.710938 0.0351562 -0.71875 0.046875 -0.71875 Z M 0.3125 -0.078125 C 0.382812 -0.078125 0.441406 -0.0859375 0.484375 -0.109375 C 0.535156 -0.128906 0.566406 -0.160156 0.578125 -0.203125 C 0.597656 -0.242188 0.609375 -0.296875 0.609375 -0.359375 C 0.609375 -0.421875 0.597656 -0.472656 0.578125 -0.515625 C 0.566406 -0.554688 0.535156 -0.585938 0.484375 -0.609375 C 0.441406 -0.628906 0.382812 -0.640625 0.3125 -0.640625 L 0.1875 -0.640625 L 0.1875 -0.078125 Z M 0.3125 -0.078125 "/></g></g></g><g fill="#000000" fill-opacity="1"><g transform="translate(332.120017, 358.267738)"><g><path d="M 0.390625 -0.5 C 0.398438 -0.5 0.40625 -0.488281 0.40625 -0.46875 C 0.40625 -0.457031 0.398438 -0.441406 0.390625 -0.421875 C 0.367188 -0.441406 0.34375 -0.453125 0.3125 -0.453125 C 0.28125 -0.453125 0.253906 -0.441406 0.234375 -0.421875 C 0.210938 -0.410156 0.195312 -0.394531 0.1875 -0.375 L 0.1875 0 C 0.175781 0 0.164062 0 0.15625 0 C 0.132812 0 0.117188 0 0.109375 0 C 0.109375 0 0.101562 0 0.09375 0 C 0.09375 -0.0078125 0.09375 -0.0234375 0.09375 -0.046875 L 0.09375 -0.40625 C 0.09375 -0.414062 0.0859375 -0.425781 0.078125 -0.4375 C 0.078125 -0.445312 0.0703125 -0.453125 0.0625 -0.453125 C 0.0390625 -0.453125 0.0234375 -0.445312 0.015625 -0.4375 C 0.015625 -0.445312 0.015625 -0.457031 0.015625 -0.46875 C 0.015625 -0.488281 0.0195312 -0.503906 0.03125 -0.515625 C 0.0390625 -0.515625 0.0546875 -0.515625 0.078125 -0.515625 C 0.109375 -0.515625 0.128906 -0.507812 0.140625 -0.5 C 0.160156 -0.488281 0.171875 -0.472656 0.171875 -0.453125 C 0.191406 -0.472656 0.210938 -0.488281 0.234375 -0.5 C 0.265625 -0.507812 0.289062 -0.515625 0.3125 -0.515625 C 0.34375 -0.515625 0.367188 -0.507812 0.390625 -0.5 Z M 0.390625 -0.5 "/></g></g></g><g fill="#000000" fill-opacity="1"><g transform="translate(332.551168, 358.267738)"><g><path d="M 0.46875 -0.109375 C 0.488281 -0.0976562 0.5 -0.0859375 0.5 -0.078125 C 0.5 -0.0546875 0.492188 -0.0390625 0.484375 -0.03125 C 0.460938 -0.0195312 0.4375 -0.0078125 0.40625 0 C 0.375 0.0078125 0.335938 0.015625 0.296875 0.015625 C 0.242188 0.015625 0.195312 0.00390625 0.15625 -0.015625 C 0.125 -0.0351562 0.0976562 -0.0664062 0.078125 -0.109375 C 0.0546875 -0.148438 0.046875 -0.195312 0.046875 -0.25 C 0.046875 -0.3125 0.0546875 -0.363281 0.078125 -0.40625 C 0.109375 -0.445312 0.140625 -0.476562 0.171875 -0.5 C 0.210938 -0.519531 0.257812 -0.53125 0.3125 -0.53125 C 0.351562 -0.53125 0.390625 -0.519531 0.421875 -0.5 C 0.453125 -0.488281 0.472656 -0.472656 0.484375 -0.453125 C 0.503906 -0.429688 0.515625 -0.398438 0.515625 -0.359375 C 0.515625 -0.316406 0.492188 -0.28125 0.453125 -0.25 C 0.410156 -0.226562 0.351562 -0.21875 0.28125 -0.21875 C 0.226562 -0.21875 0.175781 -0.222656 0.125 -0.234375 C 0.132812 -0.171875 0.15625 -0.125 0.1875 -0.09375 C 0.21875 -0.0703125 0.257812 -0.0625 0.3125 -0.0625 C 0.34375 -0.0625 0.367188 -0.0664062 0.390625 -0.078125 C 0.421875 -0.0859375 0.445312 -0.0976562 0.46875 -0.109375 Z M 0.3125 -0.453125 C 0.28125 -0.453125 0.25 -0.445312 0.21875 -0.4375 C 0.195312 -0.425781 0.175781 -0.40625 0.15625 -0.375 C 0.144531 -0.351562 0.132812 -0.328125 0.125 -0.296875 C 0.175781 -0.285156 0.226562 -0.28125 0.28125 -0.28125 C 0.332031 -0.28125 0.367188 -0.285156 0.390625 -0.296875 C 0.421875 -0.304688 0.4375 -0.332031 0.4375 -0.375 C 0.4375 -0.382812 0.425781 -0.394531 0.40625 -0.40625 C 0.394531 -0.425781 0.378906 -0.4375 0.359375 -0.4375 C 0.347656 -0.445312 0.332031 -0.453125 0.3125 -0.453125 Z M 0.3125 -0.453125 "/></g></g></g><g fill="#000000" fill-opacity="1"><g transform="translate(333.122368, 358.267738)"><g><path d="M 0.609375 -0.0625 C 0.609375 -0.0625 0.609375 -0.0507812 0.609375 -0.03125 C 0.609375 -0.0195312 0.609375 -0.0078125 0.609375 0 C 0.585938 0.0078125 0.566406 0.015625 0.546875 0.015625 C 0.515625 0.015625 0.492188 0.0078125 0.484375 0 C 0.472656 -0.0078125 0.460938 -0.0234375 0.453125 -0.046875 C 0.429688 -0.0234375 0.40625 -0.0078125 0.375 0 C 0.351562 0.0078125 0.320312 0.015625 0.28125 0.015625 C 0.238281 0.015625 0.195312 0.00390625 0.15625 -0.015625 C 0.125 -0.0351562 0.0976562 -0.0664062 0.078125 -0.109375 C 0.0546875 -0.148438 0.046875 -0.195312 0.046875 -0.25 C 0.046875 -0.3125 0.0546875 -0.363281 0.078125 -0.40625 C 0.0976562 -0.445312 0.125 -0.476562 0.15625 -0.5 C 0.195312 -0.519531 0.242188 -0.53125 0.296875 -0.53125 C 0.328125 -0.53125 0.351562 -0.523438 0.375 -0.515625 C 0.40625 -0.503906 0.425781 -0.488281 0.4375 -0.46875 C 0.4375 -0.488281 0.441406 -0.5 0.453125 -0.5 C 0.460938 -0.507812 0.476562 -0.515625 0.5 -0.515625 C 0.507812 -0.515625 0.519531 -0.515625 0.53125 -0.515625 L 0.53125 -0.109375 C 0.53125 -0.0859375 0.53125 -0.0703125 0.53125 -0.0625 C 0.539062 -0.0625 0.550781 -0.0625 0.5625 -0.0625 C 0.582031 -0.0625 0.597656 -0.0625 0.609375 -0.0625 Z M 0.296875 -0.0625 C 0.328125 -0.0625 0.351562 -0.0664062 0.375 -0.078125 C 0.40625 -0.0859375 0.425781 -0.101562 0.4375 -0.125 L 0.4375 -0.390625 C 0.425781 -0.410156 0.40625 -0.425781 0.375 -0.4375 C 0.351562 -0.445312 0.328125 -0.453125 0.296875 -0.453125 C 0.265625 -0.453125 0.234375 -0.441406 0.203125 -0.421875 C 0.179688 -0.410156 0.164062 -0.390625 0.15625 -0.359375 C 0.144531 -0.328125 0.140625 -0.289062 0.140625 -0.25 C 0.140625 -0.21875 0.144531 -0.1875 0.15625 -0.15625 C 0.164062 -0.125 0.179688 -0.0976562 0.203125 -0.078125 C 0.234375 -0.0664062 0.265625 -0.0625 0.296875 -0.0625 Z M 0.296875 -0.0625 "/></g></g></g><g fill="#000000" fill-opacity="1"><g transform="translate(333.748588, 358.267738)"><g><path d="M 0.984375 -0.0625 C 0.984375 -0.0625 0.984375 -0.0507812 0.984375 -0.03125 C 0.984375 -0.0195312 0.976562 -0.0078125 0.96875 0 C 0.957031 0.0078125 0.9375 0.015625 0.90625 0.015625 C 0.875 0.015625 0.847656 0.00390625 0.828125 -0.015625 C 0.816406 -0.0351562 0.8125 -0.0664062 0.8125 -0.109375 L 0.8125 -0.3125 C 0.8125 -0.363281 0.800781 -0.398438 0.78125 -0.421875 C 0.757812 -0.441406 0.726562 -0.453125 0.6875 -0.453125 C 0.65625 -0.453125 0.625 -0.445312 0.59375 -0.4375 C 0.570312 -0.425781 0.550781 -0.410156 0.53125 -0.390625 C 0.53125 -0.367188 0.53125 -0.34375 0.53125 -0.3125 L 0.53125 0 C 0.53125 0 0.519531 0 0.5 0 C 0.488281 0 0.476562 0 0.46875 0 C 0.46875 0 0.460938 0 0.453125 0 C 0.453125 -0.0078125 0.453125 -0.0234375 0.453125 -0.046875 L 0.453125 -0.3125 C 0.453125 -0.363281 0.441406 -0.398438 0.421875 -0.421875 C 0.398438 -0.441406 0.367188 -0.453125 0.328125 -0.453125 C 0.296875 -0.453125 0.265625 -0.445312 0.234375 -0.4375 C 0.210938 -0.425781 0.195312 -0.410156 0.1875 -0.390625 L 0.1875 0 C 0.175781 0 0.164062 0 0.15625 0 C 0.132812 0 0.117188 0 0.109375 0 C 0.109375 0 0.101562 0 0.09375 0 C 0.09375 -0.0078125 0.09375 -0.0234375 0.09375 -0.046875 L 0.09375 -0.40625 C 0.09375 -0.414062 0.0859375 -0.425781 0.078125 -0.4375 C 0.078125 -0.445312 0.0703125 -0.453125 0.0625 -0.453125 C 0.0390625 -0.453125 0.0234375 -0.445312 0.015625 -0.4375 C 0.015625 -0.445312 0.015625 -0.457031 0.015625 -0.46875 C 0.015625 -0.488281 0.0195312 -0.503906 0.03125 -0.515625 C 0.0390625 -0.515625 0.0546875 -0.515625 0.078125 -0.515625 C 0.109375 -0.515625 0.128906 -0.507812 0.140625 -0.5 C 0.160156 -0.488281 0.171875 -0.472656 0.171875 -0.453125 C 0.191406 -0.472656 0.21875 -0.488281 0.25 -0.5 C 0.28125 -0.519531 0.3125 -0.53125 0.34375 -0.53125 C 0.425781 -0.53125 0.484375 -0.503906 0.515625 -0.453125 C 0.535156 -0.472656 0.5625 -0.488281 0.59375 -0.5 C 0.625 -0.519531 0.660156 -0.53125 0.703125 -0.53125 C 0.765625 -0.53125 0.8125 -0.507812 0.84375 -0.46875 C 0.875 -0.4375 0.890625 -0.382812 0.890625 -0.3125 L 0.890625 -0.109375 C 0.890625 -0.0859375 0.890625 -0.0703125 0.890625 -0.0625 C 0.898438 -0.0625 0.914062 -0.0625 0.9375 -0.0625 C 0.945312 -0.0625 0.960938 -0.0625 0.984375 -0.0625 Z M 0.984375 -0.0625 "/></g></g></g><g fill="#000000" fill-opacity="1"><g transform="translate(334.736933, 358.267738)"><g><path d="M 0.578125 -0.078125 C 0.585938 -0.0664062 0.59375 -0.0546875 0.59375 -0.046875 C 0.59375 -0.0234375 0.585938 -0.0078125 0.578125 0 C 0.578125 0 0.566406 0 0.546875 0 L 0.15625 0 C 0.144531 0 0.132812 0 0.125 0 C 0.125 -0.0078125 0.117188 -0.015625 0.109375 -0.015625 C 0.109375 -0.0234375 0.109375 -0.0390625 0.109375 -0.0625 L 0.109375 -0.640625 L 0.015625 -0.640625 C 0.015625 -0.648438 0.015625 -0.65625 0.015625 -0.65625 C 0.015625 -0.664062 0.015625 -0.675781 0.015625 -0.6875 C 0.015625 -0.695312 0.015625 -0.703125 0.015625 -0.703125 C 0.0234375 -0.710938 0.0351562 -0.71875 0.046875 -0.71875 L 0.5625 -0.71875 C 0.5625 -0.707031 0.5625 -0.695312 0.5625 -0.6875 C 0.5625 -0.664062 0.554688 -0.648438 0.546875 -0.640625 C 0.546875 -0.640625 0.539062 -0.640625 0.53125 -0.640625 L 0.1875 -0.640625 L 0.1875 -0.40625 L 0.46875 -0.40625 C 0.46875 -0.394531 0.46875 -0.382812 0.46875 -0.375 C 0.46875 -0.363281 0.460938 -0.351562 0.453125 -0.34375 C 0.453125 -0.34375 0.445312 -0.34375 0.4375 -0.34375 L 0.1875 -0.34375 L 0.1875 -0.078125 Z M 0.578125 -0.078125 "/></g></g></g><g fill="#000000" fill-opacity="1"><g transform="translate(335.370155, 358.267738)"><g><path d="M 0.34375 -0.53125 C 0.382812 -0.53125 0.421875 -0.519531 0.453125 -0.5 C 0.492188 -0.476562 0.523438 -0.445312 0.546875 -0.40625 C 0.566406 -0.363281 0.578125 -0.316406 0.578125 -0.265625 C 0.578125 -0.203125 0.566406 -0.148438 0.546875 -0.109375 C 0.523438 -0.0664062 0.492188 -0.0351562 0.453125 -0.015625 C 0.421875 0.00390625 0.378906 0.015625 0.328125 0.015625 C 0.304688 0.015625 0.28125 0.0078125 0.25 0 C 0.226562 -0.0078125 0.207031 -0.0234375 0.1875 -0.046875 L 0.1875 0.1875 C 0.175781 0.1875 0.164062 0.1875 0.15625 0.1875 C 0.132812 0.1875 0.117188 0.179688 0.109375 0.171875 C 0.109375 0.171875 0.101562 0.164062 0.09375 0.15625 C 0.09375 0.15625 0.09375 0.148438 0.09375 0.140625 L 0.09375 -0.40625 C 0.09375 -0.414062 0.0859375 -0.425781 0.078125 -0.4375 C 0.078125 -0.445312 0.0703125 -0.453125 0.0625 -0.453125 C 0.0390625 -0.453125 0.0234375 -0.445312 0.015625 -0.4375 C 0.015625 -0.445312 0.015625 -0.457031 0.015625 -0.46875 C 0.015625 -0.488281 0.0195312 -0.503906 0.03125 -0.515625 C 0.0390625 -0.515625 0.0546875 -0.515625 0.078125 -0.515625 C 0.109375 -0.515625 0.128906 -0.507812 0.140625 -0.5 C 0.148438 -0.5 0.160156 -0.488281 0.171875 -0.46875 C 0.191406 -0.488281 0.210938 -0.503906 0.234375 -0.515625 C 0.265625 -0.523438 0.300781 -0.53125 0.34375 -0.53125 Z M 0.328125 -0.0625 C 0.359375 -0.0625 0.382812 -0.0664062 0.40625 -0.078125 C 0.4375 -0.0976562 0.457031 -0.125 0.46875 -0.15625 C 0.476562 -0.1875 0.484375 -0.21875 0.484375 -0.25 C 0.484375 -0.289062 0.476562 -0.328125 0.46875 -0.359375 C 0.457031 -0.390625 0.4375 -0.410156 0.40625 -0.421875 C 0.382812 -0.441406 0.359375 -0.453125 0.328125 -0.453125 C 0.296875 -0.453125 0.265625 -0.445312 0.234375 -0.4375 C 0.210938 -0.425781 0.195312 -0.410156 0.1875 -0.390625 L 0.1875 -0.125 C 0.195312 -0.101562 0.210938 -0.0859375 0.234375 -0.078125 C 0.265625 -0.0664062 0.296875 -0.0625 0.328125 -0.0625 Z M 0.328125 -0.0625 "/></g></g></g><g fill="#000000" fill-opacity="1"><g transform="translate(335.996375, 358.267738)"><g><path d="M 0.140625 -0.140625 C 0.140625 -0.109375 0.144531 -0.0859375 0.15625 -0.078125 C 0.164062 -0.0664062 0.179688 -0.0625 0.203125 -0.0625 C 0.222656 -0.0625 0.238281 -0.0625 0.25 -0.0625 C 0.269531 -0.0703125 0.285156 -0.0820312 0.296875 -0.09375 C 0.304688 -0.0703125 0.3125 -0.0546875 0.3125 -0.046875 C 0.3125 -0.0351562 0.304688 -0.0234375 0.296875 -0.015625 C 0.296875 -0.015625 0.289062 -0.0078125 0.28125 0 C 0.257812 0.0078125 0.226562 0.015625 0.1875 0.015625 C 0.144531 0.015625 0.113281 0.00390625 0.09375 -0.015625 C 0.0703125 -0.046875 0.0625 -0.0859375 0.0625 -0.140625 L 0.0625 -0.734375 C 0.0703125 -0.734375 0.0820312 -0.734375 0.09375 -0.734375 C 0.101562 -0.734375 0.113281 -0.726562 0.125 -0.71875 C 0.132812 -0.71875 0.140625 -0.710938 0.140625 -0.703125 C 0.140625 -0.703125 0.140625 -0.695312 0.140625 -0.6875 Z M 0.140625 -0.140625 "/></g></g></g><g fill="#000000" fill-opacity="1"><g transform="translate(336.311485, 358.267738)"><g><path d="M 0.3125 0.015625 C 0.257812 0.015625 0.210938 0.00390625 0.171875 -0.015625 C 0.128906 -0.0351562 0.0976562 -0.0664062 0.078125 -0.109375 C 0.0546875 -0.148438 0.046875 -0.203125 0.046875 -0.265625 C 0.046875 -0.316406 0.0546875 -0.363281 0.078125 -0.40625 C 0.0976562 -0.445312 0.128906 -0.476562 0.171875 -0.5 C 0.210938 -0.519531 0.253906 -0.53125 0.296875 -0.53125 C 0.359375 -0.53125 0.40625 -0.519531 0.4375 -0.5 C 0.476562 -0.476562 0.507812 -0.445312 0.53125 -0.40625 C 0.550781 -0.363281 0.5625 -0.3125 0.5625 -0.25 C 0.5625 -0.195312 0.550781 -0.148438 0.53125 -0.109375 C 0.507812 -0.0664062 0.476562 -0.0351562 0.4375 -0.015625 C 0.394531 0.00390625 0.351562 0.015625 0.3125 0.015625 Z M 0.3125 -0.0625 C 0.34375 -0.0625 0.367188 -0.0664062 0.390625 -0.078125 C 0.421875 -0.0859375 0.441406 -0.109375 0.453125 -0.140625 C 0.472656 -0.171875 0.484375 -0.207031 0.484375 -0.25 C 0.484375 -0.300781 0.472656 -0.335938 0.453125 -0.359375 C 0.441406 -0.390625 0.421875 -0.410156 0.390625 -0.421875 C 0.367188 -0.441406 0.335938 -0.453125 0.296875 -0.453125 C 0.265625 -0.453125 0.234375 -0.441406 0.203125 -0.421875 C 0.179688 -0.410156 0.164062 -0.390625 0.15625 -0.359375 C 0.144531 -0.335938 0.140625 -0.304688 0.140625 -0.265625 C 0.140625 -0.210938 0.144531 -0.171875 0.15625 -0.140625 C 0.164062 -0.109375 0.179688 -0.0859375 0.203125 -0.078125 C 0.234375 -0.0664062 0.269531 -0.0625 0.3125 -0.0625 Z M 0.3125 -0.0625 "/></g></g></g><g fill="#000000" fill-opacity="1"><g transform="translate(336.922699, 358.267738)"><g><path d="M 0.453125 -0.515625 C 0.460938 -0.515625 0.472656 -0.515625 0.484375 -0.515625 C 0.492188 -0.515625 0.5 -0.507812 0.5 -0.5 C 0.5 -0.5 0.5 -0.488281 0.5 -0.46875 L 0.5 -0.0625 C 0.5 0.0195312 0.476562 0.0820312 0.4375 0.125 C 0.40625 0.164062 0.347656 0.1875 0.265625 0.1875 C 0.222656 0.1875 0.1875 0.179688 0.15625 0.171875 C 0.125 0.160156 0.101562 0.148438 0.09375 0.140625 C 0.0703125 0.128906 0.0625 0.117188 0.0625 0.109375 C 0.0625 0.0859375 0.0703125 0.0703125 0.09375 0.0625 C 0.113281 0.0703125 0.140625 0.0820312 0.171875 0.09375 C 0.203125 0.101562 0.234375 0.109375 0.265625 0.109375 C 0.316406 0.109375 0.351562 0.09375 0.375 0.0625 C 0.40625 0.0390625 0.421875 0 0.421875 -0.0625 C 0.398438 -0.0390625 0.375 -0.0234375 0.34375 -0.015625 C 0.320312 -0.00390625 0.296875 0 0.265625 0 C 0.203125 0 0.148438 -0.015625 0.109375 -0.046875 C 0.078125 -0.0859375 0.0625 -0.144531 0.0625 -0.21875 L 0.0625 -0.515625 L 0.09375 -0.515625 C 0.113281 -0.515625 0.125 -0.507812 0.125 -0.5 C 0.132812 -0.5 0.140625 -0.488281 0.140625 -0.46875 L 0.140625 -0.21875 C 0.140625 -0.164062 0.148438 -0.128906 0.171875 -0.109375 C 0.203125 -0.0859375 0.238281 -0.078125 0.28125 -0.078125 C 0.3125 -0.078125 0.335938 -0.0820312 0.359375 -0.09375 C 0.378906 -0.101562 0.398438 -0.117188 0.421875 -0.140625 L 0.421875 -0.515625 Z M 0.453125 -0.515625 "/></g></g></g></svg>