<svg xmlns="http://www.w3.org/2000/svg" xmlns:xlink="http://www.w3.org/1999/xlink" width="1122" zoomAndPan="magnify" viewBox="0 0 841.92 595.499987" height="793" preserveAspectRatio="xMidYMid meet" version="1.0"><defs><g/><clipPath id="3961ba86ef"><path d="M 0.3125 0 L 841.527344 0 L 841.527344 595 L 0.3125 595 Z M 0.3125 0 " clip-rule="nonzero"/></clipPath><clipPath id="137d994209"><path d="M 161.011719 14.511719 L 680 14.511719 L 680 580 L 161.011719 580 Z M 161.011719 14.511719 " clip-rule="nonzero"/></clipPath></defs><g clip-path="url(#3961ba86ef)"><path fill="#ffffff" d="M 0.3125 0 L 841.855469 0 L 841.855469 595 L 0.3125 595 Z M 0.3125 0 " fill-opacity="1" fill-rule="nonzero"/><path fill="#ffffff" d="M 0.3125 0 L 841.855469 0 L 841.855469 595 L 0.3125 595 Z M 0.3125 0 " fill-opacity="1" fill-rule="nonzero"/></g><g clip-path="url(#137d994209)"><path fill="#5271ff" d="M 544.414062 466.566406 C 524.679688 483.480469 499.035156 493.695312 471 493.695312 C 408.65625 493.695312 358.125 443.164062 358.125 380.820312 C 358.125 318.476562 408.65625 267.945312 471 267.945312 C 533.34375 267.945312 583.875 318.476562 583.875 380.820312 C 583.875 404.859375 576.359375 427.144531 563.554688 445.449219 L 598.800781 479.96875 L 600.152344 478.574219 C 604.066406 474.53125 610.617188 474.433594 614.660156 478.351562 L 676.652344 538.511719 C 680.699219 542.429688 680.792969 548.945312 676.847656 553.023438 L 654.46875 576.070312 C 650.550781 580.117188 644.035156 580.214844 639.957031 576.296875 L 578 516.136719 C 573.921875 512.21875 573.824219 505.671875 577.773438 501.625 L 578.96875 500.394531 Z M 471 294.269531 C 423.199219 294.269531 384.449219 333.019531 384.449219 380.820312 C 384.449219 428.621094 423.199219 467.371094 471 467.371094 C 518.800781 467.371094 557.550781 428.621094 557.550781 380.820312 C 557.550781 333.019531 518.800781 294.269531 471 294.269531 Z M 471 404.597656 C 465.976562 404.597656 461.867188 400.628906 461.6875 395.605469 L 459.316406 330.328125 C 459.238281 327.695312 460.113281 325.402344 461.929688 323.507812 C 463.761719 321.613281 466.015625 320.65625 468.648438 320.65625 L 473.351562 320.65625 C 475.984375 320.65625 478.257812 321.613281 480.070312 323.507812 C 481.90625 325.402344 482.78125 327.695312 482.683594 330.328125 L 480.332031 395.605469 C 480.152344 400.628906 476.023438 404.597656 471 404.597656 Z M 471 440.984375 C 464.417969 440.984375 459.058594 435.621094 459.058594 429.039062 C 459.058594 422.460938 464.417969 417.097656 471 417.097656 C 477.578125 417.097656 482.941406 422.460938 482.941406 429.039062 C 482.941406 435.621094 477.578125 440.984375 471 440.984375 Z M 339.796875 386.171875 C 340.21875 396.777344 341.902344 407.058594 344.699219 416.871094 L 193.921875 416.871094 L 193.921875 119.667969 L 229.65625 119.667969 L 229.65625 120.980469 C 229.65625 131.160156 237.910156 139.414062 248.09375 139.414062 L 352.613281 139.414062 C 354.679688 142.976562 357.925781 145.828125 361.941406 147.375 L 370.304688 150.59375 C 371.75 154.824219 373.464844 158.957031 375.4375 162.96875 C 375.4375 162.96875 375.289062 163.304688 375.046875 163.84375 L 321.160156 163.84375 C 316.074219 163.84375 311.941406 167.976562 311.941406 173.0625 C 311.941406 178.148438 316.074219 182.28125 321.160156 182.28125 L 370.578125 182.28125 C 371.277344 185.761719 372.984375 189.042969 375.613281 191.671875 L 395.085938 211.144531 C 400.476562 216.53125 408.621094 218.050781 415.589844 214.964844 L 423.792969 211.332031 C 427.816406 213.304688 431.957031 215.023438 436.199219 216.472656 C 436.199219 216.472656 439.410156 224.816406 439.410156 224.816406 C 439.722656 225.628906 440.089844 226.410156 440.503906 227.15625 L 440.503906 253.066406 C 396.113281 263.621094 360.453125 296.714844 346.289062 339.589844 L 321.160156 339.589844 C 316.074219 339.589844 311.941406 343.722656 311.941406 348.808594 C 311.941406 353.894531 316.074219 358.027344 321.160156 358.027344 L 341.660156 358.027344 C 341.097656 361.226562 340.65625 364.460938 340.332031 367.738281 L 321.160156 367.738281 C 316.074219 367.738281 311.941406 371.867188 311.941406 376.957031 C 311.941406 382.042969 316.074219 386.171875 321.160156 386.171875 Z M 321.160156 298.042969 L 358.09375 298.042969 C 363.183594 298.042969 367.3125 293.914062 367.3125 288.828125 C 367.3125 283.738281 363.183594 279.609375 358.09375 279.609375 L 321.160156 279.609375 C 316.074219 279.609375 311.941406 283.738281 311.941406 288.828125 C 311.941406 293.914062 316.074219 298.042969 321.160156 298.042969 Z M 321.160156 269.898438 L 395.03125 269.898438 C 400.117188 269.898438 404.246094 265.765625 404.246094 260.679688 C 404.246094 255.589844 400.117188 251.460938 395.03125 251.460938 L 321.160156 251.460938 C 316.074219 251.460938 311.941406 255.589844 311.941406 260.679688 C 311.941406 265.765625 316.074219 269.898438 321.160156 269.898438 Z M 321.160156 210.425781 L 358.09375 210.425781 C 363.183594 210.425781 367.3125 206.296875 367.3125 201.207031 C 367.3125 196.121094 363.183594 191.992188 358.09375 191.992188 L 321.160156 191.992188 C 316.074219 191.992188 311.941406 196.121094 311.941406 201.207031 C 311.941406 206.296875 316.074219 210.425781 321.160156 210.425781 Z M 236.378906 161.140625 C 230.703125 161.140625 226.058594 165.785156 226.058594 171.484375 L 226.058594 202.8125 C 226.058594 208.488281 230.703125 213.152344 236.378906 213.152344 L 267.707031 213.152344 C 273.402344 213.152344 278.046875 208.488281 278.046875 202.8125 L 278.046875 171.484375 C 278.046875 165.785156 273.402344 161.140625 267.707031 161.140625 Z M 236.378906 336.886719 C 230.703125 336.886719 226.058594 341.53125 226.058594 347.207031 L 226.058594 378.535156 C 226.058594 384.230469 230.703125 388.878906 236.378906 388.878906 L 267.707031 388.878906 C 273.402344 388.878906 278.046875 384.230469 278.046875 378.535156 L 278.046875 347.207031 C 278.046875 341.53125 273.402344 336.886719 267.707031 336.886719 Z M 236.378906 249.011719 C 230.703125 249.011719 226.058594 253.660156 226.058594 259.355469 L 226.058594 290.683594 C 226.058594 296.359375 230.703125 301.003906 236.378906 301.003906 L 267.707031 301.003906 C 273.402344 301.003906 278.046875 296.359375 278.046875 290.683594 L 278.046875 259.355469 C 278.046875 253.660156 273.402344 249.011719 267.707031 249.011719 Z M 350.128906 120.980469 L 248.09375 120.980469 L 248.09375 74.296875 L 287.542969 74.296875 C 290.769531 60.910156 302.832031 50.957031 317.203125 50.957031 C 331.59375 50.957031 343.65625 60.910156 346.882812 74.296875 L 373.359375 74.296875 C 372.234375 76.886719 371.210938 79.523438 370.296875 82.199219 C 370.296875 82.199219 361.941406 85.414062 361.941406 85.414062 C 354.824219 88.152344 350.128906 94.992188 350.128906 102.621094 Z M 317.203125 84.046875 C 321.664062 84.046875 325.28125 80.429688 325.28125 75.992188 C 325.28125 71.527344 321.664062 67.914062 317.203125 67.914062 C 312.761719 67.914062 309.148438 71.527344 309.148438 75.992188 C 309.148438 80.429688 312.761719 84.046875 317.203125 84.046875 Z M 490.65625 31.460938 C 499.644531 33.597656 508.21875 37.148438 516.097656 42.003906 L 532.628906 34.652344 L 552.105469 54.125 L 544.78125 70.660156 C 549.636719 78.539062 553.1875 87.113281 555.324219 96.128906 L 572.191406 102.621094 L 572.191406 130.167969 L 555.324219 136.660156 C 553.1875 145.648438 549.609375 154.222656 544.78125 162.097656 L 552.105469 178.632812 L 532.628906 198.109375 L 516.097656 190.785156 C 508.246094 195.640625 499.644531 199.191406 490.65625 201.328125 L 484.164062 218.195312 L 456.617188 218.195312 L 450.125 201.328125 C 441.109375 199.191406 432.535156 195.613281 424.65625 190.785156 L 408.125 198.109375 L 388.648438 178.632812 L 396 162.097656 C 391.144531 154.25 387.59375 145.648438 385.429688 136.660156 L 368.5625 130.167969 L 368.5625 102.621094 L 385.429688 96.128906 C 387.59375 87.113281 391.144531 78.539062 396 70.660156 L 388.648438 54.125 L 408.125 34.652344 L 424.65625 42.003906 C 432.535156 37.148438 441.109375 33.597656 450.097656 31.460938 L 456.617188 14.566406 L 484.164062 14.566406 Z M 470.375 68.332031 C 443.828125 68.332031 422.328125 89.832031 422.328125 116.378906 C 422.328125 142.929688 443.828125 164.457031 470.375 164.457031 C 496.925781 164.457031 518.453125 142.929688 518.453125 116.378906 C 518.453125 89.832031 496.925781 68.332031 470.375 68.332031 Z M 360.230469 451.371094 L 178.984375 451.371094 C 169.101562 451.371094 161.019531 443.316406 161.019531 433.433594 L 161.019531 103.109375 C 161.019531 93.222656 169.101562 85.144531 178.984375 85.144531 L 229.65625 85.144531 L 229.65625 101.230469 L 193.921875 101.230469 C 183.742188 101.230469 175.484375 109.488281 175.484375 119.667969 L 175.484375 416.871094 C 175.484375 427.054688 183.742188 435.304688 193.921875 435.304688 L 351.488281 435.304688 C 354.035156 440.882812 356.960938 446.25 360.230469 451.371094 Z M 458.941406 250.054688 L 458.941406 236.628906 L 473.40625 236.628906 L 473.40625 249.53125 C 472.605469 249.515625 471.804688 249.507812 471 249.507812 C 466.933594 249.507812 462.914062 249.691406 458.941406 250.054688 Z M 458.941406 250.054688 " fill-opacity="1" fill-rule="evenodd"/></g><g fill="#000000" fill-opacity="1"><g transform="translate(117.677413, 0.899809)"><g><path d="M 0.6875 0 L 0.53125 0 L 0.484375 -0.171875 L 0.203125 -0.171875 L 0.15625 0 L 0.015625 0 L 0.25 -0.71875 L 0.4375 -0.71875 Z M 0.34375 -0.5625 L 0.25 -0.28125 L 0.4375 -0.28125 L 0.359375 -0.5625 Z M 0.34375 -0.5625 "/></g></g><g transform="translate(118.373066, 0.899809)"><g><path d="M 0.265625 0.015625 C 0.222656 0.015625 0.1875 0.00390625 0.15625 -0.015625 C 0.125 -0.0351562 0.0976562 -0.0664062 0.078125 -0.109375 C 0.0546875 -0.148438 0.046875 -0.203125 0.046875 -0.265625 C 0.046875 -0.328125 0.0546875 -0.378906 0.078125 -0.421875 C 0.0976562 -0.460938 0.125 -0.492188 0.15625 -0.515625 C 0.1875 -0.535156 0.222656 -0.546875 0.265625 -0.546875 C 0.304688 -0.546875 0.335938 -0.539062 0.359375 -0.53125 C 0.378906 -0.519531 0.398438 -0.503906 0.421875 -0.484375 L 0.4375 -0.484375 L 0.4375 -0.75 L 0.5625 -0.75 L 0.5625 0 L 0.4375 0 L 0.4375 -0.0625 L 0.421875 -0.078125 C 0.410156 -0.046875 0.390625 -0.0195312 0.359375 0 C 0.335938 0.0078125 0.304688 0.015625 0.265625 0.015625 Z M 0.3125 -0.109375 C 0.351562 -0.109375 0.382812 -0.117188 0.40625 -0.140625 C 0.425781 -0.171875 0.4375 -0.210938 0.4375 -0.265625 C 0.4375 -0.328125 0.425781 -0.367188 0.40625 -0.390625 C 0.382812 -0.421875 0.351562 -0.4375 0.3125 -0.4375 C 0.269531 -0.4375 0.238281 -0.421875 0.21875 -0.390625 C 0.195312 -0.367188 0.1875 -0.328125 0.1875 -0.265625 C 0.1875 -0.210938 0.195312 -0.171875 0.21875 -0.140625 C 0.238281 -0.117188 0.269531 -0.109375 0.3125 -0.109375 Z M 0.3125 -0.109375 "/></g></g><g transform="translate(119.018437, 0.899809)"><g><path d="M 0.265625 0.015625 C 0.222656 0.015625 0.1875 0.00390625 0.15625 -0.015625 C 0.125 -0.0351562 0.0976562 -0.0664062 0.078125 -0.109375 C 0.0546875 -0.148438 0.046875 -0.203125 0.046875 -0.265625 C 0.046875 -0.328125 0.0546875 -0.378906 0.078125 -0.421875 C 0.0976562 -0.460938 0.125 -0.492188 0.15625 -0.515625 C 0.1875 -0.535156 0.222656 -0.546875 0.265625 -0.546875 C 0.304688 -0.546875 0.335938 -0.539062 0.359375 -0.53125 C 0.378906 -0.519531 0.398438 -0.503906 0.421875 -0.484375 L 0.4375 -0.484375 L 0.4375 -0.75 L 0.5625 -0.75 L 0.5625 0 L 0.4375 0 L 0.4375 -0.0625 L 0.421875 -0.078125 C 0.410156 -0.046875 0.390625 -0.0195312 0.359375 0 C 0.335938 0.0078125 0.304688 0.015625 0.265625 0.015625 Z M 0.3125 -0.109375 C 0.351562 -0.109375 0.382812 -0.117188 0.40625 -0.140625 C 0.425781 -0.171875 0.4375 -0.210938 0.4375 -0.265625 C 0.4375 -0.328125 0.425781 -0.367188 0.40625 -0.390625 C 0.382812 -0.421875 0.351562 -0.4375 0.3125 -0.4375 C 0.269531 -0.4375 0.238281 -0.421875 0.21875 -0.390625 C 0.195312 -0.367188 0.1875 -0.328125 0.1875 -0.265625 C 0.1875 -0.210938 0.195312 -0.171875 0.21875 -0.140625 C 0.238281 -0.117188 0.269531 -0.109375 0.3125 -0.109375 Z M 0.3125 -0.109375 "/></g></g><g transform="translate(119.663808, 0.899809)"><g/></g><g transform="translate(119.899598, 0.899809)"><g><path d="M 0.203125 0.015625 C 0.171875 0.015625 0.140625 0.0078125 0.109375 0 C 0.0859375 -0.0195312 0.0703125 -0.0390625 0.0625 -0.0625 C 0.0507812 -0.09375 0.046875 -0.125 0.046875 -0.15625 C 0.046875 -0.1875 0.0507812 -0.210938 0.0625 -0.234375 C 0.0703125 -0.253906 0.09375 -0.269531 0.125 -0.28125 C 0.15625 -0.300781 0.191406 -0.3125 0.234375 -0.3125 C 0.265625 -0.320312 0.289062 -0.328125 0.3125 -0.328125 C 0.332031 -0.335938 0.34375 -0.347656 0.34375 -0.359375 C 0.351562 -0.367188 0.359375 -0.378906 0.359375 -0.390625 C 0.359375 -0.398438 0.347656 -0.410156 0.328125 -0.421875 C 0.316406 -0.429688 0.300781 -0.4375 0.28125 -0.4375 C 0.25 -0.4375 0.21875 -0.429688 0.1875 -0.421875 C 0.164062 -0.410156 0.144531 -0.394531 0.125 -0.375 L 0.109375 -0.375 L 0.046875 -0.453125 C 0.078125 -0.484375 0.113281 -0.503906 0.15625 -0.515625 C 0.195312 -0.535156 0.238281 -0.546875 0.28125 -0.546875 C 0.351562 -0.546875 0.40625 -0.53125 0.4375 -0.5 C 0.46875 -0.46875 0.484375 -0.425781 0.484375 -0.375 L 0.484375 -0.140625 C 0.484375 -0.117188 0.492188 -0.109375 0.515625 -0.109375 C 0.523438 -0.109375 0.535156 -0.109375 0.546875 -0.109375 L 0.5625 -0.015625 C 0.550781 -0.00390625 0.535156 0 0.515625 0 C 0.503906 0 0.492188 0 0.484375 0 C 0.453125 0 0.425781 -0.00390625 0.40625 -0.015625 C 0.382812 -0.0234375 0.375 -0.046875 0.375 -0.078125 L 0.359375 -0.078125 C 0.328125 -0.015625 0.273438 0.015625 0.203125 0.015625 Z M 0.25 -0.09375 C 0.28125 -0.09375 0.304688 -0.101562 0.328125 -0.125 C 0.347656 -0.144531 0.359375 -0.171875 0.359375 -0.203125 L 0.359375 -0.265625 L 0.34375 -0.265625 C 0.332031 -0.253906 0.320312 -0.25 0.3125 -0.25 C 0.300781 -0.25 0.285156 -0.242188 0.265625 -0.234375 C 0.234375 -0.234375 0.207031 -0.222656 0.1875 -0.203125 C 0.175781 -0.191406 0.171875 -0.175781 0.171875 -0.15625 C 0.171875 -0.132812 0.175781 -0.117188 0.1875 -0.109375 C 0.207031 -0.0976562 0.226562 -0.09375 0.25 -0.09375 Z M 0.25 -0.09375 "/></g></g><g transform="translate(120.467349, 0.899809)"><g/></g><g transform="translate(120.703138, 0.899809)"><g><path d="M 0.25 0.015625 C 0.21875 0.015625 0.1875 0.0078125 0.15625 0 C 0.125 -0.0078125 0.0976562 -0.0195312 0.078125 -0.03125 C 0.0546875 -0.0507812 0.0390625 -0.0703125 0.03125 -0.09375 L 0.09375 -0.171875 L 0.109375 -0.171875 C 0.128906 -0.148438 0.148438 -0.128906 0.171875 -0.109375 C 0.191406 -0.0976562 0.21875 -0.09375 0.25 -0.09375 C 0.28125 -0.09375 0.300781 -0.0976562 0.3125 -0.109375 C 0.320312 -0.117188 0.328125 -0.132812 0.328125 -0.15625 C 0.328125 -0.164062 0.320312 -0.175781 0.3125 -0.1875 C 0.300781 -0.195312 0.285156 -0.203125 0.265625 -0.203125 L 0.203125 -0.234375 C 0.148438 -0.242188 0.109375 -0.257812 0.078125 -0.28125 C 0.0546875 -0.3125 0.046875 -0.347656 0.046875 -0.390625 C 0.046875 -0.421875 0.0507812 -0.445312 0.0625 -0.46875 C 0.0820312 -0.5 0.109375 -0.519531 0.140625 -0.53125 C 0.171875 -0.539062 0.207031 -0.546875 0.25 -0.546875 C 0.300781 -0.546875 0.34375 -0.535156 0.375 -0.515625 C 0.40625 -0.503906 0.429688 -0.488281 0.453125 -0.46875 L 0.375 -0.390625 L 0.359375 -0.390625 C 0.347656 -0.410156 0.332031 -0.421875 0.3125 -0.421875 C 0.289062 -0.429688 0.269531 -0.4375 0.25 -0.4375 C 0.195312 -0.4375 0.171875 -0.421875 0.171875 -0.390625 C 0.171875 -0.378906 0.175781 -0.367188 0.1875 -0.359375 C 0.195312 -0.347656 0.210938 -0.34375 0.234375 -0.34375 L 0.3125 -0.328125 C 0.363281 -0.316406 0.398438 -0.296875 0.421875 -0.265625 C 0.453125 -0.242188 0.46875 -0.207031 0.46875 -0.15625 C 0.46875 -0.125 0.457031 -0.09375 0.4375 -0.0625 C 0.414062 -0.0390625 0.390625 -0.0195312 0.359375 0 C 0.328125 0.0078125 0.289062 0.015625 0.25 0.015625 Z M 0.25 0.015625 "/></g></g><g transform="translate(121.199615, 0.899809)"><g><path d="M 0.25 0.015625 C 0.1875 0.015625 0.140625 0 0.109375 -0.03125 C 0.078125 -0.0703125 0.0625 -0.125 0.0625 -0.1875 L 0.0625 -0.53125 L 0.203125 -0.53125 L 0.203125 -0.203125 C 0.203125 -0.171875 0.207031 -0.144531 0.21875 -0.125 C 0.238281 -0.113281 0.265625 -0.109375 0.296875 -0.109375 C 0.328125 -0.109375 0.351562 -0.117188 0.375 -0.140625 C 0.394531 -0.160156 0.40625 -0.195312 0.40625 -0.25 L 0.40625 -0.53125 L 0.546875 -0.53125 L 0.546875 0 L 0.421875 0 L 0.421875 -0.078125 L 0.40625 -0.078125 C 0.382812 -0.046875 0.363281 -0.0195312 0.34375 0 C 0.320312 0.0078125 0.289062 0.015625 0.25 0.015625 Z M 0.25 0.015625 "/></g></g><g transform="translate(121.82253, 0.899809)"><g><path d="M 0.375 0.015625 C 0.3125 0.015625 0.257812 -0.0078125 0.21875 -0.0625 L 0.21875 0 L 0.078125 0 L 0.078125 -0.75 L 0.21875 -0.75 L 0.21875 -0.46875 C 0.238281 -0.5 0.257812 -0.519531 0.28125 -0.53125 C 0.3125 -0.539062 0.34375 -0.546875 0.375 -0.546875 C 0.414062 -0.546875 0.453125 -0.535156 0.484375 -0.515625 C 0.523438 -0.492188 0.550781 -0.460938 0.5625 -0.421875 C 0.582031 -0.378906 0.59375 -0.328125 0.59375 -0.265625 C 0.59375 -0.203125 0.582031 -0.148438 0.5625 -0.109375 C 0.550781 -0.0664062 0.523438 -0.0351562 0.484375 -0.015625 C 0.453125 0.00390625 0.414062 0.015625 0.375 0.015625 Z M 0.328125 -0.109375 C 0.367188 -0.109375 0.398438 -0.117188 0.421875 -0.140625 C 0.441406 -0.171875 0.453125 -0.210938 0.453125 -0.265625 C 0.453125 -0.328125 0.441406 -0.367188 0.421875 -0.390625 C 0.398438 -0.421875 0.367188 -0.4375 0.328125 -0.4375 C 0.296875 -0.4375 0.269531 -0.421875 0.25 -0.390625 C 0.226562 -0.367188 0.21875 -0.328125 0.21875 -0.265625 C 0.21875 -0.210938 0.226562 -0.171875 0.25 -0.140625 C 0.269531 -0.117188 0.296875 -0.109375 0.328125 -0.109375 Z M 0.328125 -0.109375 "/></g></g><g transform="translate(122.467413, 0.899809)"><g><path d="M 0.078125 0 L 0.078125 -0.75 L 0.21875 -0.75 L 0.21875 -0.46875 C 0.238281 -0.488281 0.257812 -0.503906 0.28125 -0.515625 C 0.3125 -0.535156 0.347656 -0.546875 0.390625 -0.546875 C 0.503906 -0.546875 0.5625 -0.476562 0.5625 -0.34375 L 0.5625 0 L 0.421875 0 L 0.421875 -0.328125 C 0.421875 -0.367188 0.410156 -0.394531 0.390625 -0.40625 C 0.378906 -0.425781 0.363281 -0.4375 0.34375 -0.4375 C 0.300781 -0.4375 0.269531 -0.421875 0.25 -0.390625 C 0.226562 -0.367188 0.21875 -0.332031 0.21875 -0.28125 L 0.21875 0 Z M 0.078125 0 "/></g></g><g transform="translate(123.098139, 0.899809)"><g><path d="M 0.53125 -0.234375 L 0.1875 -0.234375 C 0.1875 -0.191406 0.195312 -0.160156 0.21875 -0.140625 C 0.25 -0.117188 0.28125 -0.109375 0.3125 -0.109375 C 0.34375 -0.109375 0.367188 -0.113281 0.390625 -0.125 C 0.410156 -0.132812 0.425781 -0.148438 0.4375 -0.171875 L 0.453125 -0.171875 L 0.546875 -0.109375 C 0.523438 -0.078125 0.492188 -0.046875 0.453125 -0.015625 C 0.421875 0.00390625 0.375 0.015625 0.3125 0.015625 C 0.257812 0.015625 0.210938 0.00390625 0.171875 -0.015625 C 0.128906 -0.0351562 0.0976562 -0.0664062 0.078125 -0.109375 C 0.0546875 -0.148438 0.046875 -0.203125 0.046875 -0.265625 C 0.046875 -0.328125 0.0546875 -0.378906 0.078125 -0.421875 C 0.109375 -0.460938 0.140625 -0.492188 0.171875 -0.515625 C 0.210938 -0.535156 0.257812 -0.546875 0.3125 -0.546875 C 0.382812 -0.546875 0.441406 -0.523438 0.484375 -0.484375 C 0.523438 -0.441406 0.546875 -0.382812 0.546875 -0.3125 C 0.546875 -0.28125 0.546875 -0.257812 0.546875 -0.25 Z M 0.421875 -0.328125 C 0.421875 -0.367188 0.410156 -0.394531 0.390625 -0.40625 C 0.367188 -0.425781 0.34375 -0.4375 0.3125 -0.4375 C 0.238281 -0.4375 0.195312 -0.398438 0.1875 -0.328125 Z M 0.421875 -0.328125 "/></g></g><g transform="translate(123.683464, 0.899809)"><g><path d="M 0.203125 0.015625 C 0.171875 0.015625 0.140625 0.0078125 0.109375 0 C 0.0859375 -0.0195312 0.0703125 -0.0390625 0.0625 -0.0625 C 0.0507812 -0.09375 0.046875 -0.125 0.046875 -0.15625 C 0.046875 -0.1875 0.0507812 -0.210938 0.0625 -0.234375 C 0.0703125 -0.253906 0.09375 -0.269531 0.125 -0.28125 C 0.15625 -0.300781 0.191406 -0.3125 0.234375 -0.3125 C 0.265625 -0.320312 0.289062 -0.328125 0.3125 -0.328125 C 0.332031 -0.335938 0.34375 -0.347656 0.34375 -0.359375 C 0.351562 -0.367188 0.359375 -0.378906 0.359375 -0.390625 C 0.359375 -0.398438 0.347656 -0.410156 0.328125 -0.421875 C 0.316406 -0.429688 0.300781 -0.4375 0.28125 -0.4375 C 0.25 -0.4375 0.21875 -0.429688 0.1875 -0.421875 C 0.164062 -0.410156 0.144531 -0.394531 0.125 -0.375 L 0.109375 -0.375 L 0.046875 -0.453125 C 0.078125 -0.484375 0.113281 -0.503906 0.15625 -0.515625 C 0.195312 -0.535156 0.238281 -0.546875 0.28125 -0.546875 C 0.351562 -0.546875 0.40625 -0.53125 0.4375 -0.5 C 0.46875 -0.46875 0.484375 -0.425781 0.484375 -0.375 L 0.484375 -0.140625 C 0.484375 -0.117188 0.492188 -0.109375 0.515625 -0.109375 C 0.523438 -0.109375 0.535156 -0.109375 0.546875 -0.109375 L 0.5625 -0.015625 C 0.550781 -0.00390625 0.535156 0 0.515625 0 C 0.503906 0 0.492188 0 0.484375 0 C 0.453125 0 0.425781 -0.00390625 0.40625 -0.015625 C 0.382812 -0.0234375 0.375 -0.046875 0.375 -0.078125 L 0.359375 -0.078125 C 0.328125 -0.015625 0.273438 0.015625 0.203125 0.015625 Z M 0.25 -0.09375 C 0.28125 -0.09375 0.304688 -0.101562 0.328125 -0.125 C 0.347656 -0.144531 0.359375 -0.171875 0.359375 -0.203125 L 0.359375 -0.265625 L 0.34375 -0.265625 C 0.332031 -0.253906 0.320312 -0.25 0.3125 -0.25 C 0.300781 -0.25 0.285156 -0.242188 0.265625 -0.234375 C 0.234375 -0.234375 0.207031 -0.222656 0.1875 -0.203125 C 0.175781 -0.191406 0.171875 -0.175781 0.171875 -0.15625 C 0.171875 -0.132812 0.175781 -0.117188 0.1875 -0.109375 C 0.207031 -0.0976562 0.226562 -0.09375 0.25 -0.09375 Z M 0.25 -0.09375 "/></g></g><g transform="translate(124.251215, 0.899809)"><g><path d="M 0.265625 0.015625 C 0.222656 0.015625 0.1875 0.00390625 0.15625 -0.015625 C 0.125 -0.0351562 0.0976562 -0.0664062 0.078125 -0.109375 C 0.0546875 -0.148438 0.046875 -0.203125 0.046875 -0.265625 C 0.046875 -0.328125 0.0546875 -0.378906 0.078125 -0.421875 C 0.0976562 -0.460938 0.125 -0.492188 0.15625 -0.515625 C 0.1875 -0.535156 0.222656 -0.546875 0.265625 -0.546875 C 0.304688 -0.546875 0.335938 -0.539062 0.359375 -0.53125 C 0.378906 -0.519531 0.398438 -0.503906 0.421875 -0.484375 L 0.4375 -0.484375 L 0.4375 -0.75 L 0.5625 -0.75 L 0.5625 0 L 0.4375 0 L 0.4375 -0.0625 L 0.421875 -0.078125 C 0.410156 -0.046875 0.390625 -0.0195312 0.359375 0 C 0.335938 0.0078125 0.304688 0.015625 0.265625 0.015625 Z M 0.3125 -0.109375 C 0.351562 -0.109375 0.382812 -0.117188 0.40625 -0.140625 C 0.425781 -0.171875 0.4375 -0.210938 0.4375 -0.265625 C 0.4375 -0.328125 0.425781 -0.367188 0.40625 -0.390625 C 0.382812 -0.421875 0.351562 -0.4375 0.3125 -0.4375 C 0.269531 -0.4375 0.238281 -0.421875 0.21875 -0.390625 C 0.195312 -0.367188 0.1875 -0.328125 0.1875 -0.265625 C 0.1875 -0.210938 0.195312 -0.171875 0.21875 -0.140625 C 0.238281 -0.117188 0.269531 -0.109375 0.3125 -0.109375 Z M 0.3125 -0.109375 "/></g></g><g transform="translate(124.896586, 0.899809)"><g><path d="M 0.140625 -0.609375 C 0.117188 -0.609375 0.0976562 -0.613281 0.078125 -0.625 C 0.0664062 -0.632812 0.0625 -0.65625 0.0625 -0.6875 C 0.0625 -0.707031 0.0664062 -0.722656 0.078125 -0.734375 C 0.0976562 -0.753906 0.117188 -0.765625 0.140625 -0.765625 C 0.160156 -0.765625 0.175781 -0.757812 0.1875 -0.75 C 0.195312 -0.738281 0.207031 -0.726562 0.21875 -0.71875 C 0.226562 -0.707031 0.234375 -0.695312 0.234375 -0.6875 C 0.234375 -0.664062 0.226562 -0.648438 0.21875 -0.640625 C 0.207031 -0.628906 0.195312 -0.617188 0.1875 -0.609375 C 0.175781 -0.609375 0.160156 -0.609375 0.140625 -0.609375 Z M 0.078125 0 L 0.078125 -0.53125 L 0.21875 -0.53125 L 0.21875 0 Z M 0.078125 0 "/></g></g><g transform="translate(125.186563, 0.899809)"><g><path d="M 0.078125 0 L 0.078125 -0.53125 L 0.203125 -0.53125 L 0.203125 -0.453125 L 0.21875 -0.453125 C 0.25 -0.515625 0.300781 -0.546875 0.375 -0.546875 C 0.4375 -0.546875 0.484375 -0.53125 0.515625 -0.5 C 0.546875 -0.46875 0.5625 -0.414062 0.5625 -0.34375 L 0.5625 0 L 0.421875 0 L 0.421875 -0.328125 C 0.421875 -0.367188 0.414062 -0.394531 0.40625 -0.40625 C 0.394531 -0.425781 0.375 -0.4375 0.34375 -0.4375 C 0.300781 -0.4375 0.269531 -0.421875 0.25 -0.390625 C 0.226562 -0.367188 0.21875 -0.332031 0.21875 -0.28125 L 0.21875 0 Z M 0.078125 0 "/></g></g><g transform="translate(125.817289, 0.899809)"><g><path d="M 0.28125 0.234375 C 0.1875 0.234375 0.117188 0.21875 0.078125 0.1875 C 0.0351562 0.164062 0.015625 0.128906 0.015625 0.078125 C 0.015625 0.046875 0.0234375 0.0195312 0.046875 0 C 0.0664062 -0.0078125 0.09375 -0.0195312 0.125 -0.03125 C 0.101562 -0.0390625 0.0859375 -0.0507812 0.078125 -0.0625 C 0.078125 -0.0820312 0.078125 -0.101562 0.078125 -0.125 C 0.078125 -0.164062 0.101562 -0.191406 0.15625 -0.203125 L 0.15625 -0.21875 C 0.125 -0.238281 0.0976562 -0.257812 0.078125 -0.28125 C 0.0664062 -0.300781 0.0625 -0.332031 0.0625 -0.375 C 0.0625 -0.40625 0.0703125 -0.429688 0.09375 -0.453125 C 0.113281 -0.484375 0.140625 -0.503906 0.171875 -0.515625 C 0.203125 -0.535156 0.238281 -0.546875 0.28125 -0.546875 C 0.320312 -0.546875 0.359375 -0.539062 0.390625 -0.53125 C 0.398438 -0.550781 0.410156 -0.578125 0.421875 -0.609375 L 0.53125 -0.59375 C 0.519531 -0.5625 0.507812 -0.535156 0.5 -0.515625 C 0.488281 -0.503906 0.472656 -0.492188 0.453125 -0.484375 L 0.453125 -0.46875 C 0.472656 -0.4375 0.484375 -0.398438 0.484375 -0.359375 C 0.484375 -0.328125 0.472656 -0.296875 0.453125 -0.265625 C 0.441406 -0.242188 0.421875 -0.222656 0.390625 -0.203125 C 0.359375 -0.191406 0.320312 -0.1875 0.28125 -0.1875 L 0.265625 -0.1875 C 0.242188 -0.1875 0.234375 -0.1875 0.234375 -0.1875 C 0.222656 -0.1875 0.210938 -0.179688 0.203125 -0.171875 C 0.191406 -0.171875 0.1875 -0.164062 0.1875 -0.15625 C 0.1875 -0.132812 0.191406 -0.117188 0.203125 -0.109375 C 0.210938 -0.109375 0.226562 -0.109375 0.25 -0.109375 L 0.375 -0.109375 C 0.488281 -0.109375 0.546875 -0.0546875 0.546875 0.046875 C 0.546875 0.078125 0.535156 0.109375 0.515625 0.140625 C 0.503906 0.171875 0.476562 0.191406 0.4375 0.203125 C 0.394531 0.222656 0.34375 0.234375 0.28125 0.234375 Z M 0.28125 -0.28125 C 0.300781 -0.28125 0.316406 -0.285156 0.328125 -0.296875 C 0.347656 -0.316406 0.359375 -0.335938 0.359375 -0.359375 C 0.359375 -0.390625 0.347656 -0.410156 0.328125 -0.421875 C 0.316406 -0.441406 0.300781 -0.453125 0.28125 -0.453125 C 0.25 -0.453125 0.226562 -0.441406 0.21875 -0.421875 C 0.207031 -0.410156 0.203125 -0.390625 0.203125 -0.359375 C 0.203125 -0.335938 0.207031 -0.316406 0.21875 -0.296875 C 0.226562 -0.285156 0.25 -0.28125 0.28125 -0.28125 Z M 0.28125 0.125 C 0.320312 0.125 0.351562 0.117188 0.375 0.109375 C 0.394531 0.0976562 0.40625 0.0820312 0.40625 0.0625 C 0.40625 0.0390625 0.398438 0.0234375 0.390625 0.015625 C 0.378906 0.015625 0.363281 0.015625 0.34375 0.015625 L 0.234375 0 C 0.234375 0 0.226562 0 0.21875 0 C 0.195312 0 0.179688 0.00390625 0.171875 0.015625 C 0.160156 0.0234375 0.15625 0.0390625 0.15625 0.0625 C 0.15625 0.0820312 0.164062 0.0976562 0.1875 0.109375 C 0.207031 0.117188 0.238281 0.125 0.28125 0.125 Z M 0.28125 0.125 "/></g></g></g></svg>