<svg xmlns="http://www.w3.org/2000/svg" xmlns:xlink="http://www.w3.org/1999/xlink" width="1122" zoomAndPan="magnify" viewBox="0 0 841.92 595.499987" height="793" preserveAspectRatio="xMidYMid meet" version="1.0"><defs><g/><clipPath id="5ab013bd71"><path d="M 0.3125 0 L 841.527344 0 L 841.527344 595 L 0.3125 595 Z M 0.3125 0 " clip-rule="nonzero"/></clipPath><clipPath id="22f5a8be9d"><path d="M 209 361 L 633 361 L 633 525.589844 L 209 525.589844 Z M 209 361 " clip-rule="nonzero"/></clipPath><clipPath id="092c856a41"><path d="M 192.738281 167 L 649.105469 167 L 649.105469 347 L 192.738281 347 Z M 192.738281 167 " clip-rule="nonzero"/></clipPath><clipPath id="099f419845"><path d="M 355 69.222656 L 487 69.222656 L 487 102 L 355 102 Z M 355 69.222656 " clip-rule="nonzero"/></clipPath></defs><g clip-path="url(#5ab013bd71)"><path fill="#ffffff" d="M 0.3125 0 L 841.855469 0 L 841.855469 595 L 0.3125 595 Z M 0.3125 0 " fill-opacity="1" fill-rule="nonzero"/><path fill="#ffffff" d="M 0.3125 0 L 841.855469 0 L 841.855469 595 L 0.3125 595 Z M 0.3125 0 " fill-opacity="1" fill-rule="nonzero"/></g><path fill="#5271ff" d="M 274.226562 395.167969 C 274.761719 395.167969 275.289062 395.113281 275.816406 395.007812 C 276.339844 394.90625 276.851562 394.75 277.34375 394.546875 C 277.839844 394.339844 278.308594 394.089844 278.753906 393.792969 C 279.199219 393.496094 279.609375 393.15625 279.988281 392.78125 C 280.367188 392.402344 280.703125 391.988281 281 391.542969 C 281.296875 391.101562 281.550781 390.628906 281.753906 390.136719 C 281.957031 389.640625 282.113281 389.132812 282.21875 388.605469 C 282.320312 388.082031 282.375 387.550781 282.375 387.019531 L 282.375 362.570312 L 249.78125 362.570312 L 249.78125 387.019531 C 249.78125 387.550781 249.832031 388.082031 249.9375 388.605469 C 250.042969 389.132812 250.195312 389.640625 250.402344 390.136719 C 250.605469 390.628906 250.855469 391.101562 251.152344 391.542969 C 251.449219 391.988281 251.789062 392.402344 252.167969 392.78125 C 252.546875 393.15625 252.957031 393.496094 253.402344 393.792969 C 253.847656 394.089844 254.316406 394.339844 254.808594 394.546875 C 255.304688 394.75 255.8125 394.90625 256.339844 395.007812 C 256.863281 395.113281 257.394531 395.167969 257.929688 395.167969 Z M 274.226562 395.167969 " fill-opacity="1" fill-rule="nonzero"/><path fill="#5271ff" d="M 420.898438 419.613281 C 422.367188 419.613281 423.832031 419.574219 425.296875 419.503906 C 426.761719 419.433594 428.226562 419.324219 429.6875 419.179688 C 431.144531 419.035156 432.601562 418.855469 434.050781 418.640625 C 435.503906 418.425781 436.949219 418.175781 438.386719 417.890625 C 439.824219 417.601562 441.257812 417.28125 442.679688 416.925781 C 444.101562 416.570312 445.515625 416.179688 446.917969 415.753906 C 448.324219 415.328125 449.714844 414.867188 451.097656 414.371094 C 452.476562 413.878906 453.847656 413.351562 455.203125 412.789062 C 456.558594 412.226562 457.898438 411.632812 459.222656 411.007812 C 460.550781 410.378906 461.859375 409.71875 463.152344 409.027344 C 464.445312 408.335938 465.722656 407.613281 466.980469 406.859375 C 468.238281 406.105469 469.480469 405.320312 470.699219 404.503906 C 471.917969 403.691406 473.117188 402.847656 474.296875 401.972656 C 475.472656 401.097656 476.628906 400.195312 477.761719 399.265625 C 478.898438 398.335938 480.007812 397.378906 481.09375 396.390625 C 482.183594 395.40625 483.242188 394.394531 484.28125 393.359375 C 485.320312 392.320312 486.328125 391.257812 487.316406 390.171875 C 488.300781 389.085938 489.257812 387.976562 490.1875 386.839844 C 491.117188 385.707031 492.019531 384.550781 492.894531 383.371094 C 493.769531 382.195312 494.613281 380.996094 495.429688 379.777344 C 496.242188 378.554688 497.027344 377.316406 497.78125 376.058594 C 498.535156 374.800781 499.257812 373.523438 499.949219 372.230469 C 500.640625 370.9375 501.300781 369.628906 501.929688 368.300781 C 502.554688 366.976562 503.148438 365.632812 503.710938 364.277344 C 504.273438 362.925781 504.800781 361.554688 505.292969 360.175781 C 505.789062 358.792969 506.25 357.402344 506.675781 355.996094 C 507.101562 354.59375 507.492188 353.179688 507.847656 351.757812 C 508.203125 350.335938 508.527344 348.902344 508.8125 347.464844 C 509.097656 346.027344 509.347656 344.582031 509.5625 343.128906 C 509.78125 341.679688 509.960938 340.222656 510.101562 338.761719 C 510.246094 337.304688 510.355469 335.839844 510.425781 334.375 C 510.5 332.910156 510.535156 331.445312 510.535156 329.976562 C 510.535156 328.511719 510.5 327.042969 510.425781 325.578125 C 510.355469 324.113281 510.246094 322.652344 510.101562 321.191406 C 509.960938 319.730469 509.78125 318.277344 509.5625 316.824219 C 509.347656 315.375 509.097656 313.929688 508.8125 312.492188 C 508.527344 311.050781 508.203125 309.621094 507.847656 308.199219 C 507.492188 306.773438 507.101562 305.363281 506.675781 303.957031 C 506.25 302.554688 505.789062 301.160156 505.292969 299.78125 C 504.800781 298.398438 504.273438 297.03125 503.710938 295.675781 C 503.148438 294.320312 502.554688 292.980469 501.929688 291.652344 C 501.300781 290.328125 500.640625 289.019531 499.949219 287.722656 C 499.257812 286.429688 498.535156 285.15625 497.78125 283.894531 C 497.027344 282.636719 496.242188 281.398438 495.429688 280.179688 C 494.613281 278.960938 493.769531 277.761719 492.894531 276.582031 C 492.019531 275.40625 491.117188 274.25 490.1875 273.113281 C 489.257812 271.980469 488.300781 270.871094 487.316406 269.78125 C 486.328125 268.695312 485.320312 267.632812 484.28125 266.597656 C 483.242188 265.558594 482.183594 264.546875 481.09375 263.5625 C 480.007812 262.578125 478.898438 261.621094 477.761719 260.6875 C 476.628906 259.757812 475.472656 258.855469 474.296875 257.984375 C 473.117188 257.109375 471.917969 256.265625 470.699219 255.449219 C 469.480469 254.632812 468.238281 253.851562 466.980469 253.097656 C 465.722656 252.339844 464.445312 251.617188 463.152344 250.925781 C 461.859375 250.234375 460.550781 249.578125 459.222656 248.949219 C 457.898438 248.320312 456.558594 247.726562 455.203125 247.167969 C 453.847656 246.605469 452.476562 246.078125 451.097656 245.582031 C 449.714844 245.089844 448.324219 244.628906 446.917969 244.203125 C 445.515625 243.777344 444.101562 243.386719 442.679688 243.03125 C 441.257812 242.671875 439.824219 242.351562 438.386719 242.066406 C 436.949219 241.78125 435.503906 241.527344 434.050781 241.3125 C 432.601562 241.097656 431.144531 240.917969 429.6875 240.773438 C 428.226562 240.632812 426.761719 240.523438 425.296875 240.453125 C 423.832031 240.378906 422.367188 240.34375 420.898438 240.34375 C 419.433594 240.34375 417.96875 240.378906 416.503906 240.453125 C 415.035156 240.523438 413.574219 240.632812 412.113281 240.773438 C 410.65625 240.917969 409.199219 241.097656 407.75 241.3125 C 406.296875 241.527344 404.851562 241.78125 403.414062 242.066406 C 401.976562 242.351562 400.542969 242.671875 399.121094 243.03125 C 397.699219 243.386719 396.285156 243.777344 394.878906 244.203125 C 393.476562 244.628906 392.085938 245.089844 390.703125 245.582031 C 389.320312 246.078125 387.953125 246.605469 386.597656 247.167969 C 385.242188 247.726562 383.902344 248.320312 382.578125 248.949219 C 381.25 249.578125 379.941406 250.234375 378.648438 250.925781 C 377.351562 251.617188 376.078125 252.339844 374.820312 253.097656 C 373.5625 253.851562 372.320312 254.632812 371.101562 255.449219 C 369.882812 256.265625 368.683594 257.109375 367.503906 257.984375 C 366.328125 258.855469 365.171875 259.757812 364.035156 260.6875 C 362.902344 261.621094 361.792969 262.578125 360.707031 263.5625 C 359.617188 264.546875 358.554688 265.558594 357.519531 266.597656 C 356.480469 267.632812 355.46875 268.695312 354.484375 269.78125 C 353.5 270.871094 352.542969 271.980469 351.613281 273.113281 C 350.679688 274.25 349.777344 275.402344 348.90625 276.582031 C 348.03125 277.761719 347.1875 278.960938 346.371094 280.179688 C 345.558594 281.398438 344.773438 282.636719 344.019531 283.894531 C 343.265625 285.15625 342.542969 286.429688 341.851562 287.722656 C 341.160156 289.019531 340.5 290.328125 339.871094 291.652344 C 339.246094 292.980469 338.648438 294.320312 338.089844 295.675781 C 337.527344 297.03125 337 298.398438 336.503906 299.78125 C 336.011719 301.160156 335.550781 302.554688 335.125 303.957031 C 334.699219 305.363281 334.308594 306.773438 333.953125 308.199219 C 333.59375 309.621094 333.273438 311.050781 332.988281 312.492188 C 332.703125 313.929688 332.453125 315.375 332.234375 316.824219 C 332.019531 318.277344 331.839844 319.730469 331.699219 321.191406 C 331.554688 322.652344 331.445312 324.113281 331.375 325.578125 C 331.300781 327.042969 331.265625 328.511719 331.265625 329.976562 C 331.269531 331.445312 331.304688 332.910156 331.378906 334.375 C 331.453125 335.839844 331.5625 337.300781 331.707031 338.761719 C 331.851562 340.21875 332.035156 341.675781 332.25 343.125 C 332.464844 344.574219 332.71875 346.019531 333.003906 347.457031 C 333.292969 348.894531 333.617188 350.324219 333.972656 351.746094 C 334.332031 353.167969 334.722656 354.582031 335.148438 355.984375 C 335.574219 357.386719 336.035156 358.78125 336.53125 360.160156 C 337.027344 361.539062 337.554688 362.910156 338.117188 364.261719 C 338.679688 365.617188 339.273438 366.957031 339.902344 368.28125 C 340.53125 369.609375 341.1875 370.917969 341.882812 372.210938 C 342.574219 373.503906 343.296875 374.777344 344.050781 376.035156 C 344.804688 377.292969 345.589844 378.53125 346.40625 379.75 C 347.21875 380.96875 348.0625 382.167969 348.9375 383.347656 C 349.8125 384.523438 350.714844 385.679688 351.644531 386.8125 C 352.574219 387.945312 353.53125 389.054688 354.515625 390.140625 C 355.503906 391.230469 356.511719 392.289062 357.550781 393.328125 C 358.585938 394.363281 359.648438 395.375 360.734375 396.359375 C 361.820312 397.34375 362.933594 398.304688 364.066406 399.234375 C 365.199219 400.164062 366.355469 401.066406 367.53125 401.941406 C 368.710938 402.8125 369.90625 403.65625 371.128906 404.472656 C 372.347656 405.289062 373.585938 406.074219 374.84375 406.828125 C 376.097656 407.582031 377.375 408.304688 378.667969 408.996094 C 379.960938 409.6875 381.269531 410.347656 382.59375 410.976562 C 383.921875 411.605469 385.261719 412.199219 386.613281 412.761719 C 387.96875 413.324219 389.335938 413.851562 390.71875 414.347656 C 392.097656 414.839844 393.488281 415.300781 394.890625 415.726562 C 396.296875 416.15625 397.707031 416.546875 399.128906 416.90625 C 400.550781 417.261719 401.984375 417.585938 403.421875 417.871094 C 404.859375 418.160156 406.304688 418.410156 407.753906 418.628906 C 409.203125 418.84375 410.660156 419.027344 412.117188 419.171875 C 413.578125 419.316406 415.039062 419.425781 416.503906 419.5 C 417.96875 419.574219 419.433594 419.609375 420.898438 419.613281 Z M 374.394531 294.996094 C 374.027344 294.617188 373.703125 294.203125 373.414062 293.757812 C 373.125 293.3125 372.886719 292.847656 372.6875 292.355469 C 372.492188 291.863281 372.347656 291.359375 372.25 290.835938 C 372.152344 290.316406 372.105469 289.792969 372.109375 289.265625 C 372.113281 288.734375 372.167969 288.210938 372.277344 287.691406 C 372.382812 287.175781 372.539062 286.671875 372.742188 286.183594 C 372.949219 285.695312 373.195312 285.234375 373.492188 284.792969 C 373.785156 284.355469 374.121094 283.945312 374.496094 283.574219 C 374.871094 283.199219 375.277344 282.863281 375.714844 282.570312 C 376.15625 282.273438 376.617188 282.023438 377.105469 281.820312 C 377.59375 281.617188 378.097656 281.460938 378.617188 281.355469 C 379.132812 281.246094 379.65625 281.191406 380.1875 281.1875 C 380.714844 281.183594 381.242188 281.230469 381.761719 281.328125 C 382.28125 281.421875 382.785156 281.570312 383.277344 281.765625 C 383.769531 281.960938 384.238281 282.203125 384.679688 282.492188 C 385.125 282.777344 385.539062 283.105469 385.917969 283.472656 L 420.898438 318.457031 L 455.882812 283.472656 C 456.261719 283.105469 456.675781 282.777344 457.121094 282.492188 C 457.5625 282.203125 458.03125 281.960938 458.523438 281.765625 C 459.015625 281.570312 459.519531 281.421875 460.039062 281.324219 C 460.558594 281.226562 461.085938 281.183594 461.613281 281.1875 C 462.144531 281.191406 462.667969 281.246094 463.183594 281.351562 C 463.703125 281.460938 464.207031 281.617188 464.695312 281.820312 C 465.183594 282.023438 465.644531 282.273438 466.085938 282.570312 C 466.523438 282.863281 466.929688 283.199219 467.304688 283.574219 C 467.679688 283.945312 468.011719 284.355469 468.308594 284.792969 C 468.601562 285.230469 468.851562 285.695312 469.058594 286.183594 C 469.261719 286.671875 469.417969 287.175781 469.523438 287.691406 C 469.632812 288.210938 469.6875 288.734375 469.691406 289.265625 C 469.695312 289.792969 469.648438 290.316406 469.550781 290.835938 C 469.453125 291.359375 469.308594 291.863281 469.109375 292.355469 C 468.914062 292.847656 468.671875 293.3125 468.386719 293.757812 C 468.097656 294.203125 467.773438 294.617188 467.402344 294.996094 L 432.421875 329.976562 L 467.402344 364.960938 C 467.792969 365.335938 468.140625 365.746094 468.449219 366.191406 C 468.757812 366.636719 469.015625 367.105469 469.230469 367.605469 C 469.445312 368.101562 469.605469 368.613281 469.71875 369.144531 C 469.828125 369.671875 469.886719 370.207031 469.890625 370.75 C 469.894531 371.289062 469.847656 371.828125 469.746094 372.359375 C 469.644531 372.890625 469.488281 373.40625 469.285156 373.90625 C 469.078125 374.40625 468.828125 374.882812 468.527344 375.332031 C 468.226562 375.78125 467.886719 376.199219 467.503906 376.582031 C 467.121094 376.964844 466.707031 377.304688 466.253906 377.605469 C 465.804688 377.90625 465.328125 378.15625 464.828125 378.363281 C 464.328125 378.566406 463.8125 378.71875 463.28125 378.824219 C 462.75 378.925781 462.214844 378.972656 461.671875 378.96875 C 461.132812 378.964844 460.597656 378.90625 460.066406 378.792969 C 459.539062 378.683594 459.023438 378.519531 458.527344 378.308594 C 458.03125 378.09375 457.558594 377.832031 457.113281 377.527344 C 456.667969 377.21875 456.257812 376.871094 455.882812 376.480469 L 420.898438 341.5 L 385.917969 376.480469 C 385.539062 376.847656 385.125 377.175781 384.679688 377.464844 C 384.238281 377.75 383.769531 377.992188 383.277344 378.1875 C 382.785156 378.386719 382.28125 378.53125 381.761719 378.628906 C 381.238281 378.726562 380.714844 378.773438 380.1875 378.769531 C 379.65625 378.765625 379.132812 378.707031 378.617188 378.601562 C 378.097656 378.496094 377.59375 378.339844 377.105469 378.136719 C 376.617188 377.929688 376.15625 377.679688 375.714844 377.386719 C 375.277344 377.089844 374.871094 376.757812 374.496094 376.382812 C 374.121094 376.007812 373.785156 375.601562 373.492188 375.164062 C 373.195312 374.722656 372.945312 374.257812 372.742188 373.769531 C 372.539062 373.285156 372.382812 372.78125 372.277344 372.261719 C 372.167969 371.742188 372.113281 371.21875 372.109375 370.691406 C 372.105469 370.164062 372.152344 369.636719 372.25 369.117188 C 372.347656 368.597656 372.492188 368.09375 372.6875 367.601562 C 372.886719 367.109375 373.125 366.640625 373.414062 366.195312 C 373.703125 365.753906 374.027344 365.339844 374.394531 364.960938 L 409.378906 329.976562 Z M 374.394531 294.996094 " fill-opacity="1" fill-rule="nonzero"/><g clip-path="url(#22f5a8be9d)"><path fill="#5271ff" d="M 217.1875 362.570312 C 214.441406 362.574219 211.726562 362.304688 209.039062 361.757812 L 209.039062 509.246094 C 209.039062 509.78125 209.0625 510.3125 209.117188 510.84375 C 209.167969 511.375 209.246094 511.902344 209.351562 512.425781 C 209.453125 512.949219 209.585938 513.464844 209.738281 513.976562 C 209.894531 514.488281 210.074219 514.988281 210.277344 515.484375 C 210.480469 515.976562 210.710938 516.457031 210.960938 516.929688 C 211.214844 517.398438 211.488281 517.855469 211.785156 518.300781 C 212.082031 518.746094 212.398438 519.171875 212.738281 519.585938 C 213.074219 519.996094 213.433594 520.390625 213.8125 520.769531 C 214.1875 521.148438 214.582031 521.503906 214.996094 521.84375 C 215.410156 522.183594 215.835938 522.5 216.28125 522.796875 C 216.722656 523.09375 217.179688 523.367188 217.652344 523.617188 C 218.121094 523.871094 218.605469 524.097656 219.097656 524.300781 C 219.589844 524.507812 220.09375 524.6875 220.605469 524.839844 C 221.113281 524.996094 221.632812 525.125 222.15625 525.230469 C 222.679688 525.335938 223.207031 525.414062 223.738281 525.464844 C 224.269531 525.515625 224.800781 525.542969 225.335938 525.542969 L 616.464844 525.542969 C 617 525.542969 617.53125 525.515625 618.0625 525.464844 C 618.59375 525.414062 619.121094 525.335938 619.644531 525.230469 C 620.167969 525.125 620.6875 524.996094 621.195312 524.839844 C 621.707031 524.6875 622.210938 524.507812 622.703125 524.300781 C 623.195312 524.097656 623.675781 523.871094 624.148438 523.617188 C 624.617188 523.367188 625.078125 523.09375 625.519531 522.796875 C 625.964844 522.5 626.390625 522.183594 626.804688 521.84375 C 627.21875 521.503906 627.613281 521.148438 627.988281 520.769531 C 628.367188 520.390625 628.726562 519.996094 629.0625 519.585938 C 629.402344 519.171875 629.71875 518.746094 630.015625 518.300781 C 630.3125 517.855469 630.585938 517.398438 630.839844 516.929688 C 631.089844 516.457031 631.316406 515.976562 631.523438 515.484375 C 631.726562 514.988281 631.90625 514.488281 632.0625 513.976562 C 632.214844 513.464844 632.34375 512.949219 632.449219 512.425781 C 632.554688 511.902344 632.632812 511.375 632.683594 510.84375 C 632.738281 510.3125 632.761719 509.78125 632.761719 509.246094 L 632.761719 361.757812 C 630.074219 362.304688 627.359375 362.574219 624.613281 362.570312 L 608.316406 362.570312 L 608.316406 387.019531 C 608.316406 387.816406 608.277344 388.617188 608.199219 389.414062 C 608.121094 390.210938 608.003906 391 607.847656 391.785156 C 607.691406 392.570312 607.496094 393.347656 607.265625 394.113281 C 607.03125 394.878906 606.761719 395.632812 606.457031 396.371094 C 606.148438 397.113281 605.808594 397.835938 605.429688 398.542969 C 605.054688 399.246094 604.640625 399.933594 604.199219 400.597656 C 603.753906 401.265625 603.277344 401.90625 602.769531 402.527344 C 602.261719 403.144531 601.722656 403.738281 601.15625 404.304688 C 600.589844 404.871094 600 405.40625 599.378906 405.914062 C 598.761719 406.421875 598.117188 406.898438 597.453125 407.34375 C 596.789062 407.789062 596.101562 408.199219 595.394531 408.578125 C 594.6875 408.953125 593.964844 409.296875 593.226562 409.601562 C 592.488281 409.910156 591.734375 410.179688 590.96875 410.410156 C 590.203125 410.644531 589.425781 410.835938 588.640625 410.992188 C 587.855469 411.148438 587.0625 411.265625 586.269531 411.34375 C 585.472656 411.425781 584.671875 411.464844 583.871094 411.464844 L 567.574219 411.464844 C 566.773438 411.464844 565.976562 411.425781 565.179688 411.34375 C 564.382812 411.265625 563.589844 411.148438 562.804688 410.992188 C 562.019531 410.835938 561.246094 410.644531 560.476562 410.410156 C 559.710938 410.179688 558.960938 409.910156 558.21875 409.601562 C 557.480469 409.296875 556.757812 408.953125 556.050781 408.578125 C 555.34375 408.199219 554.660156 407.789062 553.992188 407.34375 C 553.328125 406.898438 552.683594 406.421875 552.066406 405.914062 C 551.449219 405.40625 550.855469 404.871094 550.289062 404.304688 C 549.722656 403.738281 549.1875 403.144531 548.675781 402.527344 C 548.167969 401.90625 547.695312 401.265625 547.25 400.597656 C 546.804688 399.933594 546.394531 399.246094 546.015625 398.542969 C 545.636719 397.835938 545.296875 397.113281 544.988281 396.371094 C 544.683594 395.632812 544.414062 394.878906 544.179688 394.113281 C 543.949219 393.347656 543.753906 392.570312 543.597656 391.785156 C 543.441406 391 543.324219 390.210938 543.246094 389.414062 C 543.167969 388.617188 543.128906 387.816406 543.128906 387.019531 L 543.128906 362.570312 L 521.648438 362.570312 C 520.796875 365.214844 519.839844 367.820312 518.78125 370.386719 C 517.722656 372.953125 516.566406 375.476562 515.308594 377.953125 C 514.050781 380.429688 512.699219 382.851562 511.25 385.222656 C 509.804688 387.589844 508.265625 389.902344 506.636719 392.148438 C 505.003906 394.398438 503.289062 396.578125 501.488281 398.691406 C 499.6875 400.808594 497.808594 402.847656 495.84375 404.8125 C 493.882812 406.777344 491.847656 408.664062 489.738281 410.46875 C 487.628906 412.273438 485.449219 413.996094 483.207031 415.628906 C 480.960938 417.265625 478.65625 418.808594 476.289062 420.261719 C 473.921875 421.710938 471.5 423.070312 469.027344 424.332031 C 466.554688 425.59375 464.035156 426.757812 461.46875 427.824219 C 458.902344 428.886719 456.300781 429.847656 453.660156 430.707031 C 451.019531 431.566406 448.347656 432.320312 445.648438 432.96875 C 442.949219 433.621094 440.226562 434.160156 437.484375 434.597656 C 434.742188 435.03125 431.988281 435.359375 429.21875 435.574219 C 426.449219 435.792969 423.675781 435.902344 420.898438 435.902344 C 418.125 435.902344 415.351562 435.792969 412.582031 435.574219 C 409.8125 435.359375 407.058594 435.03125 404.316406 434.597656 C 401.574219 434.160156 398.851562 433.621094 396.152344 432.96875 C 393.449219 432.320312 390.78125 431.566406 388.140625 430.707031 C 385.5 429.847656 382.894531 428.886719 380.332031 427.824219 C 377.765625 426.757812 375.246094 425.59375 372.773438 424.332031 C 370.300781 423.070312 367.878906 421.710938 365.511719 420.261719 C 363.144531 418.808594 360.839844 417.265625 358.59375 415.628906 C 356.347656 413.996094 354.171875 412.273438 352.0625 410.46875 C 349.953125 408.664062 347.917969 406.777344 345.953125 404.8125 C 343.992188 402.847656 342.113281 400.808594 340.3125 398.691406 C 338.511719 396.578125 336.792969 394.398438 335.164062 392.148438 C 333.535156 389.902344 331.996094 387.589844 330.550781 385.222656 C 329.101562 382.851562 327.75 380.429688 326.492188 377.953125 C 325.234375 375.476562 324.078125 372.953125 323.019531 370.386719 C 321.960938 367.820312 321.003906 365.214844 320.152344 362.570312 L 298.671875 362.570312 L 298.671875 387.019531 C 298.671875 387.816406 298.632812 388.617188 298.554688 389.414062 C 298.476562 390.210938 298.359375 391 298.203125 391.785156 C 298.046875 392.570312 297.851562 393.347656 297.617188 394.113281 C 297.386719 394.878906 297.117188 395.632812 296.8125 396.371094 C 296.503906 397.113281 296.164062 397.835938 295.785156 398.542969 C 295.40625 399.246094 294.996094 399.933594 294.550781 400.597656 C 294.105469 401.265625 293.628906 401.90625 293.121094 402.527344 C 292.613281 403.144531 292.078125 403.738281 291.511719 404.304688 C 290.945312 404.871094 290.351562 405.40625 289.734375 405.914062 C 289.113281 406.421875 288.472656 406.898438 287.808594 407.34375 C 287.140625 407.789062 286.457031 408.199219 285.75 408.578125 C 285.042969 408.953125 284.320312 409.296875 283.582031 409.601562 C 282.839844 409.910156 282.089844 410.179688 281.320312 410.410156 C 280.554688 410.644531 279.78125 410.835938 278.996094 410.992188 C 278.210938 411.148438 277.417969 411.265625 276.621094 411.34375 C 275.824219 411.425781 275.027344 411.464844 274.226562 411.464844 L 257.929688 411.464844 C 257.128906 411.464844 256.328125 411.425781 255.53125 411.34375 C 254.734375 411.265625 253.945312 411.148438 253.160156 410.992188 C 252.375 410.835938 251.597656 410.644531 250.832031 410.410156 C 250.066406 410.179688 249.3125 409.910156 248.574219 409.601562 C 247.835938 409.296875 247.109375 408.953125 246.40625 408.578125 C 245.699219 408.199219 245.011719 407.789062 244.347656 407.34375 C 243.683594 406.898438 243.039062 406.421875 242.421875 405.914062 C 241.800781 405.40625 241.210938 404.871094 240.644531 404.304688 C 240.078125 403.738281 239.539062 403.144531 239.03125 402.527344 C 238.523438 401.90625 238.046875 401.265625 237.601562 400.597656 C 237.15625 399.933594 236.746094 399.246094 236.371094 398.542969 C 235.992188 397.835938 235.648438 397.113281 235.34375 396.371094 C 235.039062 395.632812 234.769531 394.878906 234.535156 394.113281 C 234.304688 393.347656 234.109375 392.570312 233.953125 391.785156 C 233.796875 391 233.679688 390.210938 233.601562 389.414062 C 233.523438 388.617188 233.484375 387.816406 233.484375 387.019531 L 233.484375 362.570312 Z M 217.1875 362.570312 " fill-opacity="1" fill-rule="nonzero"/></g><path fill="#5271ff" d="M 583.871094 395.167969 C 584.40625 395.167969 584.9375 395.113281 585.460938 395.007812 C 585.984375 394.90625 586.496094 394.75 586.988281 394.546875 C 587.484375 394.339844 587.953125 394.089844 588.398438 393.792969 C 588.84375 393.496094 589.253906 393.15625 589.632812 392.78125 C 590.011719 392.402344 590.347656 391.988281 590.648438 391.542969 C 590.945312 391.101562 591.195312 390.628906 591.398438 390.136719 C 591.605469 389.640625 591.757812 389.132812 591.863281 388.605469 C 591.96875 388.082031 592.019531 387.550781 592.019531 387.019531 L 592.019531 362.570312 L 559.425781 362.570312 L 559.425781 387.019531 C 559.425781 387.550781 559.476562 388.082031 559.582031 388.605469 C 559.6875 389.132812 559.839844 389.640625 560.046875 390.136719 C 560.25 390.628906 560.5 391.101562 560.800781 391.542969 C 561.097656 391.988281 561.433594 392.402344 561.8125 392.78125 C 562.191406 393.15625 562.601562 393.496094 563.046875 393.792969 C 563.492188 394.089844 563.960938 394.339844 564.457031 394.546875 C 564.949219 394.75 565.460938 394.90625 565.984375 395.007812 C 566.507812 395.113281 567.039062 395.167969 567.574219 395.167969 Z M 583.871094 395.167969 " fill-opacity="1" fill-rule="nonzero"/><g clip-path="url(#092c856a41)"><path fill="#5271ff" d="M 632.761719 167.007812 L 209.039062 167.007812 C 208.503906 167.007812 207.972656 167.03125 207.441406 167.085938 C 206.910156 167.136719 206.382812 167.214844 205.859375 167.320312 C 205.335938 167.421875 204.816406 167.554688 204.304688 167.707031 C 203.796875 167.863281 203.292969 168.042969 202.800781 168.246094 C 202.308594 168.449219 201.824219 168.679688 201.355469 168.929688 C 200.882812 169.183594 200.425781 169.457031 199.984375 169.753906 C 199.539062 170.050781 199.109375 170.367188 198.699219 170.707031 C 198.285156 171.042969 197.890625 171.402344 197.511719 171.78125 C 197.136719 172.15625 196.777344 172.550781 196.441406 172.964844 C 196.101562 173.378906 195.785156 173.804688 195.488281 174.25 C 195.191406 174.691406 194.917969 175.148438 194.664062 175.621094 C 194.414062 176.089844 194.183594 176.574219 193.980469 177.066406 C 193.777344 177.558594 193.597656 178.0625 193.441406 178.574219 C 193.285156 179.082031 193.15625 179.601562 193.054688 180.125 C 192.949219 180.648438 192.871094 181.175781 192.820312 181.707031 C 192.765625 182.238281 192.738281 182.769531 192.738281 183.304688 L 192.738281 321.828125 C 192.738281 322.628906 192.78125 323.429688 192.859375 324.226562 C 192.9375 325.023438 193.054688 325.8125 193.210938 326.597656 C 193.367188 327.382812 193.558594 328.160156 193.792969 328.925781 C 194.023438 329.691406 194.292969 330.445312 194.601562 331.183594 C 194.90625 331.921875 195.25 332.648438 195.625 333.351562 C 196.003906 334.058594 196.414062 334.746094 196.859375 335.410156 C 197.304688 336.074219 197.78125 336.71875 198.289062 337.335938 C 198.796875 337.957031 199.335938 338.546875 199.898438 339.113281 C 200.464844 339.679688 201.058594 340.21875 201.675781 340.726562 C 202.296875 341.234375 202.9375 341.710938 203.605469 342.15625 C 204.269531 342.601562 204.957031 343.011719 205.664062 343.386719 C 206.367188 343.765625 207.089844 344.109375 207.832031 344.414062 C 208.570312 344.71875 209.324219 344.988281 210.089844 345.222656 C 210.855469 345.453125 211.632812 345.648438 212.417969 345.804688 C 213.203125 345.960938 213.992188 346.078125 214.789062 346.15625 C 215.585938 346.234375 216.386719 346.273438 217.1875 346.273438 L 316.355469 346.273438 C 316.046875 344.386719 315.789062 342.492188 315.582031 340.589844 C 315.378906 338.691406 315.222656 336.785156 315.121094 334.875 C 315.019531 332.964844 314.96875 331.054688 314.96875 329.140625 C 314.96875 327.230469 315.023438 325.320312 315.128906 323.410156 C 315.230469 321.5 315.386719 319.59375 315.59375 317.691406 C 315.804688 315.792969 316.0625 313.898438 316.371094 312.011719 C 316.683594 310.125 317.042969 308.246094 317.457031 306.378906 C 317.867188 304.511719 318.332031 302.65625 318.84375 300.8125 C 319.355469 298.972656 319.917969 297.144531 320.527344 295.332031 C 321.140625 293.519531 321.800781 291.726562 322.507812 289.949219 C 323.21875 288.171875 323.972656 286.417969 324.777344 284.683594 C 325.582031 282.945312 326.429688 281.234375 327.328125 279.546875 C 328.222656 277.855469 329.164062 276.191406 330.152344 274.554688 C 331.136719 272.914062 332.167969 271.304688 333.242188 269.722656 C 334.316406 268.140625 335.429688 266.585938 336.589844 265.066406 C 337.746094 263.542969 338.945312 262.054688 340.183594 260.597656 C 341.421875 259.140625 342.699219 257.71875 344.015625 256.328125 C 345.332031 254.941406 346.683594 253.589844 348.070312 252.273438 C 349.460938 250.960938 350.882812 249.683594 352.339844 248.445312 C 353.800781 247.207031 355.289062 246.011719 356.8125 244.855469 C 358.335938 243.695312 359.886719 242.582031 361.472656 241.507812 C 363.054688 240.4375 364.664062 239.40625 366.304688 238.421875 C 367.941406 237.4375 369.605469 236.496094 371.296875 235.597656 C 372.988281 234.703125 374.699219 233.855469 376.433594 233.050781 C 378.171875 232.25 379.925781 231.496094 381.703125 230.785156 C 383.480469 230.078125 385.273438 229.421875 387.085938 228.808594 C 388.898438 228.199219 390.726562 227.636719 392.570312 227.125 C 394.414062 226.617188 396.269531 226.152344 398.136719 225.742188 C 400.003906 225.332031 401.882812 224.972656 403.769531 224.664062 C 405.65625 224.351562 407.550781 224.09375 409.449219 223.890625 C 411.351562 223.683594 413.257812 223.527344 415.167969 223.421875 C 417.078125 223.320312 418.988281 223.269531 420.898438 223.269531 C 422.8125 223.269531 424.722656 223.320312 426.632812 223.421875 C 428.542969 223.527344 430.449219 223.683594 432.347656 223.886719 C 434.25 224.09375 436.144531 224.351562 438.03125 224.664062 C 439.917969 224.972656 441.796875 225.332031 443.664062 225.742188 C 445.53125 226.152344 447.386719 226.613281 449.230469 227.125 C 451.074219 227.636719 452.902344 228.199219 454.714844 228.808594 C 456.523438 229.417969 458.320312 230.078125 460.097656 230.785156 C 461.875 231.496094 463.628906 232.25 465.367188 233.050781 C 467.101562 233.855469 468.8125 234.703125 470.503906 235.597656 C 472.195312 236.496094 473.859375 237.4375 475.496094 238.421875 C 477.136719 239.40625 478.746094 240.4375 480.328125 241.507812 C 481.914062 242.582031 483.464844 243.695312 484.988281 244.855469 C 486.511719 246.011719 488 247.207031 489.460938 248.445312 C 490.917969 249.683594 492.339844 250.960938 493.730469 252.273438 C 495.117188 253.589844 496.46875 254.941406 497.785156 256.328125 C 499.101562 257.71875 500.378906 259.140625 501.617188 260.597656 C 502.855469 262.054688 504.054688 263.542969 505.210938 265.066406 C 506.367188 266.585938 507.484375 268.140625 508.558594 269.722656 C 509.632812 271.304688 510.664062 272.914062 511.648438 274.554688 C 512.636719 276.191406 513.578125 277.855469 514.472656 279.546875 C 515.371094 281.234375 516.21875 282.945312 517.023438 284.683594 C 517.828125 286.417969 518.582031 288.171875 519.292969 289.949219 C 520 291.726562 520.660156 293.519531 521.273438 295.332031 C 521.882812 297.144531 522.445312 298.972656 522.957031 300.8125 C 523.46875 302.65625 523.933594 304.511719 524.34375 306.378906 C 524.757812 308.246094 525.117188 310.125 525.425781 312.011719 C 525.738281 313.898438 525.996094 315.792969 526.203125 317.691406 C 526.414062 319.59375 526.570312 321.5 526.671875 323.410156 C 526.777344 325.320312 526.832031 327.230469 526.832031 329.140625 C 526.832031 331.054688 526.78125 332.964844 526.679688 334.875 C 526.578125 336.785156 526.421875 338.691406 526.21875 340.589844 C 526.011719 342.492188 525.753906 344.386719 525.445312 346.273438 L 624.613281 346.273438 C 625.414062 346.273438 626.214844 346.234375 627.011719 346.15625 C 627.808594 346.078125 628.597656 345.960938 629.382812 345.804688 C 630.167969 345.648438 630.945312 345.453125 631.710938 345.222656 C 632.476562 344.988281 633.230469 344.71875 633.96875 344.414062 C 634.710938 344.109375 635.433594 343.765625 636.136719 343.386719 C 636.84375 343.011719 637.53125 342.601562 638.195312 342.15625 C 638.863281 341.710938 639.503906 341.234375 640.121094 340.726562 C 640.742188 340.21875 641.335938 339.679688 641.898438 339.113281 C 642.464844 338.546875 643.003906 337.957031 643.511719 337.335938 C 644.019531 336.71875 644.496094 336.074219 644.941406 335.410156 C 645.386719 334.746094 645.796875 334.058594 646.171875 333.351562 C 646.550781 332.648438 646.894531 331.921875 647.199219 331.183594 C 647.503906 330.445312 647.773438 329.691406 648.007812 328.925781 C 648.238281 328.160156 648.433594 327.382812 648.589844 326.597656 C 648.746094 325.8125 648.863281 325.023438 648.941406 324.226562 C 649.019531 323.429688 649.058594 322.628906 649.058594 321.828125 L 649.058594 183.304688 C 649.058594 182.769531 649.035156 182.238281 648.980469 181.707031 C 648.929688 181.175781 648.851562 180.648438 648.746094 180.125 C 648.644531 179.601562 648.511719 179.082031 648.359375 178.574219 C 648.203125 178.0625 648.023438 177.558594 647.820312 177.066406 C 647.617188 176.574219 647.386719 176.089844 647.136719 175.621094 C 646.882812 175.148438 646.609375 174.691406 646.3125 174.25 C 646.015625 173.804688 645.699219 173.378906 645.359375 172.964844 C 645.023438 172.550781 644.664062 172.15625 644.285156 171.78125 C 643.910156 171.402344 643.515625 171.042969 643.101562 170.707031 C 642.6875 170.367188 642.261719 170.050781 641.816406 169.753906 C 641.375 169.457031 640.917969 169.183594 640.445312 168.929688 C 639.976562 168.679688 639.492188 168.449219 639 168.246094 C 638.507812 168.042969 638.003906 167.863281 637.492188 167.707031 C 636.984375 167.554688 636.464844 167.421875 635.941406 167.320312 C 635.417969 167.214844 634.890625 167.136719 634.359375 167.085938 C 633.828125 167.03125 633.296875 167.007812 632.761719 167.007812 Z M 632.761719 167.007812 " fill-opacity="1" fill-rule="nonzero"/></g><g clip-path="url(#099f419845)"><path fill="#5271ff" d="M 372.007812 69.222656 C 371.476562 69.222656 370.941406 69.25 370.410156 69.300781 C 369.878906 69.355469 369.351562 69.433594 368.828125 69.535156 C 368.304688 69.640625 367.789062 69.769531 367.277344 69.925781 C 366.765625 70.078125 366.265625 70.257812 365.773438 70.464844 C 365.277344 70.667969 364.796875 70.894531 364.328125 71.148438 C 363.855469 71.398438 363.398438 71.671875 362.953125 71.96875 C 362.511719 72.265625 362.082031 72.585938 361.671875 72.921875 C 361.257812 73.261719 360.863281 73.621094 360.484375 73.996094 C 360.109375 74.375 359.75 74.769531 359.410156 75.183594 C 359.074219 75.59375 358.753906 76.023438 358.457031 76.464844 C 358.160156 76.910156 357.886719 77.367188 357.636719 77.839844 C 357.382812 78.308594 357.15625 78.789062 356.953125 79.285156 C 356.746094 79.777344 356.566406 80.277344 356.414062 80.789062 C 356.257812 81.300781 356.128906 81.816406 356.023438 82.339844 C 355.921875 82.863281 355.84375 83.390625 355.789062 83.921875 C 355.738281 84.453125 355.710938 84.988281 355.710938 85.519531 C 355.710938 86.054688 355.738281 86.585938 355.789062 87.117188 C 355.84375 87.648438 355.921875 88.175781 356.023438 88.699219 C 356.128906 89.222656 356.257812 89.742188 356.414062 90.25 C 356.566406 90.761719 356.746094 91.265625 356.953125 91.757812 C 357.15625 92.25 357.382812 92.730469 357.636719 93.203125 C 357.886719 93.671875 358.160156 94.132812 358.457031 94.574219 C 358.753906 95.019531 359.074219 95.445312 359.410156 95.859375 C 359.75 96.273438 360.109375 96.667969 360.484375 97.042969 C 360.863281 97.421875 361.257812 97.78125 361.671875 98.117188 C 362.082031 98.457031 362.511719 98.773438 362.953125 99.070312 C 363.398438 99.367188 363.855469 99.640625 364.328125 99.894531 C 364.796875 100.144531 365.277344 100.371094 365.773438 100.578125 C 366.265625 100.78125 366.765625 100.960938 367.277344 101.117188 C 367.789062 101.269531 368.304688 101.398438 368.828125 101.503906 C 369.351562 101.609375 369.878906 101.6875 370.410156 101.738281 C 370.941406 101.792969 371.476562 101.816406 372.007812 101.816406 L 469.792969 101.816406 C 470.324219 101.816406 470.859375 101.792969 471.390625 101.738281 C 471.921875 101.6875 472.449219 101.609375 472.972656 101.503906 C 473.496094 101.398438 474.011719 101.269531 474.523438 101.117188 C 475.03125 100.960938 475.535156 100.78125 476.027344 100.578125 C 476.519531 100.371094 477.003906 100.144531 477.472656 99.894531 C 477.945312 99.640625 478.402344 99.367188 478.847656 99.070312 C 479.289062 98.773438 479.71875 98.457031 480.128906 98.117188 C 480.542969 97.78125 480.9375 97.421875 481.316406 97.042969 C 481.691406 96.667969 482.050781 96.273438 482.390625 95.859375 C 482.726562 95.445312 483.046875 95.019531 483.34375 94.574219 C 483.640625 94.132812 483.914062 93.671875 484.164062 93.203125 C 484.414062 92.730469 484.644531 92.25 484.847656 91.757812 C 485.050781 91.265625 485.230469 90.761719 485.386719 90.25 C 485.542969 89.742188 485.671875 89.222656 485.777344 88.699219 C 485.878906 88.175781 485.957031 87.648438 486.011719 87.117188 C 486.0625 86.585938 486.089844 86.054688 486.089844 85.519531 C 486.089844 84.988281 486.0625 84.453125 486.011719 83.921875 C 485.957031 83.390625 485.878906 82.863281 485.777344 82.339844 C 485.671875 81.816406 485.542969 81.300781 485.386719 80.789062 C 485.230469 80.277344 485.050781 79.777344 484.847656 79.285156 C 484.644531 78.789062 484.414062 78.308594 484.164062 77.839844 C 483.914062 77.367188 483.640625 76.910156 483.34375 76.464844 C 483.046875 76.023438 482.726562 75.59375 482.390625 75.183594 C 482.050781 74.769531 481.691406 74.375 481.316406 73.996094 C 480.9375 73.621094 480.542969 73.261719 480.128906 72.921875 C 479.71875 72.585938 479.289062 72.265625 478.847656 71.96875 C 478.402344 71.671875 477.945312 71.398438 477.472656 71.148438 C 477.003906 70.894531 476.519531 70.667969 476.027344 70.464844 C 475.535156 70.257812 475.03125 70.078125 474.523438 69.925781 C 474.011719 69.769531 473.496094 69.640625 472.972656 69.535156 C 472.449219 69.433594 471.921875 69.355469 471.390625 69.300781 C 470.859375 69.25 470.324219 69.222656 469.792969 69.222656 Z M 372.007812 69.222656 " fill-opacity="1" fill-rule="nonzero"/></g><path fill="#5271ff" d="M 331.265625 77.371094 C 330.199219 77.371094 329.132812 77.425781 328.070312 77.527344 C 327.007812 77.632812 325.953125 77.789062 324.90625 78 C 323.859375 78.207031 322.824219 78.464844 321.804688 78.777344 C 320.78125 79.085938 319.777344 79.445312 318.792969 79.851562 C 317.804688 80.261719 316.84375 80.71875 315.902344 81.21875 C 314.960938 81.722656 314.046875 82.273438 313.15625 82.863281 C 312.269531 83.457031 311.414062 84.09375 310.589844 84.769531 C 309.761719 85.449219 308.972656 86.164062 308.21875 86.917969 C 307.464844 87.671875 306.746094 88.464844 306.070312 89.289062 C 305.394531 90.113281 304.757812 90.96875 304.164062 91.859375 C 303.570312 92.746094 303.023438 93.660156 302.519531 94.601562 C 302.015625 95.542969 301.5625 96.507812 301.152344 97.492188 C 300.746094 98.480469 300.386719 99.484375 300.074219 100.503906 C 299.765625 101.527344 299.507812 102.558594 299.296875 103.605469 C 299.089844 104.65625 298.933594 105.710938 298.828125 106.769531 C 298.722656 107.832031 298.671875 108.898438 298.671875 109.964844 L 298.671875 150.710938 L 314.96875 150.710938 L 314.96875 109.964844 C 314.96875 109.433594 314.996094 108.902344 315.050781 108.371094 C 315.105469 107.839844 315.183594 107.3125 315.289062 106.789062 C 315.394531 106.265625 315.527344 105.75 315.679688 105.242188 C 315.835938 104.730469 316.015625 104.230469 316.222656 103.738281 C 316.425781 103.246094 316.65625 102.761719 316.90625 102.292969 C 317.160156 101.824219 317.433594 101.367188 317.730469 100.921875 C 318.027344 100.480469 318.34375 100.050781 318.683594 99.640625 C 319.019531 99.226562 319.378906 98.832031 319.757812 98.457031 C 320.132812 98.078125 320.527344 97.722656 320.941406 97.382812 C 321.351562 97.042969 321.78125 96.726562 322.222656 96.429688 C 322.667969 96.132812 323.121094 95.859375 323.59375 95.609375 C 324.0625 95.355469 324.542969 95.128906 325.035156 94.921875 C 325.527344 94.71875 326.03125 94.539062 326.539062 94.382812 C 327.050781 94.226562 327.566406 94.09375 328.089844 93.992188 C 328.613281 93.886719 329.140625 93.804688 329.671875 93.753906 C 330.199219 93.699219 330.734375 93.671875 331.265625 93.667969 L 340.472656 93.667969 C 339.742188 91.003906 339.390625 88.285156 339.414062 85.519531 C 339.390625 82.753906 339.742188 80.039062 340.472656 77.371094 Z M 331.265625 77.371094 " fill-opacity="1" fill-rule="nonzero"/><path fill="#5271ff" d="M 543.128906 150.710938 L 543.128906 109.964844 C 543.128906 108.898438 543.078125 107.832031 542.972656 106.769531 C 542.867188 105.710938 542.710938 104.65625 542.503906 103.605469 C 542.292969 102.558594 542.035156 101.527344 541.726562 100.503906 C 541.414062 99.484375 541.054688 98.480469 540.648438 97.492188 C 540.238281 96.507812 539.785156 95.542969 539.28125 94.601562 C 538.777344 93.660156 538.230469 92.746094 537.636719 91.859375 C 537.042969 90.96875 536.40625 90.113281 535.730469 89.289062 C 535.054688 88.464844 534.335938 87.671875 533.582031 86.917969 C 532.828125 86.164062 532.039062 85.449219 531.210938 84.769531 C 530.386719 84.09375 529.53125 83.457031 528.644531 82.863281 C 527.753906 82.273438 526.839844 81.722656 525.898438 81.21875 C 524.957031 80.71875 523.992188 80.261719 523.007812 79.851562 C 522.019531 79.445312 521.015625 79.085938 519.996094 78.777344 C 518.972656 78.464844 517.941406 78.207031 516.894531 78 C 515.847656 77.789062 514.792969 77.632812 513.730469 77.527344 C 512.667969 77.425781 511.601562 77.371094 510.535156 77.371094 L 501.328125 77.371094 C 502.058594 80.039062 502.410156 82.753906 502.386719 85.519531 C 502.410156 88.285156 502.058594 91.003906 501.328125 93.667969 L 510.535156 93.667969 C 511.066406 93.671875 511.601562 93.699219 512.128906 93.753906 C 512.660156 93.804688 513.1875 93.886719 513.710938 93.992188 C 514.234375 94.09375 514.75 94.226562 515.261719 94.382812 C 515.769531 94.539062 516.269531 94.71875 516.761719 94.921875 C 517.257812 95.128906 517.738281 95.355469 518.207031 95.609375 C 518.675781 95.859375 519.132812 96.132812 519.578125 96.429688 C 520.019531 96.726562 520.449219 97.042969 520.859375 97.382812 C 521.273438 97.722656 521.667969 98.078125 522.042969 98.457031 C 522.421875 98.832031 522.777344 99.226562 523.117188 99.640625 C 523.457031 100.050781 523.773438 100.480469 524.070312 100.921875 C 524.367188 101.367188 524.640625 101.824219 524.894531 102.292969 C 525.144531 102.761719 525.375 103.246094 525.578125 103.738281 C 525.78125 104.230469 525.964844 104.730469 526.117188 105.242188 C 526.273438 105.75 526.40625 106.265625 526.511719 106.789062 C 526.617188 107.3125 526.695312 107.839844 526.75 108.371094 C 526.800781 108.902344 526.828125 109.433594 526.832031 109.964844 L 526.832031 150.710938 Z M 543.128906 150.710938 " fill-opacity="1" fill-rule="nonzero"/><g fill="#000000" fill-opacity="1"><g transform="translate(117.677413, 0.899809)"><g><path d="M 0.6875 0 L 0.53125 0 L 0.484375 -0.171875 L 0.203125 -0.171875 L 0.15625 0 L 0.015625 0 L 0.25 -0.71875 L 0.4375 -0.71875 Z M 0.34375 -0.5625 L 0.25 -0.28125 L 0.4375 -0.28125 L 0.359375 -0.5625 Z M 0.34375 -0.5625 "/></g></g><g transform="translate(118.373066, 0.899809)"><g><path d="M 0.265625 0.015625 C 0.222656 0.015625 0.1875 0.00390625 0.15625 -0.015625 C 0.125 -0.0351562 0.0976562 -0.0664062 0.078125 -0.109375 C 0.0546875 -0.148438 0.046875 -0.203125 0.046875 -0.265625 C 0.046875 -0.328125 0.0546875 -0.378906 0.078125 -0.421875 C 0.0976562 -0.460938 0.125 -0.492188 0.15625 -0.515625 C 0.1875 -0.535156 0.222656 -0.546875 0.265625 -0.546875 C 0.304688 -0.546875 0.335938 -0.539062 0.359375 -0.53125 C 0.378906 -0.519531 0.398438 -0.503906 0.421875 -0.484375 L 0.4375 -0.484375 L 0.4375 -0.75 L 0.5625 -0.75 L 0.5625 0 L 0.4375 0 L 0.4375 -0.0625 L 0.421875 -0.078125 C 0.410156 -0.046875 0.390625 -0.0195312 0.359375 0 C 0.335938 0.0078125 0.304688 0.015625 0.265625 0.015625 Z M 0.3125 -0.109375 C 0.351562 -0.109375 0.382812 -0.117188 0.40625 -0.140625 C 0.425781 -0.171875 0.4375 -0.210938 0.4375 -0.265625 C 0.4375 -0.328125 0.425781 -0.367188 0.40625 -0.390625 C 0.382812 -0.421875 0.351562 -0.4375 0.3125 -0.4375 C 0.269531 -0.4375 0.238281 -0.421875 0.21875 -0.390625 C 0.195312 -0.367188 0.1875 -0.328125 0.1875 -0.265625 C 0.1875 -0.210938 0.195312 -0.171875 0.21875 -0.140625 C 0.238281 -0.117188 0.269531 -0.109375 0.3125 -0.109375 Z M 0.3125 -0.109375 "/></g></g><g transform="translate(119.018437, 0.899809)"><g><path d="M 0.265625 0.015625 C 0.222656 0.015625 0.1875 0.00390625 0.15625 -0.015625 C 0.125 -0.0351562 0.0976562 -0.0664062 0.078125 -0.109375 C 0.0546875 -0.148438 0.046875 -0.203125 0.046875 -0.265625 C 0.046875 -0.328125 0.0546875 -0.378906 0.078125 -0.421875 C 0.0976562 -0.460938 0.125 -0.492188 0.15625 -0.515625 C 0.1875 -0.535156 0.222656 -0.546875 0.265625 -0.546875 C 0.304688 -0.546875 0.335938 -0.539062 0.359375 -0.53125 C 0.378906 -0.519531 0.398438 -0.503906 0.421875 -0.484375 L 0.4375 -0.484375 L 0.4375 -0.75 L 0.5625 -0.75 L 0.5625 0 L 0.4375 0 L 0.4375 -0.0625 L 0.421875 -0.078125 C 0.410156 -0.046875 0.390625 -0.0195312 0.359375 0 C 0.335938 0.0078125 0.304688 0.015625 0.265625 0.015625 Z M 0.3125 -0.109375 C 0.351562 -0.109375 0.382812 -0.117188 0.40625 -0.140625 C 0.425781 -0.171875 0.4375 -0.210938 0.4375 -0.265625 C 0.4375 -0.328125 0.425781 -0.367188 0.40625 -0.390625 C 0.382812 -0.421875 0.351562 -0.4375 0.3125 -0.4375 C 0.269531 -0.4375 0.238281 -0.421875 0.21875 -0.390625 C 0.195312 -0.367188 0.1875 -0.328125 0.1875 -0.265625 C 0.1875 -0.210938 0.195312 -0.171875 0.21875 -0.140625 C 0.238281 -0.117188 0.269531 -0.109375 0.3125 -0.109375 Z M 0.3125 -0.109375 "/></g></g><g transform="translate(119.663808, 0.899809)"><g/></g><g transform="translate(119.899598, 0.899809)"><g><path d="M 0.203125 0.015625 C 0.171875 0.015625 0.140625 0.0078125 0.109375 0 C 0.0859375 -0.0195312 0.0703125 -0.0390625 0.0625 -0.0625 C 0.0507812 -0.09375 0.046875 -0.125 0.046875 -0.15625 C 0.046875 -0.1875 0.0507812 -0.210938 0.0625 -0.234375 C 0.0703125 -0.253906 0.09375 -0.269531 0.125 -0.28125 C 0.15625 -0.300781 0.191406 -0.3125 0.234375 -0.3125 C 0.265625 -0.320312 0.289062 -0.328125 0.3125 -0.328125 C 0.332031 -0.335938 0.34375 -0.347656 0.34375 -0.359375 C 0.351562 -0.367188 0.359375 -0.378906 0.359375 -0.390625 C 0.359375 -0.398438 0.347656 -0.410156 0.328125 -0.421875 C 0.316406 -0.429688 0.300781 -0.4375 0.28125 -0.4375 C 0.25 -0.4375 0.21875 -0.429688 0.1875 -0.421875 C 0.164062 -0.410156 0.144531 -0.394531 0.125 -0.375 L 0.109375 -0.375 L 0.046875 -0.453125 C 0.078125 -0.484375 0.113281 -0.503906 0.15625 -0.515625 C 0.195312 -0.535156 0.238281 -0.546875 0.28125 -0.546875 C 0.351562 -0.546875 0.40625 -0.53125 0.4375 -0.5 C 0.46875 -0.46875 0.484375 -0.425781 0.484375 -0.375 L 0.484375 -0.140625 C 0.484375 -0.117188 0.492188 -0.109375 0.515625 -0.109375 C 0.523438 -0.109375 0.535156 -0.109375 0.546875 -0.109375 L 0.5625 -0.015625 C 0.550781 -0.00390625 0.535156 0 0.515625 0 C 0.503906 0 0.492188 0 0.484375 0 C 0.453125 0 0.425781 -0.00390625 0.40625 -0.015625 C 0.382812 -0.0234375 0.375 -0.046875 0.375 -0.078125 L 0.359375 -0.078125 C 0.328125 -0.015625 0.273438 0.015625 0.203125 0.015625 Z M 0.25 -0.09375 C 0.28125 -0.09375 0.304688 -0.101562 0.328125 -0.125 C 0.347656 -0.144531 0.359375 -0.171875 0.359375 -0.203125 L 0.359375 -0.265625 L 0.34375 -0.265625 C 0.332031 -0.253906 0.320312 -0.25 0.3125 -0.25 C 0.300781 -0.25 0.285156 -0.242188 0.265625 -0.234375 C 0.234375 -0.234375 0.207031 -0.222656 0.1875 -0.203125 C 0.175781 -0.191406 0.171875 -0.175781 0.171875 -0.15625 C 0.171875 -0.132812 0.175781 -0.117188 0.1875 -0.109375 C 0.207031 -0.0976562 0.226562 -0.09375 0.25 -0.09375 Z M 0.25 -0.09375 "/></g></g><g transform="translate(120.467349, 0.899809)"><g/></g><g transform="translate(120.703138, 0.899809)"><g><path d="M 0.25 0.015625 C 0.21875 0.015625 0.1875 0.0078125 0.15625 0 C 0.125 -0.0078125 0.0976562 -0.0195312 0.078125 -0.03125 C 0.0546875 -0.0507812 0.0390625 -0.0703125 0.03125 -0.09375 L 0.09375 -0.171875 L 0.109375 -0.171875 C 0.128906 -0.148438 0.148438 -0.128906 0.171875 -0.109375 C 0.191406 -0.0976562 0.21875 -0.09375 0.25 -0.09375 C 0.28125 -0.09375 0.300781 -0.0976562 0.3125 -0.109375 C 0.320312 -0.117188 0.328125 -0.132812 0.328125 -0.15625 C 0.328125 -0.164062 0.320312 -0.175781 0.3125 -0.1875 C 0.300781 -0.195312 0.285156 -0.203125 0.265625 -0.203125 L 0.203125 -0.234375 C 0.148438 -0.242188 0.109375 -0.257812 0.078125 -0.28125 C 0.0546875 -0.3125 0.046875 -0.347656 0.046875 -0.390625 C 0.046875 -0.421875 0.0507812 -0.445312 0.0625 -0.46875 C 0.0820312 -0.5 0.109375 -0.519531 0.140625 -0.53125 C 0.171875 -0.539062 0.207031 -0.546875 0.25 -0.546875 C 0.300781 -0.546875 0.34375 -0.535156 0.375 -0.515625 C 0.40625 -0.503906 0.429688 -0.488281 0.453125 -0.46875 L 0.375 -0.390625 L 0.359375 -0.390625 C 0.347656 -0.410156 0.332031 -0.421875 0.3125 -0.421875 C 0.289062 -0.429688 0.269531 -0.4375 0.25 -0.4375 C 0.195312 -0.4375 0.171875 -0.421875 0.171875 -0.390625 C 0.171875 -0.378906 0.175781 -0.367188 0.1875 -0.359375 C 0.195312 -0.347656 0.210938 -0.34375 0.234375 -0.34375 L 0.3125 -0.328125 C 0.363281 -0.316406 0.398438 -0.296875 0.421875 -0.265625 C 0.453125 -0.242188 0.46875 -0.207031 0.46875 -0.15625 C 0.46875 -0.125 0.457031 -0.09375 0.4375 -0.0625 C 0.414062 -0.0390625 0.390625 -0.0195312 0.359375 0 C 0.328125 0.0078125 0.289062 0.015625 0.25 0.015625 Z M 0.25 0.015625 "/></g></g><g transform="translate(121.199615, 0.899809)"><g><path d="M 0.25 0.015625 C 0.1875 0.015625 0.140625 0 0.109375 -0.03125 C 0.078125 -0.0703125 0.0625 -0.125 0.0625 -0.1875 L 0.0625 -0.53125 L 0.203125 -0.53125 L 0.203125 -0.203125 C 0.203125 -0.171875 0.207031 -0.144531 0.21875 -0.125 C 0.238281 -0.113281 0.265625 -0.109375 0.296875 -0.109375 C 0.328125 -0.109375 0.351562 -0.117188 0.375 -0.140625 C 0.394531 -0.160156 0.40625 -0.195312 0.40625 -0.25 L 0.40625 -0.53125 L 0.546875 -0.53125 L 0.546875 0 L 0.421875 0 L 0.421875 -0.078125 L 0.40625 -0.078125 C 0.382812 -0.046875 0.363281 -0.0195312 0.34375 0 C 0.320312 0.0078125 0.289062 0.015625 0.25 0.015625 Z M 0.25 0.015625 "/></g></g><g transform="translate(121.82253, 0.899809)"><g><path d="M 0.375 0.015625 C 0.3125 0.015625 0.257812 -0.0078125 0.21875 -0.0625 L 0.21875 0 L 0.078125 0 L 0.078125 -0.75 L 0.21875 -0.75 L 0.21875 -0.46875 C 0.238281 -0.5 0.257812 -0.519531 0.28125 -0.53125 C 0.3125 -0.539062 0.34375 -0.546875 0.375 -0.546875 C 0.414062 -0.546875 0.453125 -0.535156 0.484375 -0.515625 C 0.523438 -0.492188 0.550781 -0.460938 0.5625 -0.421875 C 0.582031 -0.378906 0.59375 -0.328125 0.59375 -0.265625 C 0.59375 -0.203125 0.582031 -0.148438 0.5625 -0.109375 C 0.550781 -0.0664062 0.523438 -0.0351562 0.484375 -0.015625 C 0.453125 0.00390625 0.414062 0.015625 0.375 0.015625 Z M 0.328125 -0.109375 C 0.367188 -0.109375 0.398438 -0.117188 0.421875 -0.140625 C 0.441406 -0.171875 0.453125 -0.210938 0.453125 -0.265625 C 0.453125 -0.328125 0.441406 -0.367188 0.421875 -0.390625 C 0.398438 -0.421875 0.367188 -0.4375 0.328125 -0.4375 C 0.296875 -0.4375 0.269531 -0.421875 0.25 -0.390625 C 0.226562 -0.367188 0.21875 -0.328125 0.21875 -0.265625 C 0.21875 -0.210938 0.226562 -0.171875 0.25 -0.140625 C 0.269531 -0.117188 0.296875 -0.109375 0.328125 -0.109375 Z M 0.328125 -0.109375 "/></g></g><g transform="translate(122.467413, 0.899809)"><g><path d="M 0.078125 0 L 0.078125 -0.75 L 0.21875 -0.75 L 0.21875 -0.46875 C 0.238281 -0.488281 0.257812 -0.503906 0.28125 -0.515625 C 0.3125 -0.535156 0.347656 -0.546875 0.390625 -0.546875 C 0.503906 -0.546875 0.5625 -0.476562 0.5625 -0.34375 L 0.5625 0 L 0.421875 0 L 0.421875 -0.328125 C 0.421875 -0.367188 0.410156 -0.394531 0.390625 -0.40625 C 0.378906 -0.425781 0.363281 -0.4375 0.34375 -0.4375 C 0.300781 -0.4375 0.269531 -0.421875 0.25 -0.390625 C 0.226562 -0.367188 0.21875 -0.332031 0.21875 -0.28125 L 0.21875 0 Z M 0.078125 0 "/></g></g><g transform="translate(123.098139, 0.899809)"><g><path d="M 0.53125 -0.234375 L 0.1875 -0.234375 C 0.1875 -0.191406 0.195312 -0.160156 0.21875 -0.140625 C 0.25 -0.117188 0.28125 -0.109375 0.3125 -0.109375 C 0.34375 -0.109375 0.367188 -0.113281 0.390625 -0.125 C 0.410156 -0.132812 0.425781 -0.148438 0.4375 -0.171875 L 0.453125 -0.171875 L 0.546875 -0.109375 C 0.523438 -0.078125 0.492188 -0.046875 0.453125 -0.015625 C 0.421875 0.00390625 0.375 0.015625 0.3125 0.015625 C 0.257812 0.015625 0.210938 0.00390625 0.171875 -0.015625 C 0.128906 -0.0351562 0.0976562 -0.0664062 0.078125 -0.109375 C 0.0546875 -0.148438 0.046875 -0.203125 0.046875 -0.265625 C 0.046875 -0.328125 0.0546875 -0.378906 0.078125 -0.421875 C 0.109375 -0.460938 0.140625 -0.492188 0.171875 -0.515625 C 0.210938 -0.535156 0.257812 -0.546875 0.3125 -0.546875 C 0.382812 -0.546875 0.441406 -0.523438 0.484375 -0.484375 C 0.523438 -0.441406 0.546875 -0.382812 0.546875 -0.3125 C 0.546875 -0.28125 0.546875 -0.257812 0.546875 -0.25 Z M 0.421875 -0.328125 C 0.421875 -0.367188 0.410156 -0.394531 0.390625 -0.40625 C 0.367188 -0.425781 0.34375 -0.4375 0.3125 -0.4375 C 0.238281 -0.4375 0.195312 -0.398438 0.1875 -0.328125 Z M 0.421875 -0.328125 "/></g></g><g transform="translate(123.683464, 0.899809)"><g><path d="M 0.203125 0.015625 C 0.171875 0.015625 0.140625 0.0078125 0.109375 0 C 0.0859375 -0.0195312 0.0703125 -0.0390625 0.0625 -0.0625 C 0.0507812 -0.09375 0.046875 -0.125 0.046875 -0.15625 C 0.046875 -0.1875 0.0507812 -0.210938 0.0625 -0.234375 C 0.0703125 -0.253906 0.09375 -0.269531 0.125 -0.28125 C 0.15625 -0.300781 0.191406 -0.3125 0.234375 -0.3125 C 0.265625 -0.320312 0.289062 -0.328125 0.3125 -0.328125 C 0.332031 -0.335938 0.34375 -0.347656 0.34375 -0.359375 C 0.351562 -0.367188 0.359375 -0.378906 0.359375 -0.390625 C 0.359375 -0.398438 0.347656 -0.410156 0.328125 -0.421875 C 0.316406 -0.429688 0.300781 -0.4375 0.28125 -0.4375 C 0.25 -0.4375 0.21875 -0.429688 0.1875 -0.421875 C 0.164062 -0.410156 0.144531 -0.394531 0.125 -0.375 L 0.109375 -0.375 L 0.046875 -0.453125 C 0.078125 -0.484375 0.113281 -0.503906 0.15625 -0.515625 C 0.195312 -0.535156 0.238281 -0.546875 0.28125 -0.546875 C 0.351562 -0.546875 0.40625 -0.53125 0.4375 -0.5 C 0.46875 -0.46875 0.484375 -0.425781 0.484375 -0.375 L 0.484375 -0.140625 C 0.484375 -0.117188 0.492188 -0.109375 0.515625 -0.109375 C 0.523438 -0.109375 0.535156 -0.109375 0.546875 -0.109375 L 0.5625 -0.015625 C 0.550781 -0.00390625 0.535156 0 0.515625 0 C 0.503906 0 0.492188 0 0.484375 0 C 0.453125 0 0.425781 -0.00390625 0.40625 -0.015625 C 0.382812 -0.0234375 0.375 -0.046875 0.375 -0.078125 L 0.359375 -0.078125 C 0.328125 -0.015625 0.273438 0.015625 0.203125 0.015625 Z M 0.25 -0.09375 C 0.28125 -0.09375 0.304688 -0.101562 0.328125 -0.125 C 0.347656 -0.144531 0.359375 -0.171875 0.359375 -0.203125 L 0.359375 -0.265625 L 0.34375 -0.265625 C 0.332031 -0.253906 0.320312 -0.25 0.3125 -0.25 C 0.300781 -0.25 0.285156 -0.242188 0.265625 -0.234375 C 0.234375 -0.234375 0.207031 -0.222656 0.1875 -0.203125 C 0.175781 -0.191406 0.171875 -0.175781 0.171875 -0.15625 C 0.171875 -0.132812 0.175781 -0.117188 0.1875 -0.109375 C 0.207031 -0.0976562 0.226562 -0.09375 0.25 -0.09375 Z M 0.25 -0.09375 "/></g></g><g transform="translate(124.251215, 0.899809)"><g><path d="M 0.265625 0.015625 C 0.222656 0.015625 0.1875 0.00390625 0.15625 -0.015625 C 0.125 -0.0351562 0.0976562 -0.0664062 0.078125 -0.109375 C 0.0546875 -0.148438 0.046875 -0.203125 0.046875 -0.265625 C 0.046875 -0.328125 0.0546875 -0.378906 0.078125 -0.421875 C 0.0976562 -0.460938 0.125 -0.492188 0.15625 -0.515625 C 0.1875 -0.535156 0.222656 -0.546875 0.265625 -0.546875 C 0.304688 -0.546875 0.335938 -0.539062 0.359375 -0.53125 C 0.378906 -0.519531 0.398438 -0.503906 0.421875 -0.484375 L 0.4375 -0.484375 L 0.4375 -0.75 L 0.5625 -0.75 L 0.5625 0 L 0.4375 0 L 0.4375 -0.0625 L 0.421875 -0.078125 C 0.410156 -0.046875 0.390625 -0.0195312 0.359375 0 C 0.335938 0.0078125 0.304688 0.015625 0.265625 0.015625 Z M 0.3125 -0.109375 C 0.351562 -0.109375 0.382812 -0.117188 0.40625 -0.140625 C 0.425781 -0.171875 0.4375 -0.210938 0.4375 -0.265625 C 0.4375 -0.328125 0.425781 -0.367188 0.40625 -0.390625 C 0.382812 -0.421875 0.351562 -0.4375 0.3125 -0.4375 C 0.269531 -0.4375 0.238281 -0.421875 0.21875 -0.390625 C 0.195312 -0.367188 0.1875 -0.328125 0.1875 -0.265625 C 0.1875 -0.210938 0.195312 -0.171875 0.21875 -0.140625 C 0.238281 -0.117188 0.269531 -0.109375 0.3125 -0.109375 Z M 0.3125 -0.109375 "/></g></g><g transform="translate(124.896586, 0.899809)"><g><path d="M 0.140625 -0.609375 C 0.117188 -0.609375 0.0976562 -0.613281 0.078125 -0.625 C 0.0664062 -0.632812 0.0625 -0.65625 0.0625 -0.6875 C 0.0625 -0.707031 0.0664062 -0.722656 0.078125 -0.734375 C 0.0976562 -0.753906 0.117188 -0.765625 0.140625 -0.765625 C 0.160156 -0.765625 0.175781 -0.757812 0.1875 -0.75 C 0.195312 -0.738281 0.207031 -0.726562 0.21875 -0.71875 C 0.226562 -0.707031 0.234375 -0.695312 0.234375 -0.6875 C 0.234375 -0.664062 0.226562 -0.648438 0.21875 -0.640625 C 0.207031 -0.628906 0.195312 -0.617188 0.1875 -0.609375 C 0.175781 -0.609375 0.160156 -0.609375 0.140625 -0.609375 Z M 0.078125 0 L 0.078125 -0.53125 L 0.21875 -0.53125 L 0.21875 0 Z M 0.078125 0 "/></g></g><g transform="translate(125.186563, 0.899809)"><g><path d="M 0.078125 0 L 0.078125 -0.53125 L 0.203125 -0.53125 L 0.203125 -0.453125 L 0.21875 -0.453125 C 0.25 -0.515625 0.300781 -0.546875 0.375 -0.546875 C 0.4375 -0.546875 0.484375 -0.53125 0.515625 -0.5 C 0.546875 -0.46875 0.5625 -0.414062 0.5625 -0.34375 L 0.5625 0 L 0.421875 0 L 0.421875 -0.328125 C 0.421875 -0.367188 0.414062 -0.394531 0.40625 -0.40625 C 0.394531 -0.425781 0.375 -0.4375 0.34375 -0.4375 C 0.300781 -0.4375 0.269531 -0.421875 0.25 -0.390625 C 0.226562 -0.367188 0.21875 -0.332031 0.21875 -0.28125 L 0.21875 0 Z M 0.078125 0 "/></g></g><g transform="translate(125.817289, 0.899809)"><g><path d="M 0.28125 0.234375 C 0.1875 0.234375 0.117188 0.21875 0.078125 0.1875 C 0.0351562 0.164062 0.015625 0.128906 0.015625 0.078125 C 0.015625 0.046875 0.0234375 0.0195312 0.046875 0 C 0.0664062 -0.0078125 0.09375 -0.0195312 0.125 -0.03125 C 0.101562 -0.0390625 0.0859375 -0.0507812 0.078125 -0.0625 C 0.078125 -0.0820312 0.078125 -0.101562 0.078125 -0.125 C 0.078125 -0.164062 0.101562 -0.191406 0.15625 -0.203125 L 0.15625 -0.21875 C 0.125 -0.238281 0.0976562 -0.257812 0.078125 -0.28125 C 0.0664062 -0.300781 0.0625 -0.332031 0.0625 -0.375 C 0.0625 -0.40625 0.0703125 -0.429688 0.09375 -0.453125 C 0.113281 -0.484375 0.140625 -0.503906 0.171875 -0.515625 C 0.203125 -0.535156 0.238281 -0.546875 0.28125 -0.546875 C 0.320312 -0.546875 0.359375 -0.539062 0.390625 -0.53125 C 0.398438 -0.550781 0.410156 -0.578125 0.421875 -0.609375 L 0.53125 -0.59375 C 0.519531 -0.5625 0.507812 -0.535156 0.5 -0.515625 C 0.488281 -0.503906 0.472656 -0.492188 0.453125 -0.484375 L 0.453125 -0.46875 C 0.472656 -0.4375 0.484375 -0.398438 0.484375 -0.359375 C 0.484375 -0.328125 0.472656 -0.296875 0.453125 -0.265625 C 0.441406 -0.242188 0.421875 -0.222656 0.390625 -0.203125 C 0.359375 -0.191406 0.320312 -0.1875 0.28125 -0.1875 L 0.265625 -0.1875 C 0.242188 -0.1875 0.234375 -0.1875 0.234375 -0.1875 C 0.222656 -0.1875 0.210938 -0.179688 0.203125 -0.171875 C 0.191406 -0.171875 0.1875 -0.164062 0.1875 -0.15625 C 0.1875 -0.132812 0.191406 -0.117188 0.203125 -0.109375 C 0.210938 -0.109375 0.226562 -0.109375 0.25 -0.109375 L 0.375 -0.109375 C 0.488281 -0.109375 0.546875 -0.0546875 0.546875 0.046875 C 0.546875 0.078125 0.535156 0.109375 0.515625 0.140625 C 0.503906 0.171875 0.476562 0.191406 0.4375 0.203125 C 0.394531 0.222656 0.34375 0.234375 0.28125 0.234375 Z M 0.28125 -0.28125 C 0.300781 -0.28125 0.316406 -0.285156 0.328125 -0.296875 C 0.347656 -0.316406 0.359375 -0.335938 0.359375 -0.359375 C 0.359375 -0.390625 0.347656 -0.410156 0.328125 -0.421875 C 0.316406 -0.441406 0.300781 -0.453125 0.28125 -0.453125 C 0.25 -0.453125 0.226562 -0.441406 0.21875 -0.421875 C 0.207031 -0.410156 0.203125 -0.390625 0.203125 -0.359375 C 0.203125 -0.335938 0.207031 -0.316406 0.21875 -0.296875 C 0.226562 -0.285156 0.25 -0.28125 0.28125 -0.28125 Z M 0.28125 0.125 C 0.320312 0.125 0.351562 0.117188 0.375 0.109375 C 0.394531 0.0976562 0.40625 0.0820312 0.40625 0.0625 C 0.40625 0.0390625 0.398438 0.0234375 0.390625 0.015625 C 0.378906 0.015625 0.363281 0.015625 0.34375 0.015625 L 0.234375 0 C 0.234375 0 0.226562 0 0.21875 0 C 0.195312 0 0.179688 0.00390625 0.171875 0.015625 C 0.160156 0.0234375 0.15625 0.0390625 0.15625 0.0625 C 0.15625 0.0820312 0.164062 0.0976562 0.1875 0.109375 C 0.207031 0.117188 0.238281 0.125 0.28125 0.125 Z M 0.28125 0.125 "/></g></g></g></svg>